<?xml version="1.0"?>
<!-- Generated by SVGo -->
<svg width="334.802mm" height="125.252mm"
     viewBox="0.000 0.000 334.802 125.252"
     xmlns="http://www.w3.org/2000/svg" 
     xmlns:xlink="http://www.w3.org/1999/xlink">
<polygon points="324.802,5.001 325.194,5.016 325.584,5.062 325.969,5.139 326.347,5.245 326.715,5.381 327.071,5.545 327.414,5.737 327.740,5.955 328.049,6.198 328.337,6.465 328.604,6.753 328.847,7.062 329.065,7.388 329.257,7.731 329.421,8.087 329.557,8.455 329.663,8.833 329.740,9.218 329.786,9.608 329.801,10.001 329.802,115.251 329.786,115.644 329.740,116.034 329.663,116.419 329.557,116.797 329.421,117.165 329.257,117.521 329.065,117.864 328.847,118.190 328.604,118.499 328.337,118.787 328.049,119.054 327.740,119.297 327.414,119.515 327.071,119.707 326.715,119.871 326.347,120.007 325.969,120.113 325.584,120.190 325.194,120.236 324.802,120.252 10.001,120.251 9.608,120.236 9.218,120.190 8.833,120.113 8.455,120.007 8.087,119.871 7.731,119.707 7.388,119.515 7.062,119.297 6.753,119.054 6.465,118.787 6.198,118.499 5.955,118.190 5.737,117.864 5.545,117.521 5.381,117.165 5.245,116.797 5.139,116.419 5.062,116.034 5.016,115.644 5.000,115.251 5.001,10.001 5.016,9.608 5.062,9.218 5.139,8.833 5.245,8.455 5.381,8.087 5.545,7.731 5.737,7.388 5.955,7.062 6.198,6.753 6.465,6.465 6.753,6.198 7.062,5.955 7.388,5.737 7.731,5.545 8.087,5.381 8.455,5.245 8.833,5.139 9.218,5.062 9.608,5.016 10.001,5.000" style="fill:none;stroke-width:0.050000mm;stroke:black"/>
<polygon points="9.382,113.349 8.825,113.633 8.382,114.076 8.097,114.633 8.001,115.251 8.097,115.870 8.382,116.427 8.825,116.870 9.382,117.154 10.001,117.251 10.619,117.154 11.176,116.870 11.619,116.427 11.903,115.870 12.001,115.251 11.903,114.633 11.619,114.076 11.176,113.633 10.619,113.349 10.001,113.251" style="fill:none;stroke-width:0.050000mm;stroke:black"/>
<polygon points="166.783,113.349 166.225,113.633 165.783,114.076 165.499,114.633 165.401,115.251 165.499,115.870 165.783,116.427 166.225,116.870 166.783,117.154 167.401,117.251 168.019,117.154 168.577,116.870 169.019,116.427 169.303,115.870 169.401,115.251 169.303,114.633 169.019,114.076 168.577,113.633 168.019,113.349 167.401,113.251" style="fill:none;stroke-width:0.050000mm;stroke:black"/>
<polygon points="324.183,113.349 323.626,113.633 323.183,114.076 322.899,114.633 322.802,115.251 322.899,115.870 323.183,116.427 323.626,116.870 324.183,117.154 324.802,117.251 325.420,117.154 325.977,116.870 326.420,116.427 326.704,115.870 326.802,115.251 326.704,114.633 326.420,114.076 325.977,113.633 325.420,113.349 324.802,113.251" style="fill:none;stroke-width:0.050000mm;stroke:black"/>
<polygon points="9.382,8.097 8.825,8.382 8.382,8.825 8.097,9.382 8.001,10.001 8.097,10.619 8.382,11.176 8.825,11.619 9.382,11.903 10.001,12.001 10.619,11.903 11.176,11.619 11.619,11.176 11.903,10.619 12.001,10.001 11.903,9.382 11.619,8.825 11.176,8.382 10.619,8.097 10.001,8.001" style="fill:none;stroke-width:0.050000mm;stroke:black"/>
<polygon points="324.183,8.097 323.626,8.382 323.183,8.825 322.899,9.382 322.802,10.001 322.899,10.619 323.183,11.176 323.626,11.619 324.183,11.903 324.802,12.001 325.420,11.903 325.977,11.619 326.420,11.176 326.704,10.619 326.802,10.001 326.704,9.382 326.420,8.825 325.977,8.382 325.420,8.097 324.802,8.001" style="fill:none;stroke-width:0.050000mm;stroke:black"/>
<polygon points="166.783,8.097 166.225,8.382 165.783,8.825 165.499,9.382 165.401,10.001 165.499,10.619 165.783,11.176 166.225,11.619 166.783,11.903 167.401,12.001 168.019,11.903 168.577,11.619 169.019,11.176 169.303,10.619 169.401,10.001 169.303,9.382 169.019,8.825 168.577,8.382 168.019,8.097 167.401,8.001" style="fill:none;stroke-width:0.050000mm;stroke:black"/>
</svg>
