<?xml version="1.0"?>
<!-- Generated by SVGo -->
<svg width="334.802mm" height="125.252mm"
     viewBox="0.000 0.000 334.802 125.252"
     xmlns="http://www.w3.org/2000/svg" 
     xmlns:xlink="http://www.w3.org/1999/xlink">
<polygon points="324.802,5.001 325.194,5.016 325.584,5.062 325.969,5.139 326.347,5.245 326.715,5.381 327.071,5.545 327.414,5.737 327.740,5.955 328.049,6.198 328.337,6.465 328.604,6.753 328.847,7.062 329.065,7.388 329.257,7.731 329.421,8.087 329.557,8.455 329.663,8.833 329.740,9.218 329.786,9.608 329.801,10.001 329.802,115.251 329.786,115.644 329.740,116.034 329.663,116.419 329.557,116.797 329.421,117.165 329.257,117.521 329.065,117.864 328.847,118.190 328.604,118.499 328.337,118.787 328.049,119.054 327.740,119.297 327.414,119.515 327.071,119.707 326.715,119.871 326.347,120.007 325.969,120.113 325.584,120.190 325.194,120.236 324.802,120.252 10.001,120.251 9.608,120.236 9.218,120.190 8.833,120.113 8.455,120.007 8.087,119.871 7.731,119.707 7.388,119.515 7.062,119.297 6.753,119.054 6.465,118.787 6.198,118.499 5.955,118.190 5.737,117.864 5.545,117.521 5.381,117.165 5.245,116.797 5.139,116.419 5.062,116.034 5.016,115.644 5.000,115.251 5.001,10.001 5.016,9.608 5.062,9.218 5.139,8.833 5.245,8.455 5.381,8.087 5.545,7.731 5.737,7.388 5.955,7.062 6.198,6.753 6.465,6.465 6.753,6.198 7.062,5.955 7.388,5.737 7.731,5.545 8.087,5.381 8.455,5.245 8.833,5.139 9.218,5.062 9.608,5.016 10.001,5.000" style="fill:none;stroke-width:0.050000mm;stroke:black"/>
<polygon points="9.382,113.349 8.825,113.633 8.382,114.076 8.097,114.633 8.001,115.251 8.097,115.870 8.382,116.427 8.825,116.870 9.382,117.154 10.001,117.251 10.619,117.154 11.176,116.870 11.619,116.427 11.903,115.870 12.001,115.251 11.903,114.633 11.619,114.076 11.176,113.633 10.619,113.349 10.001,113.251" style="fill:none;stroke-width:0.050000mm;stroke:black"/>
<polygon points="166.783,113.349 166.225,113.633 165.783,114.076 165.499,114.633 165.401,115.251 165.499,115.870 165.783,116.427 166.225,116.870 166.783,117.154 167.401,117.251 168.019,117.154 168.577,116.870 169.019,116.427 169.303,115.870 169.401,115.251 169.303,114.633 169.019,114.076 168.577,113.633 168.019,113.349 167.401,113.251" style="fill:none;stroke-width:0.050000mm;stroke:black"/>
<polygon points="324.183,113.349 323.626,113.633 323.183,114.076 322.899,114.633 322.802,115.251 322.899,115.870 323.183,116.427 323.626,116.870 324.183,117.154 324.802,117.251 325.420,117.154 325.977,116.870 326.420,116.427 326.704,115.870 326.802,115.251 326.704,114.633 326.420,114.076 325.977,113.633 325.420,113.349 324.802,113.251" style="fill:none;stroke-width:0.050000mm;stroke:black"/>
<polygon points="138.969,93.726 138.969,98.426 99.344,98.426 99.344,95.196 97.619,95.196 97.619,94.275 94.319,94.275 94.319,95.196 92.594,95.196 92.594,98.426 91.769,98.426 91.769,101.226 92.594,101.226 92.594,107.495 94.319,107.495 94.319,108.476 97.619,108.476 97.619,107.495 99.344,107.495 99.344,103.025 138.969,103.025 138.969,107.726 152.969,107.726 152.969,103.025 192.594,103.025 192.594,107.495 194.319,107.495 194.319,108.476 197.619,108.476 197.619,107.495 199.344,107.495 199.344,101.226 200.169,101.226 200.169,98.426 199.344,98.426 199.344,95.196 197.619,95.196 197.619,94.275 194.319,94.275 194.319,95.196 192.594,95.196 192.594,98.426 152.969,98.426 152.969,93.726" style="fill:none;stroke-width:0.050000mm;stroke:black"/>
<polygon points="303.276,93.726 303.276,107.726 317.276,107.726 317.276,93.726" style="fill:none;stroke-width:0.050000mm;stroke:black"/>
<polygon points="284.226,93.726 284.226,107.726 298.226,107.726 298.226,93.726" style="fill:none;stroke-width:0.050000mm;stroke:black"/>
<polygon points="265.176,93.726 265.176,107.726 279.176,107.726 279.176,93.726" style="fill:none;stroke-width:0.050000mm;stroke:black"/>
<polygon points="246.126,93.726 246.126,107.726 260.126,107.726 260.126,93.726" style="fill:none;stroke-width:0.050000mm;stroke:black"/>
<polygon points="227.076,93.726 227.076,107.726 241.076,107.726 241.076,93.726" style="fill:none;stroke-width:0.050000mm;stroke:black"/>
<polygon points="208.026,93.726 208.026,107.726 222.026,107.726 222.026,93.726" style="fill:none;stroke-width:0.050000mm;stroke:black"/>
<polygon points="67.532,93.726 67.532,107.726 81.532,107.726 81.532,93.726" style="fill:none;stroke-width:0.050000mm;stroke:black"/>
<polygon points="43.719,93.726 43.719,107.726 57.719,107.726 57.719,93.726" style="fill:none;stroke-width:0.050000mm;stroke:black"/>
<polygon points="19.907,93.726 19.907,107.726 33.907,107.726 33.907,93.726" style="fill:none;stroke-width:0.050000mm;stroke:black"/>
<polygon points="29.432,74.676 29.432,79.376 27.907,79.376 27.907,76.146 26.182,76.146 26.182,75.226 22.882,75.226 22.882,76.146 21.157,76.146 21.157,79.376 20.332,79.376 20.332,82.176 21.157,82.176 21.157,88.446 22.882,88.446 22.882,89.426 26.182,89.426 26.182,88.446 27.907,88.446 27.907,83.976 29.432,83.976 29.432,88.676 43.432,88.676 43.432,83.976 44.957,83.976 44.957,88.446 46.682,88.446 46.682,89.426 49.982,89.426 49.982,88.446 51.707,88.446 51.707,82.176 52.532,82.176 52.532,79.376 51.707,79.376 51.707,76.146 49.982,76.146 49.982,75.226 46.682,75.226 46.682,76.146 44.957,76.146 44.957,79.376 43.432,79.376 43.432,74.676" style="fill:none;stroke-width:0.050000mm;stroke:black"/>
<polygon points="303.276,74.676 303.276,88.676 317.276,88.676 317.276,74.676" style="fill:none;stroke-width:0.050000mm;stroke:black"/>
<polygon points="284.226,74.676 284.226,88.676 298.226,88.676 298.226,74.676" style="fill:none;stroke-width:0.050000mm;stroke:black"/>
<polygon points="258.032,74.676 258.032,88.676 272.032,88.676 272.032,74.676" style="fill:none;stroke-width:0.050000mm;stroke:black"/>
<polygon points="231.838,74.676 231.838,88.676 245.838,88.676 245.838,74.676" style="fill:none;stroke-width:0.050000mm;stroke:black"/>
<polygon points="212.788,74.676 212.788,88.676 226.788,88.676 226.788,74.676" style="fill:none;stroke-width:0.050000mm;stroke:black"/>
<polygon points="193.738,74.676 193.738,88.676 207.738,88.676 207.738,74.676" style="fill:none;stroke-width:0.050000mm;stroke:black"/>
<polygon points="174.688,74.676 174.688,88.676 188.688,88.676 188.688,74.676" style="fill:none;stroke-width:0.050000mm;stroke:black"/>
<polygon points="155.638,74.676 155.638,88.676 169.638,88.676 169.638,74.676" style="fill:none;stroke-width:0.050000mm;stroke:black"/>
<polygon points="136.588,74.676 136.588,88.676 150.588,88.676 150.588,74.676" style="fill:none;stroke-width:0.050000mm;stroke:black"/>
<polygon points="117.538,74.676 117.538,88.676 131.538,88.676 131.538,74.676" style="fill:none;stroke-width:0.050000mm;stroke:black"/>
<polygon points="98.488,74.676 98.488,88.676 112.488,88.676 112.488,74.676" style="fill:none;stroke-width:0.050000mm;stroke:black"/>
<polygon points="79.438,74.676 79.438,88.676 93.438,88.676 93.438,74.676" style="fill:none;stroke-width:0.050000mm;stroke:black"/>
<polygon points="60.388,74.676 60.388,88.676 74.388,88.676 74.388,74.676" style="fill:none;stroke-width:0.050000mm;stroke:black"/>
<polygon points="272.319,55.626 272.319,60.326 270.794,60.326 270.794,57.096 269.069,57.096 269.069,56.176 265.769,56.176 265.769,57.096 264.044,57.096 264.044,60.326 263.219,60.326 263.219,63.126 264.044,63.126 264.044,69.396 265.769,69.396 265.769,70.376 269.069,70.376 269.069,69.396 270.794,69.396 270.794,64.926 272.319,64.926 272.319,69.626 286.319,69.626 286.319,64.926 287.844,64.926 287.844,69.396 289.569,69.396 289.569,70.376 292.869,70.376 292.869,69.396 294.594,69.396 294.594,63.126 295.419,63.126 295.419,60.326 294.594,60.326 294.594,57.096 292.869,57.096 292.869,56.176 289.569,56.176 289.569,57.096 287.844,57.096 287.844,60.326 286.319,60.326 286.319,55.626" style="fill:none;stroke-width:0.050000mm;stroke:black"/>
<polygon points="303.276,55.626 303.276,69.626 317.276,69.626 317.276,55.626" style="fill:none;stroke-width:0.050000mm;stroke:black"/>
<polygon points="241.363,55.626 241.363,69.626 255.363,69.626 255.363,55.626" style="fill:none;stroke-width:0.050000mm;stroke:black"/>
<polygon points="222.313,55.626 222.313,69.626 236.313,69.626 236.313,55.626" style="fill:none;stroke-width:0.050000mm;stroke:black"/>
<polygon points="203.263,55.626 203.263,69.626 217.263,69.626 217.263,55.626" style="fill:none;stroke-width:0.050000mm;stroke:black"/>
<polygon points="184.213,55.626 184.213,69.626 198.213,69.626 198.213,55.626" style="fill:none;stroke-width:0.050000mm;stroke:black"/>
<polygon points="165.163,55.626 165.163,69.626 179.163,69.626 179.163,55.626" style="fill:none;stroke-width:0.050000mm;stroke:black"/>
<polygon points="146.113,55.626 146.113,69.626 160.113,69.626 160.113,55.626" style="fill:none;stroke-width:0.050000mm;stroke:black"/>
<polygon points="127.063,55.626 127.063,69.626 141.063,69.626 141.063,55.626" style="fill:none;stroke-width:0.050000mm;stroke:black"/>
<polygon points="108.013,55.626 108.013,69.626 122.013,69.626 122.013,55.626" style="fill:none;stroke-width:0.050000mm;stroke:black"/>
<polygon points="88.963,55.626 88.963,69.626 102.963,69.626 102.963,55.626" style="fill:none;stroke-width:0.050000mm;stroke:black"/>
<polygon points="69.913,55.626 69.913,69.626 83.913,69.626 83.913,55.626" style="fill:none;stroke-width:0.050000mm;stroke:black"/>
<polygon points="50.863,55.626 50.863,69.626 64.862,69.626 64.862,55.626" style="fill:none;stroke-width:0.050000mm;stroke:black"/>
<polygon points="24.669,55.626 24.669,69.626 38.669,69.626 38.669,55.626" style="fill:none;stroke-width:0.050000mm;stroke:black"/>
<polygon points="303.276,36.576 303.276,50.576 317.276,50.576 317.276,36.576" style="fill:none;stroke-width:0.050000mm;stroke:black"/>
<polygon points="279.463,36.576 279.463,50.576 293.463,50.576 293.463,36.576" style="fill:none;stroke-width:0.050000mm;stroke:black"/>
<polygon points="255.651,36.576 255.651,50.576 269.651,50.576 269.651,36.576" style="fill:none;stroke-width:0.050000mm;stroke:black"/>
<polygon points="236.601,36.576 236.601,50.576 250.601,50.576 250.601,36.576" style="fill:none;stroke-width:0.050000mm;stroke:black"/>
<polygon points="217.551,36.576 217.551,50.576 231.551,50.576 231.551,36.576" style="fill:none;stroke-width:0.050000mm;stroke:black"/>
<polygon points="198.501,36.576 198.501,50.576 212.501,50.576 212.501,36.576" style="fill:none;stroke-width:0.050000mm;stroke:black"/>
<polygon points="179.451,36.576 179.451,50.576 193.451,50.576 193.451,36.576" style="fill:none;stroke-width:0.050000mm;stroke:black"/>
<polygon points="160.401,36.576 160.401,50.576 174.401,50.576 174.401,36.576" style="fill:none;stroke-width:0.050000mm;stroke:black"/>
<polygon points="141.351,36.576 141.351,50.576 155.351,50.576 155.351,36.576" style="fill:none;stroke-width:0.050000mm;stroke:black"/>
<polygon points="122.301,36.576 122.301,50.576 136.301,50.576 136.301,36.576" style="fill:none;stroke-width:0.050000mm;stroke:black"/>
<polygon points="103.251,36.576 103.251,50.576 117.251,50.576 117.251,36.576" style="fill:none;stroke-width:0.050000mm;stroke:black"/>
<polygon points="84.201,36.576 84.201,50.576 98.201,50.576 98.201,36.576" style="fill:none;stroke-width:0.050000mm;stroke:black"/>
<polygon points="65.151,36.576 65.151,50.576 79.151,50.576 79.151,36.576" style="fill:none;stroke-width:0.050000mm;stroke:black"/>
<polygon points="46.101,36.576 46.101,50.576 60.101,50.576 60.101,36.576" style="fill:none;stroke-width:0.050000mm;stroke:black"/>
<polygon points="22.288,36.576 22.288,50.576 36.288,50.576 36.288,36.576" style="fill:none;stroke-width:0.050000mm;stroke:black"/>
<polygon points="274.701,17.526 274.701,22.225 273.176,22.225 273.176,18.995 271.451,18.995 271.451,18.076 268.151,18.076 268.151,18.995 266.426,18.995 266.426,22.225 265.601,22.225 265.601,25.026 266.426,25.026 266.426,31.295 268.151,31.295 268.151,32.276 271.451,32.276 271.451,31.295 273.176,31.295 273.176,26.826 274.701,26.826 274.701,31.526 288.701,31.526 288.701,26.826 290.226,26.826 290.226,31.295 291.951,31.295 291.951,32.276 295.251,32.276 295.251,31.295 296.976,31.295 296.976,25.026 297.801,25.026 297.801,22.225 296.976,22.225 296.976,18.995 295.251,18.995 295.251,18.076 291.951,18.076 291.951,18.995 290.226,18.995 290.226,22.225 288.701,22.225 288.701,17.526" style="fill:none;stroke-width:0.050000mm;stroke:black"/>
<polygon points="303.276,17.526 303.276,31.526 317.276,31.526 317.276,17.526" style="fill:none;stroke-width:0.050000mm;stroke:black"/>
<polygon points="246.126,17.526 246.126,31.526 260.126,31.526 260.126,17.526" style="fill:none;stroke-width:0.050000mm;stroke:black"/>
<polygon points="227.076,17.526 227.076,31.526 241.076,31.526 241.076,17.526" style="fill:none;stroke-width:0.050000mm;stroke:black"/>
<polygon points="208.026,17.526 208.026,31.526 222.026,31.526 222.026,17.526" style="fill:none;stroke-width:0.050000mm;stroke:black"/>
<polygon points="188.976,17.526 188.976,31.526 202.976,31.526 202.976,17.526" style="fill:none;stroke-width:0.050000mm;stroke:black"/>
<polygon points="169.926,17.526 169.926,31.526 183.926,31.526 183.926,17.526" style="fill:none;stroke-width:0.050000mm;stroke:black"/>
<polygon points="150.876,17.526 150.876,31.526 164.876,31.526 164.876,17.526" style="fill:none;stroke-width:0.050000mm;stroke:black"/>
<polygon points="131.826,17.526 131.826,31.526 145.826,31.526 145.826,17.526" style="fill:none;stroke-width:0.050000mm;stroke:black"/>
<polygon points="112.775,17.526 112.775,31.526 126.775,31.526 126.775,17.526" style="fill:none;stroke-width:0.050000mm;stroke:black"/>
<polygon points="93.726,17.526 93.726,31.526 107.726,31.526 107.726,17.526" style="fill:none;stroke-width:0.050000mm;stroke:black"/>
<polygon points="74.676,17.526 74.676,31.526 88.676,31.526 88.676,17.526" style="fill:none;stroke-width:0.050000mm;stroke:black"/>
<polygon points="55.626,17.526 55.626,31.526 69.626,31.526 69.626,17.526" style="fill:none;stroke-width:0.050000mm;stroke:black"/>
<polygon points="36.576,17.526 36.576,31.526 50.576,31.526 50.576,17.526" style="fill:none;stroke-width:0.050000mm;stroke:black"/>
<polygon points="17.526,17.526 17.526,31.526 31.526,31.526 31.526,17.526" style="fill:none;stroke-width:0.050000mm;stroke:black"/>
<polygon points="9.382,8.097 8.825,8.382 8.382,8.825 8.097,9.382 8.001,10.001 8.097,10.619 8.382,11.176 8.825,11.619 9.382,11.903 10.001,12.001 10.619,11.903 11.176,11.619 11.619,11.176 11.903,10.619 12.001,10.001 11.903,9.382 11.619,8.825 11.176,8.382 10.619,8.097 10.001,8.001" style="fill:none;stroke-width:0.050000mm;stroke:black"/>
<polygon points="324.183,8.097 323.626,8.382 323.183,8.825 322.899,9.382 322.802,10.001 322.899,10.619 323.183,11.176 323.626,11.619 324.183,11.903 324.802,12.001 325.420,11.903 325.977,11.619 326.420,11.176 326.704,10.619 326.802,10.001 326.704,9.382 326.420,8.825 325.977,8.382 325.420,8.097 324.802,8.001" style="fill:none;stroke-width:0.050000mm;stroke:black"/>
<polygon points="166.783,8.097 166.225,8.382 165.783,8.825 165.499,9.382 165.401,10.001 165.499,10.619 165.783,11.176 166.225,11.619 166.783,11.903 167.401,12.001 168.019,11.903 168.577,11.619 169.019,11.176 169.303,10.619 169.401,10.001 169.303,9.382 169.019,8.825 168.577,8.382 168.019,8.097 167.401,8.001" style="fill:none;stroke-width:0.050000mm;stroke:black"/>
</svg>
