%TF.GenerationSoftware,KiCad,Pcbnew,(5.1.10)-1*%
%TF.CreationDate,2021-09-30T15:06:51-04:00*%
%TF.ProjectId,keyboard,6b657962-6f61-4726-942e-6b696361645f,rev?*%
%TF.SameCoordinates,Original*%
%TF.FileFunction,Paste,Bot*%
%TF.FilePolarity,Positive*%
%FSLAX46Y46*%
G04 Gerber Fmt 4.6, Leading zero omitted, Abs format (unit mm)*
G04 Created by KiCad (PCBNEW (5.1.10)-1) date 2021-09-30 15:06:51*
%MOMM*%
%LPD*%
G01*
G04 APERTURE LIST*
%ADD10C,0.100000*%
%ADD11R,1.200000X1.200000*%
%ADD12R,1.700000X1.000000*%
%ADD13R,1.500000X0.550000*%
%ADD14R,0.550000X1.500000*%
G04 APERTURE END LIST*
D10*
%TO.C,X1*%
G36*
X206290421Y-140762742D02*
G01*
X205441893Y-139914214D01*
X206431843Y-138924264D01*
X207280371Y-139772792D01*
X206290421Y-140762742D01*
G37*
G36*
X207846056Y-139207107D02*
G01*
X206997528Y-138358579D01*
X207987478Y-137368629D01*
X208836006Y-138217157D01*
X207846056Y-139207107D01*
G37*
G36*
X205159050Y-139631371D02*
G01*
X204310522Y-138782843D01*
X205300472Y-137792893D01*
X206149000Y-138641421D01*
X205159050Y-139631371D01*
G37*
G36*
X206714685Y-138075736D02*
G01*
X205866157Y-137227208D01*
X206856107Y-136237258D01*
X207704635Y-137085786D01*
X206714685Y-138075736D01*
G37*
%TD*%
D11*
%TO.C,D43*%
X179573405Y-132754717D03*
X176423405Y-132754717D03*
%TD*%
%TO.C,D42*%
X166898405Y-113704717D03*
X170048405Y-113704717D03*
%TD*%
%TO.C,D40*%
X184335905Y-75604717D03*
X181185905Y-75604717D03*
%TD*%
%TO.C,D37*%
X193860905Y-94654717D03*
X190710905Y-94654717D03*
%TD*%
%TO.C,D36*%
X200235905Y-75604717D03*
X203385905Y-75604717D03*
%TD*%
%TO.C,D35*%
X214523405Y-132754717D03*
X217673405Y-132754717D03*
%TD*%
%TO.C,D48*%
X157373405Y-132754717D03*
X160523405Y-132754717D03*
%TD*%
%TO.C,D34*%
X204998405Y-113704717D03*
X208148405Y-113704717D03*
%TD*%
%TO.C,D50*%
X143085905Y-75604717D03*
X146235905Y-75604717D03*
%TD*%
%TO.C,D49*%
X143085905Y-151804717D03*
X146235905Y-151804717D03*
%TD*%
%TO.C,D45*%
X165285905Y-75604717D03*
X162135905Y-75604717D03*
%TD*%
%TO.C,D47*%
X150998405Y-113704717D03*
X147848405Y-113704717D03*
%TD*%
%TO.C,D46*%
X152610905Y-94654717D03*
X155760905Y-94654717D03*
%TD*%
%TO.C,D44*%
X162135905Y-151804717D03*
X165285905Y-151804717D03*
%TD*%
%TO.C,D41*%
X174810905Y-94654717D03*
X171660905Y-94654717D03*
%TD*%
%TO.C,D39*%
X195473405Y-132754717D03*
X198623405Y-132754717D03*
%TD*%
%TO.C,D38*%
X185948405Y-113704717D03*
X189098405Y-113704717D03*
%TD*%
%TO.C,D33*%
X212910905Y-94654717D03*
X209760905Y-94654717D03*
%TD*%
%TO.C,D2*%
X351023405Y-94654717D03*
X347873405Y-94654717D03*
%TD*%
%TO.C,D1*%
X355785905Y-75604717D03*
X352635905Y-75604717D03*
%TD*%
%TO.C,D4*%
X343879655Y-132754717D03*
X340729655Y-132754717D03*
%TD*%
%TO.C,D5*%
X350254655Y-151804717D03*
X353404655Y-151804717D03*
%TD*%
%TO.C,D3*%
X345492155Y-113704717D03*
X348642155Y-113704717D03*
%TD*%
%TO.C,D23*%
X260535905Y-75604717D03*
X257385905Y-75604717D03*
%TD*%
%TO.C,D31*%
X231192155Y-151804717D03*
X234342155Y-151804717D03*
%TD*%
%TO.C,D30*%
X236723405Y-132754717D03*
X233573405Y-132754717D03*
%TD*%
%TO.C,D29*%
X227198405Y-113704717D03*
X224048405Y-113704717D03*
%TD*%
%TO.C,D28*%
X231960905Y-94654717D03*
X228810905Y-94654717D03*
%TD*%
%TO.C,D19*%
X279585905Y-75604717D03*
X276435905Y-75604717D03*
%TD*%
%TO.C,D27*%
X241485905Y-75604717D03*
X238335905Y-75604717D03*
%TD*%
%TO.C,D26*%
X252623405Y-132754717D03*
X255773405Y-132754717D03*
%TD*%
%TO.C,D24*%
X251010905Y-94654717D03*
X247860905Y-94654717D03*
%TD*%
%TO.C,D22*%
X271673405Y-132754717D03*
X274823405Y-132754717D03*
%TD*%
%TO.C,D16*%
X285960905Y-94654717D03*
X289110905Y-94654717D03*
%TD*%
%TO.C,D15*%
X295485905Y-75604717D03*
X298635905Y-75604717D03*
%TD*%
%TO.C,D18*%
X290723405Y-132754717D03*
X293873405Y-132754717D03*
%TD*%
%TO.C,D21*%
X262148405Y-113704717D03*
X265298405Y-113704717D03*
%TD*%
%TO.C,D20*%
X270060905Y-94654717D03*
X266910905Y-94654717D03*
%TD*%
%TO.C,D17*%
X284348405Y-113704717D03*
X281198405Y-113704717D03*
%TD*%
%TO.C,D32*%
X222435905Y-75604717D03*
X219285905Y-75604717D03*
%TD*%
%TO.C,D25*%
X243098405Y-113704717D03*
X246248405Y-113704717D03*
%TD*%
%TO.C,D55*%
X127185905Y-75604717D03*
X124035905Y-75604717D03*
%TD*%
%TO.C,D53*%
X138323405Y-132754717D03*
X141473405Y-132754717D03*
%TD*%
%TO.C,D63*%
X85935905Y-151804717D03*
X89085905Y-151804717D03*
%TD*%
%TO.C,D65*%
X66885905Y-94654717D03*
X70035905Y-94654717D03*
%TD*%
%TO.C,D68*%
X70035905Y-151804717D03*
X66885905Y-151804717D03*
%TD*%
%TO.C,D61*%
X100992155Y-113704717D03*
X97842155Y-113704717D03*
%TD*%
%TO.C,D62*%
X89085905Y-132754717D03*
X85935905Y-132754717D03*
%TD*%
%TO.C,D51*%
X136710905Y-94654717D03*
X133560905Y-94654717D03*
%TD*%
%TO.C,D56*%
X117660905Y-94654717D03*
X114510905Y-94654717D03*
%TD*%
%TO.C,D57*%
X112129655Y-132754717D03*
X115279655Y-132754717D03*
%TD*%
%TO.C,D60*%
X90698405Y-94654717D03*
X93848405Y-94654717D03*
%TD*%
%TO.C,D54*%
X124035905Y-151804717D03*
X127185905Y-151804717D03*
%TD*%
%TO.C,D59*%
X98610905Y-75604717D03*
X95460905Y-75604717D03*
%TD*%
%TO.C,D64*%
X70035905Y-75604717D03*
X66885905Y-75604717D03*
%TD*%
%TO.C,D67*%
X66885905Y-132754717D03*
X70035905Y-132754717D03*
%TD*%
%TO.C,D52*%
X128798405Y-113704717D03*
X131948405Y-113704717D03*
%TD*%
%TO.C,D66*%
X70035905Y-113704717D03*
X66885905Y-113704717D03*
%TD*%
%TO.C,D58*%
X108135905Y-151804717D03*
X104985905Y-151804717D03*
%TD*%
%TO.C,D10*%
X317685905Y-75604717D03*
X314535905Y-75604717D03*
%TD*%
%TO.C,D8*%
X319298405Y-113704717D03*
X322448405Y-113704717D03*
%TD*%
%TO.C,D6*%
X336735905Y-75604717D03*
X333585905Y-75604717D03*
%TD*%
%TO.C,D14*%
X305779655Y-151804717D03*
X302629655Y-151804717D03*
%TD*%
%TO.C,D13*%
X309773405Y-132754717D03*
X312923405Y-132754717D03*
%TD*%
%TO.C,D12*%
X303398405Y-113704717D03*
X300248405Y-113704717D03*
%TD*%
%TO.C,D7*%
X324060905Y-94654717D03*
X327210905Y-94654717D03*
%TD*%
%TO.C,D9*%
X326442155Y-151804717D03*
X329592155Y-151804717D03*
%TD*%
%TO.C,D11*%
X305010905Y-94654717D03*
X308160905Y-94654717D03*
%TD*%
D12*
%TO.C,SW1*%
X260573659Y-151323563D03*
X266873659Y-151323563D03*
X260573659Y-147523563D03*
X266873659Y-147523563D03*
%TD*%
D13*
%TO.C,U1*%
X200873555Y-153423489D03*
X200873555Y-152623489D03*
X200873555Y-151823489D03*
X200873555Y-151023489D03*
X200873555Y-150223489D03*
X200873555Y-149423489D03*
X200873555Y-148623489D03*
X200873555Y-147823489D03*
X200873555Y-147023489D03*
X200873555Y-146223489D03*
X200873555Y-145423489D03*
D14*
X202573555Y-143723489D03*
X203373555Y-143723489D03*
X204173555Y-143723489D03*
X204973555Y-143723489D03*
X205773555Y-143723489D03*
X206573555Y-143723489D03*
X207373555Y-143723489D03*
X208173555Y-143723489D03*
X208973555Y-143723489D03*
X209773555Y-143723489D03*
X210573555Y-143723489D03*
D13*
X212273555Y-145423489D03*
X212273555Y-146223489D03*
X212273555Y-147023489D03*
X212273555Y-147823489D03*
X212273555Y-148623489D03*
X212273555Y-149423489D03*
X212273555Y-150223489D03*
X212273555Y-151023489D03*
X212273555Y-151823489D03*
X212273555Y-152623489D03*
X212273555Y-153423489D03*
D14*
X210573555Y-155123489D03*
X209773555Y-155123489D03*
X208973555Y-155123489D03*
X208173555Y-155123489D03*
X207373555Y-155123489D03*
X206573555Y-155123489D03*
X205773555Y-155123489D03*
X204973555Y-155123489D03*
X204173555Y-155123489D03*
X203373555Y-155123489D03*
X202573555Y-155123489D03*
%TD*%
%TO.C,R1*%
G36*
G01*
X254648652Y-151023563D02*
X253748650Y-151023563D01*
G75*
G02*
X253498651Y-150773564I0J249999D01*
G01*
X253498651Y-150073562D01*
G75*
G02*
X253748650Y-149823563I249999J0D01*
G01*
X254648652Y-149823563D01*
G75*
G02*
X254898651Y-150073562I0J-249999D01*
G01*
X254898651Y-150773564D01*
G75*
G02*
X254648652Y-151023563I-249999J0D01*
G01*
G37*
G36*
G01*
X254648652Y-149023563D02*
X253748650Y-149023563D01*
G75*
G02*
X253498651Y-148773564I0J249999D01*
G01*
X253498651Y-148073562D01*
G75*
G02*
X253748650Y-147823563I249999J0D01*
G01*
X254648652Y-147823563D01*
G75*
G02*
X254898651Y-148073562I0J-249999D01*
G01*
X254898651Y-148773564D01*
G75*
G02*
X254648652Y-149023563I-249999J0D01*
G01*
G37*
%TD*%
%TO.C,R5*%
G36*
G01*
X263528346Y-143920434D02*
X263528346Y-143020432D01*
G75*
G02*
X263778345Y-142770433I249999J0D01*
G01*
X264478347Y-142770433D01*
G75*
G02*
X264728346Y-143020432I0J-249999D01*
G01*
X264728346Y-143920434D01*
G75*
G02*
X264478347Y-144170433I-249999J0D01*
G01*
X263778345Y-144170433D01*
G75*
G02*
X263528346Y-143920434I0J249999D01*
G01*
G37*
G36*
G01*
X261528346Y-143920434D02*
X261528346Y-143020432D01*
G75*
G02*
X261778345Y-142770433I249999J0D01*
G01*
X262478347Y-142770433D01*
G75*
G02*
X262728346Y-143020432I0J-249999D01*
G01*
X262728346Y-143920434D01*
G75*
G02*
X262478347Y-144170433I-249999J0D01*
G01*
X261778345Y-144170433D01*
G75*
G02*
X261528346Y-143920434I0J249999D01*
G01*
G37*
%TD*%
%TO.C,R2*%
G36*
G01*
X215648618Y-147823563D02*
X216548620Y-147823563D01*
G75*
G02*
X216798619Y-148073562I0J-249999D01*
G01*
X216798619Y-148773564D01*
G75*
G02*
X216548620Y-149023563I-249999J0D01*
G01*
X215648618Y-149023563D01*
G75*
G02*
X215398619Y-148773564I0J249999D01*
G01*
X215398619Y-148073562D01*
G75*
G02*
X215648618Y-147823563I249999J0D01*
G01*
G37*
G36*
G01*
X215648618Y-149823563D02*
X216548620Y-149823563D01*
G75*
G02*
X216798619Y-150073562I0J-249999D01*
G01*
X216798619Y-150773564D01*
G75*
G02*
X216548620Y-151023563I-249999J0D01*
G01*
X215648618Y-151023563D01*
G75*
G02*
X215398619Y-150773564I0J249999D01*
G01*
X215398619Y-150073562D01*
G75*
G02*
X215648618Y-149823563I249999J0D01*
G01*
G37*
%TD*%
%TO.C,R6*%
G36*
G01*
X268290850Y-143920434D02*
X268290850Y-143020432D01*
G75*
G02*
X268540849Y-142770433I249999J0D01*
G01*
X269240851Y-142770433D01*
G75*
G02*
X269490850Y-143020432I0J-249999D01*
G01*
X269490850Y-143920434D01*
G75*
G02*
X269240851Y-144170433I-249999J0D01*
G01*
X268540849Y-144170433D01*
G75*
G02*
X268290850Y-143920434I0J249999D01*
G01*
G37*
G36*
G01*
X266290850Y-143920434D02*
X266290850Y-143020432D01*
G75*
G02*
X266540849Y-142770433I249999J0D01*
G01*
X267240851Y-142770433D01*
G75*
G02*
X267490850Y-143020432I0J-249999D01*
G01*
X267490850Y-143920434D01*
G75*
G02*
X267240851Y-144170433I-249999J0D01*
G01*
X266540849Y-144170433D01*
G75*
G02*
X266290850Y-143920434I0J249999D01*
G01*
G37*
%TD*%
%TO.C,R4*%
G36*
G01*
X256765842Y-143920434D02*
X256765842Y-143020432D01*
G75*
G02*
X257015841Y-142770433I249999J0D01*
G01*
X257715843Y-142770433D01*
G75*
G02*
X257965842Y-143020432I0J-249999D01*
G01*
X257965842Y-143920434D01*
G75*
G02*
X257715843Y-144170433I-249999J0D01*
G01*
X257015841Y-144170433D01*
G75*
G02*
X256765842Y-143920434I0J249999D01*
G01*
G37*
G36*
G01*
X258765842Y-143920434D02*
X258765842Y-143020432D01*
G75*
G02*
X259015841Y-142770433I249999J0D01*
G01*
X259715843Y-142770433D01*
G75*
G02*
X259965842Y-143020432I0J-249999D01*
G01*
X259965842Y-143920434D01*
G75*
G02*
X259715843Y-144170433I-249999J0D01*
G01*
X259015841Y-144170433D01*
G75*
G02*
X258765842Y-143920434I0J249999D01*
G01*
G37*
%TD*%
%TO.C,R3*%
G36*
G01*
X254003338Y-143920434D02*
X254003338Y-143020432D01*
G75*
G02*
X254253337Y-142770433I249999J0D01*
G01*
X254953339Y-142770433D01*
G75*
G02*
X255203338Y-143020432I0J-249999D01*
G01*
X255203338Y-143920434D01*
G75*
G02*
X254953339Y-144170433I-249999J0D01*
G01*
X254253337Y-144170433D01*
G75*
G02*
X254003338Y-143920434I0J249999D01*
G01*
G37*
G36*
G01*
X252003338Y-143920434D02*
X252003338Y-143020432D01*
G75*
G02*
X252253337Y-142770433I249999J0D01*
G01*
X252953339Y-142770433D01*
G75*
G02*
X253203338Y-143020432I0J-249999D01*
G01*
X253203338Y-143920434D01*
G75*
G02*
X252953339Y-144170433I-249999J0D01*
G01*
X252253337Y-144170433D01*
G75*
G02*
X252003338Y-143920434I0J249999D01*
G01*
G37*
%TD*%
%TO.C,C4*%
G36*
G01*
X215623555Y-143035989D02*
X216573555Y-143035989D01*
G75*
G02*
X216823555Y-143285989I0J-250000D01*
G01*
X216823555Y-143960989D01*
G75*
G02*
X216573555Y-144210989I-250000J0D01*
G01*
X215623555Y-144210989D01*
G75*
G02*
X215373555Y-143960989I0J250000D01*
G01*
X215373555Y-143285989D01*
G75*
G02*
X215623555Y-143035989I250000J0D01*
G01*
G37*
G36*
G01*
X215623555Y-145110989D02*
X216573555Y-145110989D01*
G75*
G02*
X216823555Y-145360989I0J-250000D01*
G01*
X216823555Y-146035989D01*
G75*
G02*
X216573555Y-146285989I-250000J0D01*
G01*
X215623555Y-146285989D01*
G75*
G02*
X215373555Y-146035989I0J250000D01*
G01*
X215373555Y-145360989D01*
G75*
G02*
X215623555Y-145110989I250000J0D01*
G01*
G37*
%TD*%
%TO.C,C1*%
G36*
G01*
X200740794Y-138950000D02*
X201690794Y-138950000D01*
G75*
G02*
X201940794Y-139200000I0J-250000D01*
G01*
X201940794Y-139875000D01*
G75*
G02*
X201690794Y-140125000I-250000J0D01*
G01*
X200740794Y-140125000D01*
G75*
G02*
X200490794Y-139875000I0J250000D01*
G01*
X200490794Y-139200000D01*
G75*
G02*
X200740794Y-138950000I250000J0D01*
G01*
G37*
G36*
G01*
X200740794Y-136875000D02*
X201690794Y-136875000D01*
G75*
G02*
X201940794Y-137125000I0J-250000D01*
G01*
X201940794Y-137800000D01*
G75*
G02*
X201690794Y-138050000I-250000J0D01*
G01*
X200740794Y-138050000D01*
G75*
G02*
X200490794Y-137800000I0J250000D01*
G01*
X200490794Y-137125000D01*
G75*
G02*
X200740794Y-136875000I250000J0D01*
G01*
G37*
%TD*%
%TO.C,C5*%
G36*
G01*
X197523555Y-144210989D02*
X196573555Y-144210989D01*
G75*
G02*
X196323555Y-143960989I0J250000D01*
G01*
X196323555Y-143285989D01*
G75*
G02*
X196573555Y-143035989I250000J0D01*
G01*
X197523555Y-143035989D01*
G75*
G02*
X197773555Y-143285989I0J-250000D01*
G01*
X197773555Y-143960989D01*
G75*
G02*
X197523555Y-144210989I-250000J0D01*
G01*
G37*
G36*
G01*
X197523555Y-146285989D02*
X196573555Y-146285989D01*
G75*
G02*
X196323555Y-146035989I0J250000D01*
G01*
X196323555Y-145360989D01*
G75*
G02*
X196573555Y-145110989I250000J0D01*
G01*
X197523555Y-145110989D01*
G75*
G02*
X197773555Y-145360989I0J-250000D01*
G01*
X197773555Y-146035989D01*
G75*
G02*
X197523555Y-146285989I-250000J0D01*
G01*
G37*
%TD*%
%TO.C,C2*%
G36*
G01*
X211275000Y-136875000D02*
X212225000Y-136875000D01*
G75*
G02*
X212475000Y-137125000I0J-250000D01*
G01*
X212475000Y-137800000D01*
G75*
G02*
X212225000Y-138050000I-250000J0D01*
G01*
X211275000Y-138050000D01*
G75*
G02*
X211025000Y-137800000I0J250000D01*
G01*
X211025000Y-137125000D01*
G75*
G02*
X211275000Y-136875000I250000J0D01*
G01*
G37*
G36*
G01*
X211275000Y-138950000D02*
X212225000Y-138950000D01*
G75*
G02*
X212475000Y-139200000I0J-250000D01*
G01*
X212475000Y-139875000D01*
G75*
G02*
X212225000Y-140125000I-250000J0D01*
G01*
X211275000Y-140125000D01*
G75*
G02*
X211025000Y-139875000I0J250000D01*
G01*
X211025000Y-139200000D01*
G75*
G02*
X211275000Y-138950000I250000J0D01*
G01*
G37*
%TD*%
%TO.C,C3*%
G36*
G01*
X215623555Y-154635989D02*
X216573555Y-154635989D01*
G75*
G02*
X216823555Y-154885989I0J-250000D01*
G01*
X216823555Y-155560989D01*
G75*
G02*
X216573555Y-155810989I-250000J0D01*
G01*
X215623555Y-155810989D01*
G75*
G02*
X215373555Y-155560989I0J250000D01*
G01*
X215373555Y-154885989D01*
G75*
G02*
X215623555Y-154635989I250000J0D01*
G01*
G37*
G36*
G01*
X215623555Y-152560989D02*
X216573555Y-152560989D01*
G75*
G02*
X216823555Y-152810989I0J-250000D01*
G01*
X216823555Y-153485989D01*
G75*
G02*
X216573555Y-153735989I-250000J0D01*
G01*
X215623555Y-153735989D01*
G75*
G02*
X215373555Y-153485989I0J250000D01*
G01*
X215373555Y-152810989D01*
G75*
G02*
X215623555Y-152560989I250000J0D01*
G01*
G37*
%TD*%
%TO.C,C6*%
G36*
G01*
X197523603Y-140332929D02*
X196573603Y-140332929D01*
G75*
G02*
X196323603Y-140082929I0J250000D01*
G01*
X196323603Y-139407929D01*
G75*
G02*
X196573603Y-139157929I250000J0D01*
G01*
X197523603Y-139157929D01*
G75*
G02*
X197773603Y-139407929I0J-250000D01*
G01*
X197773603Y-140082929D01*
G75*
G02*
X197523603Y-140332929I-250000J0D01*
G01*
G37*
G36*
G01*
X197523603Y-138257929D02*
X196573603Y-138257929D01*
G75*
G02*
X196323603Y-138007929I0J250000D01*
G01*
X196323603Y-137332929D01*
G75*
G02*
X196573603Y-137082929I250000J0D01*
G01*
X197523603Y-137082929D01*
G75*
G02*
X197773603Y-137332929I0J-250000D01*
G01*
X197773603Y-138007929D01*
G75*
G02*
X197523603Y-138257929I-250000J0D01*
G01*
G37*
%TD*%
%TO.C,C8*%
G36*
G01*
X197523555Y-151048489D02*
X196573555Y-151048489D01*
G75*
G02*
X196323555Y-150798489I0J250000D01*
G01*
X196323555Y-150123489D01*
G75*
G02*
X196573555Y-149873489I250000J0D01*
G01*
X197523555Y-149873489D01*
G75*
G02*
X197773555Y-150123489I0J-250000D01*
G01*
X197773555Y-150798489D01*
G75*
G02*
X197523555Y-151048489I-250000J0D01*
G01*
G37*
G36*
G01*
X197523555Y-148973489D02*
X196573555Y-148973489D01*
G75*
G02*
X196323555Y-148723489I0J250000D01*
G01*
X196323555Y-148048489D01*
G75*
G02*
X196573555Y-147798489I250000J0D01*
G01*
X197523555Y-147798489D01*
G75*
G02*
X197773555Y-148048489I0J-250000D01*
G01*
X197773555Y-148723489D01*
G75*
G02*
X197523555Y-148973489I-250000J0D01*
G01*
G37*
%TD*%
%TO.C,C7*%
G36*
G01*
X197523555Y-153735989D02*
X196573555Y-153735989D01*
G75*
G02*
X196323555Y-153485989I0J250000D01*
G01*
X196323555Y-152810989D01*
G75*
G02*
X196573555Y-152560989I250000J0D01*
G01*
X197523555Y-152560989D01*
G75*
G02*
X197773555Y-152810989I0J-250000D01*
G01*
X197773555Y-153485989D01*
G75*
G02*
X197523555Y-153735989I-250000J0D01*
G01*
G37*
G36*
G01*
X197523555Y-155810989D02*
X196573555Y-155810989D01*
G75*
G02*
X196323555Y-155560989I0J250000D01*
G01*
X196323555Y-154885989D01*
G75*
G02*
X196573555Y-154635989I250000J0D01*
G01*
X197523555Y-154635989D01*
G75*
G02*
X197773555Y-154885989I0J-250000D01*
G01*
X197773555Y-155560989D01*
G75*
G02*
X197523555Y-155810989I-250000J0D01*
G01*
G37*
%TD*%
M02*
