M48
; DRILL file {KiCad (5.1.10)-1} date 09/30/21 15:07:06
; FORMAT={-:-/ absolute / inch / decimal}
; #@! TF.CreationDate,2021-09-30T15:07:06-04:00
; #@! TF.GenerationSoftware,Kicad,Pcbnew,(5.1.10)-1
; #@! TF.FileFunction,Plated,1,2,PTH
FMAT,2
INCH
T1C0.0157
T2C0.0236
T3C0.0276
T4C0.0591
%
G90
G05
T1
X6.5354Y-4.6555
X6.6831Y-3.878
X6.7421Y-5.3839
X7.0472Y-3.1299
X7.1522Y-5.8192
X7.1845Y-5.7967
X7.2146Y-5.7579
X7.2441Y-5.7283
X7.2736Y-5.8957
X7.3819Y-5.8858
X7.4213Y-5.5512
X7.4508Y-5.1772
X7.4508Y-5.5217
X7.471Y-5.591
X7.6181Y-6.063
X7.6575Y-6.0236
X7.6772Y-5.876
X7.687Y-6.063
X7.6969Y-5.6201
X7.8346Y-5.7283
X7.8346Y-5.7677
X7.8435Y-5.8071
X7.8445Y-5.6594
X7.9626Y-5.8228
X7.9921Y-5.8957
X8.0118Y-5.7283
X8.0315Y-6.0541
X8.1004Y-5.7677
X8.1496Y-5.8209
X8.1614Y-5.5906
X8.1791Y-5.187
X8.1988Y-5.8799
X8.2087Y-5.374
X8.2169Y-6.0417
X8.2185Y-5.9154
X8.2185Y-5.9547
X8.2186Y-6.0024
X8.2579Y-6.0433
X8.2677Y-5.876
X8.2869Y-5.9848
X8.2874Y-5.8366
X8.2874Y-5.9449
X8.3169Y-5.5709
X8.4154Y-6.1358
X8.4252Y-5.9311
X8.4449Y-5.7776
X8.4449Y-5.8169
X8.4449Y-5.8563
X8.5335Y-5.5315
X8.6024Y-5.6201
X8.6244Y-5.7087
X8.6586Y-5.7372
X8.8386Y-5.3642
X8.8386Y-5.4528
X8.8652Y-5.7776
X9.6063Y-5.2854
X10.3543Y-5.2953
X10.4331Y-5.9252
X10.4429Y-5.4698
X10.4528Y-5.7185
X10.4916Y-6.0723
X10.5807Y-5.3543
X10.5999Y-6.0723
X10.6191Y-6.0344
X10.6594Y-5.4698
X10.7185Y-5.3455
X11.0827Y-5.2864
X12.1063Y-5.315
X12.3031Y-6.0531
X12.3327Y-5.4698
X12.8839Y-4.5866
X13.0807Y-4.5866
X13.1102Y-3.8583
X13.2382Y-6.063
X13.248Y-3.8583
X13.435Y-3.0906
X13.5024Y-2.6914
X13.5128Y-2.5659
X13.563Y-2.5492
X13.5728Y-2.7648
X13.5728Y-2.8051
X13.622Y-2.9823
T3
X2.5418Y-2.9766
X2.5418Y-3.7266
X2.5418Y-4.4766
X2.5418Y-5.2266
X2.5418Y-5.9766
X2.8489Y-2.9766
X2.8489Y-3.7266
X2.8489Y-4.4766
X2.8489Y-5.2266
X2.8489Y-5.9766
X3.2918Y-5.2266
X3.2918Y-5.9766
X3.4793Y-3.7266
X3.5989Y-5.2266
X3.5989Y-5.9766
X3.6668Y-2.9766
X3.7605Y-4.4766
X3.7864Y-3.7266
X3.9739Y-2.9766
X4.0418Y-5.9766
X4.0676Y-4.4766
X4.323Y-5.2266
X4.3489Y-5.9766
X4.4168Y-3.7266
X4.6301Y-5.2266
X4.7239Y-3.7266
X4.7918Y-2.9766
X4.7918Y-5.9766
X4.9793Y-4.4766
X5.0989Y-2.9766
X5.0989Y-5.9766
X5.1668Y-3.7266
X5.2864Y-4.4766
X5.3543Y-5.2266
X5.4739Y-3.7266
X5.5418Y-2.9766
X5.5418Y-5.9766
X5.6614Y-5.2266
X5.7293Y-4.4766
X5.8489Y-2.9766
X5.8489Y-5.9766
X5.9168Y-3.7266
X6.0364Y-4.4766
X6.1043Y-5.2266
X6.2239Y-3.7266
X6.2918Y-2.9766
X6.2918Y-5.9766
X6.4114Y-5.2266
X6.4793Y-4.4766
X6.5989Y-2.9766
X6.5989Y-5.9766
X6.6668Y-3.7266
X6.7864Y-4.4766
X6.8543Y-5.2266
X6.9739Y-3.7266
X7.0418Y-2.9766
X7.1614Y-5.2266
X7.2293Y-4.4766
X7.3489Y-2.9766
X7.4168Y-3.7266
X7.5364Y-4.4766
X7.6043Y-5.2266
X7.7239Y-3.7266
X7.7918Y-2.9766
X7.9114Y-5.2266
X7.9793Y-4.4766
X8.0989Y-2.9766
X8.1668Y-3.7266
X8.2864Y-4.4766
X8.3543Y-5.2266
X8.4739Y-3.7266
X8.5418Y-2.9766
X8.6614Y-5.2266
X8.7293Y-4.4766
X8.8489Y-2.9766
X8.9168Y-3.7266
X9.0105Y-5.9766
X9.0364Y-4.4766
X9.1043Y-5.2266
X9.2239Y-3.7266
X9.2918Y-2.9766
X9.3176Y-5.9766
X9.4114Y-5.2266
X9.4793Y-4.4766
X9.5989Y-2.9766
X9.6668Y-3.7266
X9.7864Y-4.4766
X9.8543Y-5.2266
X9.9739Y-3.7266
X10.0418Y-2.9766
X10.1614Y-5.2266
X10.2293Y-4.4766
X10.3489Y-2.9766
X10.4168Y-3.7266
X10.5364Y-4.4766
X10.6043Y-5.2266
X10.7239Y-3.7266
X10.7918Y-2.9766
X10.9114Y-5.2266
X10.9793Y-4.4766
X11.0989Y-2.9766
X11.1668Y-3.7266
X11.2864Y-4.4766
X11.3543Y-5.2266
X11.4739Y-3.7266
X11.5418Y-2.9766
X11.6614Y-5.2266
X11.7293Y-4.4766
X11.823Y-5.9766
X11.8489Y-2.9766
X11.9168Y-3.7266
X12.0364Y-4.4766
X12.1043Y-5.2266
X12.1301Y-5.9766
X12.2239Y-3.7266
X12.2918Y-2.9766
X12.4114Y-5.2266
X12.4793Y-4.4766
X12.5989Y-2.9766
X12.6668Y-3.7266
X12.7605Y-5.9766
X12.7864Y-4.4766
X12.9739Y-3.7266
X13.0418Y-2.9766
X13.0676Y-5.9766
X13.323Y-5.2266
X13.3489Y-2.9766
X13.5105Y-4.4766
X13.6043Y-3.7266
X13.6301Y-5.2266
X13.698Y-5.9766
X13.7918Y-2.9766
X13.8176Y-4.4766
X13.9114Y-3.7266
X14.0051Y-5.9766
X14.0989Y-2.9766
T2
G00X13.4002Y-2.4314
M15
G01X13.4002Y-2.4078
M16
G05
G00X13.4002Y-2.6058
M15
G01X13.4002Y-2.5625
M16
G05
G00X13.7404Y-2.4314
M15
G01X13.7404Y-2.4078
M16
G05
G00X13.7404Y-2.6058
M15
G01X13.7404Y-2.5625
M16
G05
T4
G00X2.591Y-2.6131
M15
G01X2.5434Y-2.6878
M16
G05
G00X2.591Y-3.3631
M15
G01X2.5434Y-3.4378
M16
G05
G00X2.591Y-4.1131
M15
G01X2.5434Y-4.1878
M16
G05
G00X2.591Y-4.8631
M15
G01X2.5434Y-4.9378
M16
G05
G00X2.591Y-5.6131
M15
G01X2.5434Y-5.6878
M16
G05
G00X2.7953Y-2.5891
M15
G01X2.7937Y-2.6119
M16
G05
G00X2.7953Y-3.3391
M15
G01X2.7937Y-3.3619
M16
G05
G00X2.7953Y-4.0891
M15
G01X2.7937Y-4.1119
M16
G05
G00X2.7953Y-4.8391
M15
G01X2.7937Y-4.8619
M16
G05
G00X2.7953Y-5.5891
M15
G01X2.7937Y-5.6119
M16
G05
G00X3.341Y-4.8631
M15
G01X3.2934Y-4.9378
M16
G05
G00X3.341Y-5.6131
M15
G01X3.2934Y-5.6878
M16
G05
G00X3.5285Y-3.3631
M15
G01X3.4809Y-3.4378
M16
G05
G00X3.5453Y-4.8391
M15
G01X3.5437Y-4.8619
M16
G05
G00X3.5453Y-5.5891
M15
G01X3.5437Y-5.6119
M16
G05
G00X3.716Y-2.6131
M15
G01X3.6684Y-2.6878
M16
G05
G00X3.7328Y-3.3391
M15
G01X3.7312Y-3.3619
M16
G05
G00X3.8097Y-4.1131
M15
G01X3.7621Y-4.1878
M16
G05
G00X3.9203Y-2.5891
M15
G01X3.9187Y-2.6119
M16
G05
G00X4.0141Y-4.0891
M15
G01X4.0125Y-4.1119
M16
G05
G00X4.091Y-5.6131
M15
G01X4.0434Y-5.6878
M16
G05
G00X4.2953Y-5.5891
M15
G01X4.2937Y-5.6119
M16
G05
G00X4.3722Y-4.8631
M15
G01X4.3246Y-4.9378
M16
G05
G00X4.466Y-3.3631
M15
G01X4.4184Y-3.4378
M16
G05
G00X4.5766Y-4.8391
M15
G01X4.575Y-4.8619
M16
G05
G00X4.6703Y-3.3391
M15
G01X4.6687Y-3.3619
M16
G05
G00X4.841Y-2.6131
M15
G01X4.7934Y-2.6878
M16
G05
G00X4.8535Y-5.6131
M15
G01X4.8059Y-5.6878
M16
G05
G00X5.0285Y-4.1131
M15
G01X4.9809Y-4.1878
M16
G05
G00X5.0453Y-2.5891
M15
G01X5.0437Y-2.6119
M16
G05
G00X5.0578Y-5.5891
M15
G01X5.0562Y-5.6119
M16
G05
G00X5.216Y-3.3631
M15
G01X5.1684Y-3.4378
M16
G05
G00X5.2328Y-4.0891
M15
G01X5.2312Y-4.1119
M16
G05
G00X5.4035Y-4.8631
M15
G01X5.3559Y-4.9378
M16
G05
G00X5.4203Y-3.3391
M15
G01X5.4187Y-3.3619
M16
G05
G00X5.591Y-2.6131
M15
G01X5.5434Y-2.6878
M16
G05
G00X5.591Y-5.6131
M15
G01X5.5434Y-5.6878
M16
G05
G00X5.6078Y-4.8391
M15
G01X5.6062Y-4.8619
M16
G05
G00X5.7785Y-4.1131
M15
G01X5.7309Y-4.1878
M16
G05
G00X5.7953Y-2.5891
M15
G01X5.7937Y-2.6119
M16
G05
G00X5.7953Y-5.5891
M15
G01X5.7937Y-5.6119
M16
G05
G00X5.966Y-3.3631
M15
G01X5.9184Y-3.4378
M16
G05
G00X5.9828Y-4.0891
M15
G01X5.9812Y-4.1119
M16
G05
G00X6.1535Y-4.8631
M15
G01X6.1059Y-4.9378
M16
G05
G00X6.1703Y-3.3391
M15
G01X6.1687Y-3.3619
M16
G05
G00X6.341Y-2.6131
M15
G01X6.2934Y-2.6878
M16
G05
G00X6.341Y-5.6131
M15
G01X6.2934Y-5.6878
M16
G05
G00X6.3578Y-4.8391
M15
G01X6.3562Y-4.8619
M16
G05
G00X6.5285Y-4.1131
M15
G01X6.4809Y-4.1878
M16
G05
G00X6.5453Y-2.5891
M15
G01X6.5437Y-2.6119
M16
G05
G00X6.5453Y-5.5891
M15
G01X6.5437Y-5.6119
M16
G05
G00X6.716Y-3.3631
M15
G01X6.6684Y-3.4378
M16
G05
G00X6.7328Y-4.0891
M15
G01X6.7312Y-4.1119
M16
G05
G00X6.9035Y-4.8631
M15
G01X6.8559Y-4.9378
M16
G05
G00X6.9203Y-3.3391
M15
G01X6.9187Y-3.3619
M16
G05
G00X7.091Y-2.6131
M15
G01X7.0434Y-2.6878
M16
G05
G00X7.1078Y-4.8391
M15
G01X7.1062Y-4.8619
M16
G05
G00X7.2785Y-4.1131
M15
G01X7.2309Y-4.1878
M16
G05
G00X7.2953Y-2.5891
M15
G01X7.2937Y-2.6119
M16
G05
G00X7.466Y-3.3631
M15
G01X7.4184Y-3.4378
M16
G05
G00X7.4828Y-4.0891
M15
G01X7.4812Y-4.1119
M16
G05
G00X7.6535Y-4.8631
M15
G01X7.6059Y-4.9378
M16
G05
G00X7.6703Y-3.3391
M15
G01X7.6687Y-3.3619
M16
G05
G00X7.841Y-2.6131
M15
G01X7.7934Y-2.6878
M16
G05
G00X7.8578Y-4.8391
M15
G01X7.8562Y-4.8619
M16
G05
G00X8.0285Y-4.1131
M15
G01X7.9809Y-4.1878
M16
G05
G00X8.0453Y-2.5891
M15
G01X8.0437Y-2.6119
M16
G05
G00X8.216Y-3.3631
M15
G01X8.1684Y-3.4378
M16
G05
G00X8.2328Y-4.0891
M15
G01X8.2312Y-4.1119
M16
G05
G00X8.4035Y-4.8631
M15
G01X8.3559Y-4.9378
M16
G05
G00X8.4203Y-3.3391
M15
G01X8.4187Y-3.3619
M16
G05
G00X8.591Y-2.6131
M15
G01X8.5434Y-2.6878
M16
G05
G00X8.6078Y-4.8391
M15
G01X8.6062Y-4.8619
M16
G05
G00X8.7785Y-4.1131
M15
G01X8.7309Y-4.1878
M16
G05
G00X8.7953Y-2.5891
M15
G01X8.7937Y-2.6119
M16
G05
G00X8.966Y-3.3631
M15
G01X8.9184Y-3.4378
M16
G05
G00X8.9828Y-4.0891
M15
G01X8.9812Y-4.1119
M16
G05
G00X9.0597Y-5.6131
M15
G01X9.0121Y-5.6878
M16
G05
G00X9.1535Y-4.8631
M15
G01X9.1059Y-4.9378
M16
G05
G00X9.1703Y-3.3391
M15
G01X9.1687Y-3.3619
M16
G05
G00X9.2641Y-5.5891
M15
G01X9.2625Y-5.6119
M16
G05
G00X9.341Y-2.6131
M15
G01X9.2934Y-2.6878
M16
G05
G00X9.3578Y-4.8391
M15
G01X9.3562Y-4.8619
M16
G05
G00X9.5285Y-4.1131
M15
G01X9.4809Y-4.1878
M16
G05
G00X9.5453Y-2.5891
M15
G01X9.5437Y-2.6119
M16
G05
G00X9.716Y-3.3631
M15
G01X9.6684Y-3.4378
M16
G05
G00X9.7328Y-4.0891
M15
G01X9.7312Y-4.1119
M16
G05
G00X9.9035Y-4.8631
M15
G01X9.8559Y-4.9378
M16
G05
G00X9.9203Y-3.3391
M15
G01X9.9187Y-3.3619
M16
G05
G00X10.091Y-2.6131
M15
G01X10.0434Y-2.6878
M16
G05
G00X10.1078Y-4.8391
M15
G01X10.1062Y-4.8619
M16
G05
G00X10.2785Y-4.1131
M15
G01X10.2309Y-4.1878
M16
G05
G00X10.2953Y-2.5891
M15
G01X10.2937Y-2.6119
M16
G05
G00X10.466Y-3.3631
M15
G01X10.4184Y-3.4378
M16
G05
G00X10.4828Y-4.0891
M15
G01X10.4812Y-4.1119
M16
G05
G00X10.6535Y-4.8631
M15
G01X10.6059Y-4.9378
M16
G05
G00X10.6703Y-3.3391
M15
G01X10.6687Y-3.3619
M16
G05
G00X10.841Y-2.6131
M15
G01X10.7934Y-2.6878
M16
G05
G00X10.8578Y-4.8391
M15
G01X10.8562Y-4.8619
M16
G05
G00X11.0285Y-4.1131
M15
G01X10.9809Y-4.1878
M16
G05
G00X11.0453Y-2.5891
M15
G01X11.0437Y-2.6119
M16
G05
G00X11.216Y-3.3631
M15
G01X11.1684Y-3.4378
M16
G05
G00X11.2328Y-4.0891
M15
G01X11.2312Y-4.1119
M16
G05
G00X11.4035Y-4.8631
M15
G01X11.3559Y-4.9378
M16
G05
G00X11.4203Y-3.3391
M15
G01X11.4187Y-3.3619
M16
G05
G00X11.591Y-2.6131
M15
G01X11.5434Y-2.6878
M16
G05
G00X11.6078Y-4.8391
M15
G01X11.6062Y-4.8619
M16
G05
G00X11.7785Y-4.1131
M15
G01X11.7309Y-4.1878
M16
G05
G00X11.7953Y-2.5891
M15
G01X11.7937Y-2.6119
M16
G05
G00X11.8722Y-5.6131
M15
G01X11.8246Y-5.6878
M16
G05
G00X11.966Y-3.3631
M15
G01X11.9184Y-3.4378
M16
G05
G00X11.9828Y-4.0891
M15
G01X11.9812Y-4.1119
M16
G05
G00X12.0766Y-5.5891
M15
G01X12.075Y-5.6119
M16
G05
G00X12.1535Y-4.8631
M15
G01X12.1059Y-4.9378
M16
G05
G00X12.1703Y-3.3391
M15
G01X12.1687Y-3.3619
M16
G05
G00X12.341Y-2.6131
M15
G01X12.2934Y-2.6878
M16
G05
G00X12.3578Y-4.8391
M15
G01X12.3562Y-4.8619
M16
G05
G00X12.5285Y-4.1131
M15
G01X12.4809Y-4.1878
M16
G05
G00X12.5453Y-2.5891
M15
G01X12.5437Y-2.6119
M16
G05
G00X12.716Y-3.3631
M15
G01X12.6684Y-3.4378
M16
G05
G00X12.7328Y-4.0891
M15
G01X12.7312Y-4.1119
M16
G05
G00X12.8097Y-5.6131
M15
G01X12.7621Y-5.6878
M16
G05
G00X12.9203Y-3.3391
M15
G01X12.9187Y-3.3619
M16
G05
G00X13.0141Y-5.5891
M15
G01X13.0125Y-5.6119
M16
G05
G00X13.091Y-2.6131
M15
G01X13.0434Y-2.6878
M16
G05
G00X13.2953Y-2.5891
M15
G01X13.2937Y-2.6119
M16
G05
G00X13.3722Y-4.8631
M15
G01X13.3246Y-4.9378
M16
G05
G00X13.5597Y-4.1131
M15
G01X13.5121Y-4.1878
M16
G05
G00X13.5766Y-4.8391
M15
G01X13.575Y-4.8619
M16
G05
G00X13.6535Y-3.3631
M15
G01X13.6059Y-3.4378
M16
G05
G00X13.7472Y-5.6131
M15
G01X13.6996Y-5.6878
M16
G05
G00X13.7641Y-4.0891
M15
G01X13.7625Y-4.1119
M16
G05
G00X13.841Y-2.6131
M15
G01X13.7934Y-2.6878
M16
G05
G00X13.8578Y-3.3391
M15
G01X13.8562Y-3.3619
M16
G05
G00X13.9516Y-5.5891
M15
G01X13.95Y-5.6119
M16
G05
G00X14.0453Y-2.5891
M15
G01X14.0437Y-2.6119
M16
G05
T0
M30
