%TF.GenerationSoftware,KiCad,Pcbnew,(5.1.10)-1*%
%TF.CreationDate,2021-09-30T15:06:51-04:00*%
%TF.ProjectId,keyboard,6b657962-6f61-4726-942e-6b696361645f,rev?*%
%TF.SameCoordinates,Original*%
%TF.FileFunction,Legend,Top*%
%TF.FilePolarity,Positive*%
%FSLAX46Y46*%
G04 Gerber Fmt 4.6, Leading zero omitted, Abs format (unit mm)*
G04 Created by KiCad (PCBNEW (5.1.10)-1) date 2021-09-30 15:06:51*
%MOMM*%
%LPD*%
G01*
G04 APERTURE LIST*
%ADD10C,0.381000*%
%ADD11C,0.120000*%
%ADD12C,0.150000*%
G04 APERTURE END LIST*
D10*
%TO.C,K6*%
X328810905Y-64492217D02*
X330588905Y-64492217D01*
X339732905Y-64492217D02*
X341510905Y-64492217D01*
X341510905Y-64492217D02*
X341510905Y-66270217D01*
X341510905Y-75414217D02*
X341510905Y-77192217D01*
X341510905Y-77192217D02*
X339732905Y-77192217D01*
X330588905Y-77192217D02*
X328810905Y-77192217D01*
X328810905Y-77192217D02*
X328810905Y-75414217D01*
X328810905Y-66270217D02*
X328810905Y-64492217D01*
D11*
%TO.C,J1*%
X349386227Y-60507865D02*
X349386227Y-58607865D01*
X349386227Y-64407865D02*
X349386227Y-62407865D01*
X339986227Y-60507865D02*
X339986227Y-58607865D01*
X339986227Y-64407865D02*
X339986227Y-62407865D01*
X349386227Y-58607865D02*
X339986227Y-58607865D01*
D10*
%TO.C,K1*%
X347860905Y-66270217D02*
X347860905Y-64492217D01*
X347860905Y-77192217D02*
X347860905Y-75414217D01*
X349638905Y-77192217D02*
X347860905Y-77192217D01*
X360560905Y-77192217D02*
X358782905Y-77192217D01*
X360560905Y-75414217D02*
X360560905Y-77192217D01*
X360560905Y-64492217D02*
X360560905Y-66270217D01*
X358782905Y-64492217D02*
X360560905Y-64492217D01*
X347860905Y-64492217D02*
X349638905Y-64492217D01*
%TO.C,K2*%
X343098405Y-85320217D02*
X343098405Y-83542217D01*
X343098405Y-96242217D02*
X343098405Y-94464217D01*
X344876405Y-96242217D02*
X343098405Y-96242217D01*
X355798405Y-96242217D02*
X354020405Y-96242217D01*
X355798405Y-94464217D02*
X355798405Y-96242217D01*
X355798405Y-83542217D02*
X355798405Y-85320217D01*
X354020405Y-83542217D02*
X355798405Y-83542217D01*
X343098405Y-83542217D02*
X344876405Y-83542217D01*
%TO.C,K3*%
X340717155Y-102592217D02*
X342495155Y-102592217D01*
X351639155Y-102592217D02*
X353417155Y-102592217D01*
X353417155Y-102592217D02*
X353417155Y-104370217D01*
X353417155Y-113514217D02*
X353417155Y-115292217D01*
X353417155Y-115292217D02*
X351639155Y-115292217D01*
X342495155Y-115292217D02*
X340717155Y-115292217D01*
X340717155Y-115292217D02*
X340717155Y-113514217D01*
X340717155Y-104370217D02*
X340717155Y-102592217D01*
%TO.C,K4*%
X335954655Y-121642217D02*
X337732655Y-121642217D01*
X346876655Y-121642217D02*
X348654655Y-121642217D01*
X348654655Y-121642217D02*
X348654655Y-123420217D01*
X348654655Y-132564217D02*
X348654655Y-134342217D01*
X348654655Y-134342217D02*
X346876655Y-134342217D01*
X337732655Y-134342217D02*
X335954655Y-134342217D01*
X335954655Y-134342217D02*
X335954655Y-132564217D01*
X335954655Y-123420217D02*
X335954655Y-121642217D01*
%TO.C,K5*%
X345479655Y-142470217D02*
X345479655Y-140692217D01*
X345479655Y-153392217D02*
X345479655Y-151614217D01*
X347257655Y-153392217D02*
X345479655Y-153392217D01*
X358179655Y-153392217D02*
X356401655Y-153392217D01*
X358179655Y-151614217D02*
X358179655Y-153392217D01*
X358179655Y-140692217D02*
X358179655Y-142470217D01*
X356401655Y-140692217D02*
X358179655Y-140692217D01*
X345479655Y-140692217D02*
X347257655Y-140692217D01*
%TO.C,K7*%
X319285905Y-85320217D02*
X319285905Y-83542217D01*
X319285905Y-96242217D02*
X319285905Y-94464217D01*
X321063905Y-96242217D02*
X319285905Y-96242217D01*
X331985905Y-96242217D02*
X330207905Y-96242217D01*
X331985905Y-94464217D02*
X331985905Y-96242217D01*
X331985905Y-83542217D02*
X331985905Y-85320217D01*
X330207905Y-83542217D02*
X331985905Y-83542217D01*
X319285905Y-83542217D02*
X321063905Y-83542217D01*
%TO.C,K8*%
X314523405Y-102592217D02*
X316301405Y-102592217D01*
X325445405Y-102592217D02*
X327223405Y-102592217D01*
X327223405Y-102592217D02*
X327223405Y-104370217D01*
X327223405Y-113514217D02*
X327223405Y-115292217D01*
X327223405Y-115292217D02*
X325445405Y-115292217D01*
X316301405Y-115292217D02*
X314523405Y-115292217D01*
X314523405Y-115292217D02*
X314523405Y-113514217D01*
X314523405Y-104370217D02*
X314523405Y-102592217D01*
%TO.C,K9*%
X321667155Y-142470217D02*
X321667155Y-140692217D01*
X321667155Y-153392217D02*
X321667155Y-151614217D01*
X323445155Y-153392217D02*
X321667155Y-153392217D01*
X334367155Y-153392217D02*
X332589155Y-153392217D01*
X334367155Y-151614217D02*
X334367155Y-153392217D01*
X334367155Y-140692217D02*
X334367155Y-142470217D01*
X332589155Y-140692217D02*
X334367155Y-140692217D01*
X321667155Y-140692217D02*
X323445155Y-140692217D01*
%TO.C,K10*%
X309760905Y-66270217D02*
X309760905Y-64492217D01*
X309760905Y-77192217D02*
X309760905Y-75414217D01*
X311538905Y-77192217D02*
X309760905Y-77192217D01*
X322460905Y-77192217D02*
X320682905Y-77192217D01*
X322460905Y-75414217D02*
X322460905Y-77192217D01*
X322460905Y-64492217D02*
X322460905Y-66270217D01*
X320682905Y-64492217D02*
X322460905Y-64492217D01*
X309760905Y-64492217D02*
X311538905Y-64492217D01*
%TO.C,K11*%
X300235905Y-83542217D02*
X302013905Y-83542217D01*
X311157905Y-83542217D02*
X312935905Y-83542217D01*
X312935905Y-83542217D02*
X312935905Y-85320217D01*
X312935905Y-94464217D02*
X312935905Y-96242217D01*
X312935905Y-96242217D02*
X311157905Y-96242217D01*
X302013905Y-96242217D02*
X300235905Y-96242217D01*
X300235905Y-96242217D02*
X300235905Y-94464217D01*
X300235905Y-85320217D02*
X300235905Y-83542217D01*
%TO.C,K12*%
X295473405Y-104370217D02*
X295473405Y-102592217D01*
X295473405Y-115292217D02*
X295473405Y-113514217D01*
X297251405Y-115292217D02*
X295473405Y-115292217D01*
X308173405Y-115292217D02*
X306395405Y-115292217D01*
X308173405Y-113514217D02*
X308173405Y-115292217D01*
X308173405Y-102592217D02*
X308173405Y-104370217D01*
X306395405Y-102592217D02*
X308173405Y-102592217D01*
X295473405Y-102592217D02*
X297251405Y-102592217D01*
%TO.C,K13*%
X304998405Y-121642217D02*
X306776405Y-121642217D01*
X315920405Y-121642217D02*
X317698405Y-121642217D01*
X317698405Y-121642217D02*
X317698405Y-123420217D01*
X317698405Y-132564217D02*
X317698405Y-134342217D01*
X317698405Y-134342217D02*
X315920405Y-134342217D01*
X306776405Y-134342217D02*
X304998405Y-134342217D01*
X304998405Y-134342217D02*
X304998405Y-132564217D01*
X304998405Y-123420217D02*
X304998405Y-121642217D01*
%TO.C,K14*%
X297854655Y-140692217D02*
X299632655Y-140692217D01*
X308776655Y-140692217D02*
X310554655Y-140692217D01*
X310554655Y-140692217D02*
X310554655Y-142470217D01*
X310554655Y-151614217D02*
X310554655Y-153392217D01*
X310554655Y-153392217D02*
X308776655Y-153392217D01*
X299632655Y-153392217D02*
X297854655Y-153392217D01*
X297854655Y-153392217D02*
X297854655Y-151614217D01*
X297854655Y-142470217D02*
X297854655Y-140692217D01*
%TO.C,K15*%
X290710905Y-64492217D02*
X292488905Y-64492217D01*
X301632905Y-64492217D02*
X303410905Y-64492217D01*
X303410905Y-64492217D02*
X303410905Y-66270217D01*
X303410905Y-75414217D02*
X303410905Y-77192217D01*
X303410905Y-77192217D02*
X301632905Y-77192217D01*
X292488905Y-77192217D02*
X290710905Y-77192217D01*
X290710905Y-77192217D02*
X290710905Y-75414217D01*
X290710905Y-66270217D02*
X290710905Y-64492217D01*
%TO.C,K16*%
X281185905Y-83542217D02*
X282963905Y-83542217D01*
X292107905Y-83542217D02*
X293885905Y-83542217D01*
X293885905Y-83542217D02*
X293885905Y-85320217D01*
X293885905Y-94464217D02*
X293885905Y-96242217D01*
X293885905Y-96242217D02*
X292107905Y-96242217D01*
X282963905Y-96242217D02*
X281185905Y-96242217D01*
X281185905Y-96242217D02*
X281185905Y-94464217D01*
X281185905Y-85320217D02*
X281185905Y-83542217D01*
%TO.C,K17*%
X276423405Y-104370217D02*
X276423405Y-102592217D01*
X276423405Y-115292217D02*
X276423405Y-113514217D01*
X278201405Y-115292217D02*
X276423405Y-115292217D01*
X289123405Y-115292217D02*
X287345405Y-115292217D01*
X289123405Y-113514217D02*
X289123405Y-115292217D01*
X289123405Y-102592217D02*
X289123405Y-104370217D01*
X287345405Y-102592217D02*
X289123405Y-102592217D01*
X276423405Y-102592217D02*
X278201405Y-102592217D01*
%TO.C,K18*%
X285948405Y-121642217D02*
X287726405Y-121642217D01*
X296870405Y-121642217D02*
X298648405Y-121642217D01*
X298648405Y-121642217D02*
X298648405Y-123420217D01*
X298648405Y-132564217D02*
X298648405Y-134342217D01*
X298648405Y-134342217D02*
X296870405Y-134342217D01*
X287726405Y-134342217D02*
X285948405Y-134342217D01*
X285948405Y-134342217D02*
X285948405Y-132564217D01*
X285948405Y-123420217D02*
X285948405Y-121642217D01*
%TO.C,K19*%
X271660905Y-66270217D02*
X271660905Y-64492217D01*
X271660905Y-77192217D02*
X271660905Y-75414217D01*
X273438905Y-77192217D02*
X271660905Y-77192217D01*
X284360905Y-77192217D02*
X282582905Y-77192217D01*
X284360905Y-75414217D02*
X284360905Y-77192217D01*
X284360905Y-64492217D02*
X284360905Y-66270217D01*
X282582905Y-64492217D02*
X284360905Y-64492217D01*
X271660905Y-64492217D02*
X273438905Y-64492217D01*
%TO.C,K20*%
X262135905Y-83542217D02*
X263913905Y-83542217D01*
X273057905Y-83542217D02*
X274835905Y-83542217D01*
X274835905Y-83542217D02*
X274835905Y-85320217D01*
X274835905Y-94464217D02*
X274835905Y-96242217D01*
X274835905Y-96242217D02*
X273057905Y-96242217D01*
X263913905Y-96242217D02*
X262135905Y-96242217D01*
X262135905Y-96242217D02*
X262135905Y-94464217D01*
X262135905Y-85320217D02*
X262135905Y-83542217D01*
%TO.C,K21*%
X257373405Y-104370217D02*
X257373405Y-102592217D01*
X257373405Y-115292217D02*
X257373405Y-113514217D01*
X259151405Y-115292217D02*
X257373405Y-115292217D01*
X270073405Y-115292217D02*
X268295405Y-115292217D01*
X270073405Y-113514217D02*
X270073405Y-115292217D01*
X270073405Y-102592217D02*
X270073405Y-104370217D01*
X268295405Y-102592217D02*
X270073405Y-102592217D01*
X257373405Y-102592217D02*
X259151405Y-102592217D01*
%TO.C,K22*%
X266898405Y-121642217D02*
X268676405Y-121642217D01*
X277820405Y-121642217D02*
X279598405Y-121642217D01*
X279598405Y-121642217D02*
X279598405Y-123420217D01*
X279598405Y-132564217D02*
X279598405Y-134342217D01*
X279598405Y-134342217D02*
X277820405Y-134342217D01*
X268676405Y-134342217D02*
X266898405Y-134342217D01*
X266898405Y-134342217D02*
X266898405Y-132564217D01*
X266898405Y-123420217D02*
X266898405Y-121642217D01*
%TO.C,K23*%
X252610905Y-66270217D02*
X252610905Y-64492217D01*
X252610905Y-77192217D02*
X252610905Y-75414217D01*
X254388905Y-77192217D02*
X252610905Y-77192217D01*
X265310905Y-77192217D02*
X263532905Y-77192217D01*
X265310905Y-75414217D02*
X265310905Y-77192217D01*
X265310905Y-64492217D02*
X265310905Y-66270217D01*
X263532905Y-64492217D02*
X265310905Y-64492217D01*
X252610905Y-64492217D02*
X254388905Y-64492217D01*
%TO.C,K24*%
X243085905Y-85320217D02*
X243085905Y-83542217D01*
X243085905Y-96242217D02*
X243085905Y-94464217D01*
X244863905Y-96242217D02*
X243085905Y-96242217D01*
X255785905Y-96242217D02*
X254007905Y-96242217D01*
X255785905Y-94464217D02*
X255785905Y-96242217D01*
X255785905Y-83542217D02*
X255785905Y-85320217D01*
X254007905Y-83542217D02*
X255785905Y-83542217D01*
X243085905Y-83542217D02*
X244863905Y-83542217D01*
%TO.C,K25*%
X238323405Y-102592217D02*
X240101405Y-102592217D01*
X249245405Y-102592217D02*
X251023405Y-102592217D01*
X251023405Y-102592217D02*
X251023405Y-104370217D01*
X251023405Y-113514217D02*
X251023405Y-115292217D01*
X251023405Y-115292217D02*
X249245405Y-115292217D01*
X240101405Y-115292217D02*
X238323405Y-115292217D01*
X238323405Y-115292217D02*
X238323405Y-113514217D01*
X238323405Y-104370217D02*
X238323405Y-102592217D01*
%TO.C,K26*%
X247848405Y-123420217D02*
X247848405Y-121642217D01*
X247848405Y-134342217D02*
X247848405Y-132564217D01*
X249626405Y-134342217D02*
X247848405Y-134342217D01*
X260548405Y-134342217D02*
X258770405Y-134342217D01*
X260548405Y-132564217D02*
X260548405Y-134342217D01*
X260548405Y-121642217D02*
X260548405Y-123420217D01*
X258770405Y-121642217D02*
X260548405Y-121642217D01*
X247848405Y-121642217D02*
X249626405Y-121642217D01*
%TO.C,K27*%
X233560905Y-64492217D02*
X235338905Y-64492217D01*
X244482905Y-64492217D02*
X246260905Y-64492217D01*
X246260905Y-64492217D02*
X246260905Y-66270217D01*
X246260905Y-75414217D02*
X246260905Y-77192217D01*
X246260905Y-77192217D02*
X244482905Y-77192217D01*
X235338905Y-77192217D02*
X233560905Y-77192217D01*
X233560905Y-77192217D02*
X233560905Y-75414217D01*
X233560905Y-66270217D02*
X233560905Y-64492217D01*
%TO.C,K28*%
X224035905Y-85320217D02*
X224035905Y-83542217D01*
X224035905Y-96242217D02*
X224035905Y-94464217D01*
X225813905Y-96242217D02*
X224035905Y-96242217D01*
X236735905Y-96242217D02*
X234957905Y-96242217D01*
X236735905Y-94464217D02*
X236735905Y-96242217D01*
X236735905Y-83542217D02*
X236735905Y-85320217D01*
X234957905Y-83542217D02*
X236735905Y-83542217D01*
X224035905Y-83542217D02*
X225813905Y-83542217D01*
%TO.C,K29*%
X219273405Y-102592217D02*
X221051405Y-102592217D01*
X230195405Y-102592217D02*
X231973405Y-102592217D01*
X231973405Y-102592217D02*
X231973405Y-104370217D01*
X231973405Y-113514217D02*
X231973405Y-115292217D01*
X231973405Y-115292217D02*
X230195405Y-115292217D01*
X221051405Y-115292217D02*
X219273405Y-115292217D01*
X219273405Y-115292217D02*
X219273405Y-113514217D01*
X219273405Y-104370217D02*
X219273405Y-102592217D01*
%TO.C,K30*%
X228798405Y-121642217D02*
X230576405Y-121642217D01*
X239720405Y-121642217D02*
X241498405Y-121642217D01*
X241498405Y-121642217D02*
X241498405Y-123420217D01*
X241498405Y-132564217D02*
X241498405Y-134342217D01*
X241498405Y-134342217D02*
X239720405Y-134342217D01*
X230576405Y-134342217D02*
X228798405Y-134342217D01*
X228798405Y-134342217D02*
X228798405Y-132564217D01*
X228798405Y-123420217D02*
X228798405Y-121642217D01*
%TO.C,K31*%
X226417155Y-142470217D02*
X226417155Y-140692217D01*
X226417155Y-153392217D02*
X226417155Y-151614217D01*
X228195155Y-153392217D02*
X226417155Y-153392217D01*
X239117155Y-153392217D02*
X237339155Y-153392217D01*
X239117155Y-151614217D02*
X239117155Y-153392217D01*
X239117155Y-140692217D02*
X239117155Y-142470217D01*
X237339155Y-140692217D02*
X239117155Y-140692217D01*
X226417155Y-140692217D02*
X228195155Y-140692217D01*
%TO.C,K32*%
X214510905Y-66270217D02*
X214510905Y-64492217D01*
X214510905Y-77192217D02*
X214510905Y-75414217D01*
X216288905Y-77192217D02*
X214510905Y-77192217D01*
X227210905Y-77192217D02*
X225432905Y-77192217D01*
X227210905Y-75414217D02*
X227210905Y-77192217D01*
X227210905Y-64492217D02*
X227210905Y-66270217D01*
X225432905Y-64492217D02*
X227210905Y-64492217D01*
X214510905Y-64492217D02*
X216288905Y-64492217D01*
%TO.C,K33*%
X204985905Y-83542217D02*
X206763905Y-83542217D01*
X215907905Y-83542217D02*
X217685905Y-83542217D01*
X217685905Y-83542217D02*
X217685905Y-85320217D01*
X217685905Y-94464217D02*
X217685905Y-96242217D01*
X217685905Y-96242217D02*
X215907905Y-96242217D01*
X206763905Y-96242217D02*
X204985905Y-96242217D01*
X204985905Y-96242217D02*
X204985905Y-94464217D01*
X204985905Y-85320217D02*
X204985905Y-83542217D01*
%TO.C,K34*%
X200223405Y-104370217D02*
X200223405Y-102592217D01*
X200223405Y-115292217D02*
X200223405Y-113514217D01*
X202001405Y-115292217D02*
X200223405Y-115292217D01*
X212923405Y-115292217D02*
X211145405Y-115292217D01*
X212923405Y-113514217D02*
X212923405Y-115292217D01*
X212923405Y-102592217D02*
X212923405Y-104370217D01*
X211145405Y-102592217D02*
X212923405Y-102592217D01*
X200223405Y-102592217D02*
X202001405Y-102592217D01*
%TO.C,K35*%
X209748405Y-121642217D02*
X211526405Y-121642217D01*
X220670405Y-121642217D02*
X222448405Y-121642217D01*
X222448405Y-121642217D02*
X222448405Y-123420217D01*
X222448405Y-132564217D02*
X222448405Y-134342217D01*
X222448405Y-134342217D02*
X220670405Y-134342217D01*
X211526405Y-134342217D02*
X209748405Y-134342217D01*
X209748405Y-134342217D02*
X209748405Y-132564217D01*
X209748405Y-123420217D02*
X209748405Y-121642217D01*
%TO.C,K36*%
X195460905Y-66270217D02*
X195460905Y-64492217D01*
X195460905Y-77192217D02*
X195460905Y-75414217D01*
X197238905Y-77192217D02*
X195460905Y-77192217D01*
X208160905Y-77192217D02*
X206382905Y-77192217D01*
X208160905Y-75414217D02*
X208160905Y-77192217D01*
X208160905Y-64492217D02*
X208160905Y-66270217D01*
X206382905Y-64492217D02*
X208160905Y-64492217D01*
X195460905Y-64492217D02*
X197238905Y-64492217D01*
%TO.C,K37*%
X185935905Y-83542217D02*
X187713905Y-83542217D01*
X196857905Y-83542217D02*
X198635905Y-83542217D01*
X198635905Y-83542217D02*
X198635905Y-85320217D01*
X198635905Y-94464217D02*
X198635905Y-96242217D01*
X198635905Y-96242217D02*
X196857905Y-96242217D01*
X187713905Y-96242217D02*
X185935905Y-96242217D01*
X185935905Y-96242217D02*
X185935905Y-94464217D01*
X185935905Y-85320217D02*
X185935905Y-83542217D01*
%TO.C,K38*%
X181173405Y-104370217D02*
X181173405Y-102592217D01*
X181173405Y-115292217D02*
X181173405Y-113514217D01*
X182951405Y-115292217D02*
X181173405Y-115292217D01*
X193873405Y-115292217D02*
X192095405Y-115292217D01*
X193873405Y-113514217D02*
X193873405Y-115292217D01*
X193873405Y-102592217D02*
X193873405Y-104370217D01*
X192095405Y-102592217D02*
X193873405Y-102592217D01*
X181173405Y-102592217D02*
X182951405Y-102592217D01*
%TO.C,K39*%
X190698405Y-121642217D02*
X192476405Y-121642217D01*
X201620405Y-121642217D02*
X203398405Y-121642217D01*
X203398405Y-121642217D02*
X203398405Y-123420217D01*
X203398405Y-132564217D02*
X203398405Y-134342217D01*
X203398405Y-134342217D02*
X201620405Y-134342217D01*
X192476405Y-134342217D02*
X190698405Y-134342217D01*
X190698405Y-134342217D02*
X190698405Y-132564217D01*
X190698405Y-123420217D02*
X190698405Y-121642217D01*
%TO.C,K40*%
X176410905Y-66270217D02*
X176410905Y-64492217D01*
X176410905Y-77192217D02*
X176410905Y-75414217D01*
X178188905Y-77192217D02*
X176410905Y-77192217D01*
X189110905Y-77192217D02*
X187332905Y-77192217D01*
X189110905Y-75414217D02*
X189110905Y-77192217D01*
X189110905Y-64492217D02*
X189110905Y-66270217D01*
X187332905Y-64492217D02*
X189110905Y-64492217D01*
X176410905Y-64492217D02*
X178188905Y-64492217D01*
%TO.C,K41*%
X166885905Y-85320217D02*
X166885905Y-83542217D01*
X166885905Y-96242217D02*
X166885905Y-94464217D01*
X168663905Y-96242217D02*
X166885905Y-96242217D01*
X179585905Y-96242217D02*
X177807905Y-96242217D01*
X179585905Y-94464217D02*
X179585905Y-96242217D01*
X179585905Y-83542217D02*
X179585905Y-85320217D01*
X177807905Y-83542217D02*
X179585905Y-83542217D01*
X166885905Y-83542217D02*
X168663905Y-83542217D01*
%TO.C,K42*%
X162123405Y-102592217D02*
X163901405Y-102592217D01*
X173045405Y-102592217D02*
X174823405Y-102592217D01*
X174823405Y-102592217D02*
X174823405Y-104370217D01*
X174823405Y-113514217D02*
X174823405Y-115292217D01*
X174823405Y-115292217D02*
X173045405Y-115292217D01*
X163901405Y-115292217D02*
X162123405Y-115292217D01*
X162123405Y-115292217D02*
X162123405Y-113514217D01*
X162123405Y-104370217D02*
X162123405Y-102592217D01*
%TO.C,K43*%
X171648405Y-121642217D02*
X173426405Y-121642217D01*
X182570405Y-121642217D02*
X184348405Y-121642217D01*
X184348405Y-121642217D02*
X184348405Y-123420217D01*
X184348405Y-132564217D02*
X184348405Y-134342217D01*
X184348405Y-134342217D02*
X182570405Y-134342217D01*
X173426405Y-134342217D02*
X171648405Y-134342217D01*
X171648405Y-134342217D02*
X171648405Y-132564217D01*
X171648405Y-123420217D02*
X171648405Y-121642217D01*
%TO.C,K44*%
X157360905Y-142470217D02*
X157360905Y-140692217D01*
X157360905Y-153392217D02*
X157360905Y-151614217D01*
X159138905Y-153392217D02*
X157360905Y-153392217D01*
X170060905Y-153392217D02*
X168282905Y-153392217D01*
X170060905Y-151614217D02*
X170060905Y-153392217D01*
X170060905Y-140692217D02*
X170060905Y-142470217D01*
X168282905Y-140692217D02*
X170060905Y-140692217D01*
X157360905Y-140692217D02*
X159138905Y-140692217D01*
%TO.C,K45*%
X157360905Y-64492217D02*
X159138905Y-64492217D01*
X168282905Y-64492217D02*
X170060905Y-64492217D01*
X170060905Y-64492217D02*
X170060905Y-66270217D01*
X170060905Y-75414217D02*
X170060905Y-77192217D01*
X170060905Y-77192217D02*
X168282905Y-77192217D01*
X159138905Y-77192217D02*
X157360905Y-77192217D01*
X157360905Y-77192217D02*
X157360905Y-75414217D01*
X157360905Y-66270217D02*
X157360905Y-64492217D01*
%TO.C,K46*%
X147835905Y-83542217D02*
X149613905Y-83542217D01*
X158757905Y-83542217D02*
X160535905Y-83542217D01*
X160535905Y-83542217D02*
X160535905Y-85320217D01*
X160535905Y-94464217D02*
X160535905Y-96242217D01*
X160535905Y-96242217D02*
X158757905Y-96242217D01*
X149613905Y-96242217D02*
X147835905Y-96242217D01*
X147835905Y-96242217D02*
X147835905Y-94464217D01*
X147835905Y-85320217D02*
X147835905Y-83542217D01*
%TO.C,K47*%
X143073405Y-104370217D02*
X143073405Y-102592217D01*
X143073405Y-115292217D02*
X143073405Y-113514217D01*
X144851405Y-115292217D02*
X143073405Y-115292217D01*
X155773405Y-115292217D02*
X153995405Y-115292217D01*
X155773405Y-113514217D02*
X155773405Y-115292217D01*
X155773405Y-102592217D02*
X155773405Y-104370217D01*
X153995405Y-102592217D02*
X155773405Y-102592217D01*
X143073405Y-102592217D02*
X144851405Y-102592217D01*
%TO.C,K48*%
X152598405Y-121642217D02*
X154376405Y-121642217D01*
X163520405Y-121642217D02*
X165298405Y-121642217D01*
X165298405Y-121642217D02*
X165298405Y-123420217D01*
X165298405Y-132564217D02*
X165298405Y-134342217D01*
X165298405Y-134342217D02*
X163520405Y-134342217D01*
X154376405Y-134342217D02*
X152598405Y-134342217D01*
X152598405Y-134342217D02*
X152598405Y-132564217D01*
X152598405Y-123420217D02*
X152598405Y-121642217D01*
%TO.C,K49*%
X138310905Y-140692217D02*
X140088905Y-140692217D01*
X149232905Y-140692217D02*
X151010905Y-140692217D01*
X151010905Y-140692217D02*
X151010905Y-142470217D01*
X151010905Y-151614217D02*
X151010905Y-153392217D01*
X151010905Y-153392217D02*
X149232905Y-153392217D01*
X140088905Y-153392217D02*
X138310905Y-153392217D01*
X138310905Y-153392217D02*
X138310905Y-151614217D01*
X138310905Y-142470217D02*
X138310905Y-140692217D01*
%TO.C,K50*%
X138310905Y-66270217D02*
X138310905Y-64492217D01*
X138310905Y-77192217D02*
X138310905Y-75414217D01*
X140088905Y-77192217D02*
X138310905Y-77192217D01*
X151010905Y-77192217D02*
X149232905Y-77192217D01*
X151010905Y-75414217D02*
X151010905Y-77192217D01*
X151010905Y-64492217D02*
X151010905Y-66270217D01*
X149232905Y-64492217D02*
X151010905Y-64492217D01*
X138310905Y-64492217D02*
X140088905Y-64492217D01*
%TO.C,K51*%
X128785905Y-85320217D02*
X128785905Y-83542217D01*
X128785905Y-96242217D02*
X128785905Y-94464217D01*
X130563905Y-96242217D02*
X128785905Y-96242217D01*
X141485905Y-96242217D02*
X139707905Y-96242217D01*
X141485905Y-94464217D02*
X141485905Y-96242217D01*
X141485905Y-83542217D02*
X141485905Y-85320217D01*
X139707905Y-83542217D02*
X141485905Y-83542217D01*
X128785905Y-83542217D02*
X130563905Y-83542217D01*
%TO.C,K52*%
X124023405Y-104370217D02*
X124023405Y-102592217D01*
X124023405Y-115292217D02*
X124023405Y-113514217D01*
X125801405Y-115292217D02*
X124023405Y-115292217D01*
X136723405Y-115292217D02*
X134945405Y-115292217D01*
X136723405Y-113514217D02*
X136723405Y-115292217D01*
X136723405Y-102592217D02*
X136723405Y-104370217D01*
X134945405Y-102592217D02*
X136723405Y-102592217D01*
X124023405Y-102592217D02*
X125801405Y-102592217D01*
%TO.C,K53*%
X133548405Y-121642217D02*
X135326405Y-121642217D01*
X144470405Y-121642217D02*
X146248405Y-121642217D01*
X146248405Y-121642217D02*
X146248405Y-123420217D01*
X146248405Y-132564217D02*
X146248405Y-134342217D01*
X146248405Y-134342217D02*
X144470405Y-134342217D01*
X135326405Y-134342217D02*
X133548405Y-134342217D01*
X133548405Y-134342217D02*
X133548405Y-132564217D01*
X133548405Y-123420217D02*
X133548405Y-121642217D01*
%TO.C,K54*%
X119578405Y-142470217D02*
X119578405Y-140692217D01*
X119578405Y-153392217D02*
X119578405Y-151614217D01*
X121356405Y-153392217D02*
X119578405Y-153392217D01*
X132278405Y-153392217D02*
X130500405Y-153392217D01*
X132278405Y-151614217D02*
X132278405Y-153392217D01*
X132278405Y-140692217D02*
X132278405Y-142470217D01*
X130500405Y-140692217D02*
X132278405Y-140692217D01*
X119578405Y-140692217D02*
X121356405Y-140692217D01*
%TO.C,K55*%
X119260905Y-66270217D02*
X119260905Y-64492217D01*
X119260905Y-77192217D02*
X119260905Y-75414217D01*
X121038905Y-77192217D02*
X119260905Y-77192217D01*
X131960905Y-77192217D02*
X130182905Y-77192217D01*
X131960905Y-75414217D02*
X131960905Y-77192217D01*
X131960905Y-64492217D02*
X131960905Y-66270217D01*
X130182905Y-64492217D02*
X131960905Y-64492217D01*
X119260905Y-64492217D02*
X121038905Y-64492217D01*
%TO.C,K56*%
X109735905Y-85320217D02*
X109735905Y-83542217D01*
X109735905Y-96242217D02*
X109735905Y-94464217D01*
X111513905Y-96242217D02*
X109735905Y-96242217D01*
X122435905Y-96242217D02*
X120657905Y-96242217D01*
X122435905Y-94464217D02*
X122435905Y-96242217D01*
X122435905Y-83542217D02*
X122435905Y-85320217D01*
X120657905Y-83542217D02*
X122435905Y-83542217D01*
X109735905Y-83542217D02*
X111513905Y-83542217D01*
%TO.C,K57*%
X107354655Y-123420217D02*
X107354655Y-121642217D01*
X107354655Y-134342217D02*
X107354655Y-132564217D01*
X109132655Y-134342217D02*
X107354655Y-134342217D01*
X120054655Y-134342217D02*
X118276655Y-134342217D01*
X120054655Y-132564217D02*
X120054655Y-134342217D01*
X120054655Y-121642217D02*
X120054655Y-123420217D01*
X118276655Y-121642217D02*
X120054655Y-121642217D01*
X107354655Y-121642217D02*
X109132655Y-121642217D01*
%TO.C,K58*%
X100210905Y-140692217D02*
X101988905Y-140692217D01*
X111132905Y-140692217D02*
X112910905Y-140692217D01*
X112910905Y-140692217D02*
X112910905Y-142470217D01*
X112910905Y-151614217D02*
X112910905Y-153392217D01*
X112910905Y-153392217D02*
X111132905Y-153392217D01*
X101988905Y-153392217D02*
X100210905Y-153392217D01*
X100210905Y-153392217D02*
X100210905Y-151614217D01*
X100210905Y-142470217D02*
X100210905Y-140692217D01*
%TO.C,K59*%
X90685905Y-66270217D02*
X90685905Y-64492217D01*
X90685905Y-77192217D02*
X90685905Y-75414217D01*
X92463905Y-77192217D02*
X90685905Y-77192217D01*
X103385905Y-77192217D02*
X101607905Y-77192217D01*
X103385905Y-75414217D02*
X103385905Y-77192217D01*
X103385905Y-64492217D02*
X103385905Y-66270217D01*
X101607905Y-64492217D02*
X103385905Y-64492217D01*
X90685905Y-64492217D02*
X92463905Y-64492217D01*
%TO.C,K60*%
X85923405Y-83542217D02*
X87701405Y-83542217D01*
X96845405Y-83542217D02*
X98623405Y-83542217D01*
X98623405Y-83542217D02*
X98623405Y-85320217D01*
X98623405Y-94464217D02*
X98623405Y-96242217D01*
X98623405Y-96242217D02*
X96845405Y-96242217D01*
X87701405Y-96242217D02*
X85923405Y-96242217D01*
X85923405Y-96242217D02*
X85923405Y-94464217D01*
X85923405Y-85320217D02*
X85923405Y-83542217D01*
%TO.C,K61*%
X93067155Y-104370217D02*
X93067155Y-102592217D01*
X93067155Y-115292217D02*
X93067155Y-113514217D01*
X94845155Y-115292217D02*
X93067155Y-115292217D01*
X105767155Y-115292217D02*
X103989155Y-115292217D01*
X105767155Y-113514217D02*
X105767155Y-115292217D01*
X105767155Y-102592217D02*
X105767155Y-104370217D01*
X103989155Y-102592217D02*
X105767155Y-102592217D01*
X93067155Y-102592217D02*
X94845155Y-102592217D01*
%TO.C,K62*%
X81160905Y-121642217D02*
X82938905Y-121642217D01*
X92082905Y-121642217D02*
X93860905Y-121642217D01*
X93860905Y-121642217D02*
X93860905Y-123420217D01*
X93860905Y-132564217D02*
X93860905Y-134342217D01*
X93860905Y-134342217D02*
X92082905Y-134342217D01*
X82938905Y-134342217D02*
X81160905Y-134342217D01*
X81160905Y-134342217D02*
X81160905Y-132564217D01*
X81160905Y-123420217D02*
X81160905Y-121642217D01*
%TO.C,K63*%
X81160905Y-142470217D02*
X81160905Y-140692217D01*
X81160905Y-153392217D02*
X81160905Y-151614217D01*
X82938905Y-153392217D02*
X81160905Y-153392217D01*
X93860905Y-153392217D02*
X92082905Y-153392217D01*
X93860905Y-151614217D02*
X93860905Y-153392217D01*
X93860905Y-140692217D02*
X93860905Y-142470217D01*
X92082905Y-140692217D02*
X93860905Y-140692217D01*
X81160905Y-140692217D02*
X82938905Y-140692217D01*
%TO.C,K64*%
X62110905Y-66270217D02*
X62110905Y-64492217D01*
X62110905Y-77192217D02*
X62110905Y-75414217D01*
X63888905Y-77192217D02*
X62110905Y-77192217D01*
X74810905Y-77192217D02*
X73032905Y-77192217D01*
X74810905Y-75414217D02*
X74810905Y-77192217D01*
X74810905Y-64492217D02*
X74810905Y-66270217D01*
X73032905Y-64492217D02*
X74810905Y-64492217D01*
X62110905Y-64492217D02*
X63888905Y-64492217D01*
%TO.C,K65*%
X62110905Y-85320217D02*
X62110905Y-83542217D01*
X62110905Y-96242217D02*
X62110905Y-94464217D01*
X63888905Y-96242217D02*
X62110905Y-96242217D01*
X74810905Y-96242217D02*
X73032905Y-96242217D01*
X74810905Y-94464217D02*
X74810905Y-96242217D01*
X74810905Y-83542217D02*
X74810905Y-85320217D01*
X73032905Y-83542217D02*
X74810905Y-83542217D01*
X62110905Y-83542217D02*
X63888905Y-83542217D01*
%TO.C,K66*%
X62110905Y-104370217D02*
X62110905Y-102592217D01*
X62110905Y-115292217D02*
X62110905Y-113514217D01*
X63888905Y-115292217D02*
X62110905Y-115292217D01*
X74810905Y-115292217D02*
X73032905Y-115292217D01*
X74810905Y-113514217D02*
X74810905Y-115292217D01*
X74810905Y-102592217D02*
X74810905Y-104370217D01*
X73032905Y-102592217D02*
X74810905Y-102592217D01*
X62110905Y-102592217D02*
X63888905Y-102592217D01*
%TO.C,K67*%
X62110905Y-121642217D02*
X63888905Y-121642217D01*
X73032905Y-121642217D02*
X74810905Y-121642217D01*
X74810905Y-121642217D02*
X74810905Y-123420217D01*
X74810905Y-132564217D02*
X74810905Y-134342217D01*
X74810905Y-134342217D02*
X73032905Y-134342217D01*
X63888905Y-134342217D02*
X62110905Y-134342217D01*
X62110905Y-134342217D02*
X62110905Y-132564217D01*
X62110905Y-123420217D02*
X62110905Y-121642217D01*
%TO.C,K68*%
X62110905Y-140692217D02*
X63888905Y-140692217D01*
X73032905Y-140692217D02*
X74810905Y-140692217D01*
X74810905Y-140692217D02*
X74810905Y-142470217D01*
X74810905Y-151614217D02*
X74810905Y-153392217D01*
X74810905Y-153392217D02*
X73032905Y-153392217D01*
X63888905Y-153392217D02*
X62110905Y-153392217D01*
X62110905Y-153392217D02*
X62110905Y-151614217D01*
X62110905Y-142470217D02*
X62110905Y-140692217D01*
%TO.C,J1*%
D12*
X344352893Y-67605245D02*
X344352893Y-68319531D01*
X344305274Y-68462388D01*
X344210036Y-68557626D01*
X344067179Y-68605245D01*
X343971941Y-68605245D01*
X345352893Y-68605245D02*
X344781465Y-68605245D01*
X345067179Y-68605245D02*
X345067179Y-67605245D01*
X344971941Y-67748103D01*
X344876703Y-67843341D01*
X344781465Y-67890960D01*
%TD*%
M02*
