%TF.GenerationSoftware,KiCad,Pcbnew,(5.1.10)-1*%
%TF.CreationDate,2021-09-30T15:06:51-04:00*%
%TF.ProjectId,keyboard,6b657962-6f61-4726-942e-6b696361645f,rev?*%
%TF.SameCoordinates,Original*%
%TF.FileFunction,Legend,Bot*%
%TF.FilePolarity,Positive*%
%FSLAX46Y46*%
G04 Gerber Fmt 4.6, Leading zero omitted, Abs format (unit mm)*
G04 Created by KiCad (PCBNEW (5.1.10)-1) date 2021-09-30 15:06:51*
%MOMM*%
%LPD*%
G01*
G04 APERTURE LIST*
%ADD10C,0.200000*%
%ADD11C,0.120000*%
%ADD12C,0.150000*%
%ADD13C,0.098505*%
G04 APERTURE END LIST*
D10*
%TO.C,D43*%
X180798405Y-131554717D02*
X174998405Y-131554717D01*
X180798405Y-133954717D02*
X180798405Y-131554717D01*
X174998405Y-133954717D02*
X180798405Y-133954717D01*
X175073405Y-133954717D02*
X175073405Y-131554717D01*
X175198405Y-133954717D02*
X175198405Y-131554717D01*
X174973405Y-131554717D02*
X174973405Y-133954717D01*
X175373405Y-133954717D02*
X175373405Y-131554717D01*
X175548405Y-133954717D02*
X175548405Y-131554717D01*
X175723405Y-133954717D02*
X175723405Y-131554717D01*
%TO.C,D42*%
X166198405Y-114904717D02*
X166198405Y-112504717D01*
X166023405Y-114904717D02*
X166023405Y-112504717D01*
X165848405Y-114904717D02*
X165848405Y-112504717D01*
X165448405Y-112504717D02*
X165448405Y-114904717D01*
X165673405Y-114904717D02*
X165673405Y-112504717D01*
X165548405Y-114904717D02*
X165548405Y-112504717D01*
X165473405Y-114904717D02*
X171273405Y-114904717D01*
X171273405Y-114904717D02*
X171273405Y-112504717D01*
X171273405Y-112504717D02*
X165473405Y-112504717D01*
%TO.C,D40*%
X185560905Y-74404717D02*
X179760905Y-74404717D01*
X185560905Y-76804717D02*
X185560905Y-74404717D01*
X179760905Y-76804717D02*
X185560905Y-76804717D01*
X179835905Y-76804717D02*
X179835905Y-74404717D01*
X179960905Y-76804717D02*
X179960905Y-74404717D01*
X179735905Y-74404717D02*
X179735905Y-76804717D01*
X180135905Y-76804717D02*
X180135905Y-74404717D01*
X180310905Y-76804717D02*
X180310905Y-74404717D01*
X180485905Y-76804717D02*
X180485905Y-74404717D01*
%TO.C,D37*%
X195085905Y-93454717D02*
X189285905Y-93454717D01*
X195085905Y-95854717D02*
X195085905Y-93454717D01*
X189285905Y-95854717D02*
X195085905Y-95854717D01*
X189360905Y-95854717D02*
X189360905Y-93454717D01*
X189485905Y-95854717D02*
X189485905Y-93454717D01*
X189260905Y-93454717D02*
X189260905Y-95854717D01*
X189660905Y-95854717D02*
X189660905Y-93454717D01*
X189835905Y-95854717D02*
X189835905Y-93454717D01*
X190010905Y-95854717D02*
X190010905Y-93454717D01*
%TO.C,D36*%
X199535905Y-76804717D02*
X199535905Y-74404717D01*
X199360905Y-76804717D02*
X199360905Y-74404717D01*
X199185905Y-76804717D02*
X199185905Y-74404717D01*
X198785905Y-74404717D02*
X198785905Y-76804717D01*
X199010905Y-76804717D02*
X199010905Y-74404717D01*
X198885905Y-76804717D02*
X198885905Y-74404717D01*
X198810905Y-76804717D02*
X204610905Y-76804717D01*
X204610905Y-76804717D02*
X204610905Y-74404717D01*
X204610905Y-74404717D02*
X198810905Y-74404717D01*
%TO.C,D35*%
X213823405Y-133954717D02*
X213823405Y-131554717D01*
X213648405Y-133954717D02*
X213648405Y-131554717D01*
X213473405Y-133954717D02*
X213473405Y-131554717D01*
X213073405Y-131554717D02*
X213073405Y-133954717D01*
X213298405Y-133954717D02*
X213298405Y-131554717D01*
X213173405Y-133954717D02*
X213173405Y-131554717D01*
X213098405Y-133954717D02*
X218898405Y-133954717D01*
X218898405Y-133954717D02*
X218898405Y-131554717D01*
X218898405Y-131554717D02*
X213098405Y-131554717D01*
%TO.C,D48*%
X156673405Y-133954717D02*
X156673405Y-131554717D01*
X156498405Y-133954717D02*
X156498405Y-131554717D01*
X156323405Y-133954717D02*
X156323405Y-131554717D01*
X155923405Y-131554717D02*
X155923405Y-133954717D01*
X156148405Y-133954717D02*
X156148405Y-131554717D01*
X156023405Y-133954717D02*
X156023405Y-131554717D01*
X155948405Y-133954717D02*
X161748405Y-133954717D01*
X161748405Y-133954717D02*
X161748405Y-131554717D01*
X161748405Y-131554717D02*
X155948405Y-131554717D01*
%TO.C,D34*%
X204298405Y-114904717D02*
X204298405Y-112504717D01*
X204123405Y-114904717D02*
X204123405Y-112504717D01*
X203948405Y-114904717D02*
X203948405Y-112504717D01*
X203548405Y-112504717D02*
X203548405Y-114904717D01*
X203773405Y-114904717D02*
X203773405Y-112504717D01*
X203648405Y-114904717D02*
X203648405Y-112504717D01*
X203573405Y-114904717D02*
X209373405Y-114904717D01*
X209373405Y-114904717D02*
X209373405Y-112504717D01*
X209373405Y-112504717D02*
X203573405Y-112504717D01*
%TO.C,D50*%
X142385905Y-76804717D02*
X142385905Y-74404717D01*
X142210905Y-76804717D02*
X142210905Y-74404717D01*
X142035905Y-76804717D02*
X142035905Y-74404717D01*
X141635905Y-74404717D02*
X141635905Y-76804717D01*
X141860905Y-76804717D02*
X141860905Y-74404717D01*
X141735905Y-76804717D02*
X141735905Y-74404717D01*
X141660905Y-76804717D02*
X147460905Y-76804717D01*
X147460905Y-76804717D02*
X147460905Y-74404717D01*
X147460905Y-74404717D02*
X141660905Y-74404717D01*
%TO.C,D49*%
X142385905Y-153004717D02*
X142385905Y-150604717D01*
X142210905Y-153004717D02*
X142210905Y-150604717D01*
X142035905Y-153004717D02*
X142035905Y-150604717D01*
X141635905Y-150604717D02*
X141635905Y-153004717D01*
X141860905Y-153004717D02*
X141860905Y-150604717D01*
X141735905Y-153004717D02*
X141735905Y-150604717D01*
X141660905Y-153004717D02*
X147460905Y-153004717D01*
X147460905Y-153004717D02*
X147460905Y-150604717D01*
X147460905Y-150604717D02*
X141660905Y-150604717D01*
%TO.C,D45*%
X166510905Y-74404717D02*
X160710905Y-74404717D01*
X166510905Y-76804717D02*
X166510905Y-74404717D01*
X160710905Y-76804717D02*
X166510905Y-76804717D01*
X160785905Y-76804717D02*
X160785905Y-74404717D01*
X160910905Y-76804717D02*
X160910905Y-74404717D01*
X160685905Y-74404717D02*
X160685905Y-76804717D01*
X161085905Y-76804717D02*
X161085905Y-74404717D01*
X161260905Y-76804717D02*
X161260905Y-74404717D01*
X161435905Y-76804717D02*
X161435905Y-74404717D01*
%TO.C,D47*%
X152223405Y-112504717D02*
X146423405Y-112504717D01*
X152223405Y-114904717D02*
X152223405Y-112504717D01*
X146423405Y-114904717D02*
X152223405Y-114904717D01*
X146498405Y-114904717D02*
X146498405Y-112504717D01*
X146623405Y-114904717D02*
X146623405Y-112504717D01*
X146398405Y-112504717D02*
X146398405Y-114904717D01*
X146798405Y-114904717D02*
X146798405Y-112504717D01*
X146973405Y-114904717D02*
X146973405Y-112504717D01*
X147148405Y-114904717D02*
X147148405Y-112504717D01*
%TO.C,D46*%
X151910905Y-95854717D02*
X151910905Y-93454717D01*
X151735905Y-95854717D02*
X151735905Y-93454717D01*
X151560905Y-95854717D02*
X151560905Y-93454717D01*
X151160905Y-93454717D02*
X151160905Y-95854717D01*
X151385905Y-95854717D02*
X151385905Y-93454717D01*
X151260905Y-95854717D02*
X151260905Y-93454717D01*
X151185905Y-95854717D02*
X156985905Y-95854717D01*
X156985905Y-95854717D02*
X156985905Y-93454717D01*
X156985905Y-93454717D02*
X151185905Y-93454717D01*
%TO.C,D44*%
X161435905Y-153004717D02*
X161435905Y-150604717D01*
X161260905Y-153004717D02*
X161260905Y-150604717D01*
X161085905Y-153004717D02*
X161085905Y-150604717D01*
X160685905Y-150604717D02*
X160685905Y-153004717D01*
X160910905Y-153004717D02*
X160910905Y-150604717D01*
X160785905Y-153004717D02*
X160785905Y-150604717D01*
X160710905Y-153004717D02*
X166510905Y-153004717D01*
X166510905Y-153004717D02*
X166510905Y-150604717D01*
X166510905Y-150604717D02*
X160710905Y-150604717D01*
%TO.C,D41*%
X176035905Y-93454717D02*
X170235905Y-93454717D01*
X176035905Y-95854717D02*
X176035905Y-93454717D01*
X170235905Y-95854717D02*
X176035905Y-95854717D01*
X170310905Y-95854717D02*
X170310905Y-93454717D01*
X170435905Y-95854717D02*
X170435905Y-93454717D01*
X170210905Y-93454717D02*
X170210905Y-95854717D01*
X170610905Y-95854717D02*
X170610905Y-93454717D01*
X170785905Y-95854717D02*
X170785905Y-93454717D01*
X170960905Y-95854717D02*
X170960905Y-93454717D01*
%TO.C,D39*%
X194773405Y-133954717D02*
X194773405Y-131554717D01*
X194598405Y-133954717D02*
X194598405Y-131554717D01*
X194423405Y-133954717D02*
X194423405Y-131554717D01*
X194023405Y-131554717D02*
X194023405Y-133954717D01*
X194248405Y-133954717D02*
X194248405Y-131554717D01*
X194123405Y-133954717D02*
X194123405Y-131554717D01*
X194048405Y-133954717D02*
X199848405Y-133954717D01*
X199848405Y-133954717D02*
X199848405Y-131554717D01*
X199848405Y-131554717D02*
X194048405Y-131554717D01*
%TO.C,D38*%
X185248405Y-114904717D02*
X185248405Y-112504717D01*
X185073405Y-114904717D02*
X185073405Y-112504717D01*
X184898405Y-114904717D02*
X184898405Y-112504717D01*
X184498405Y-112504717D02*
X184498405Y-114904717D01*
X184723405Y-114904717D02*
X184723405Y-112504717D01*
X184598405Y-114904717D02*
X184598405Y-112504717D01*
X184523405Y-114904717D02*
X190323405Y-114904717D01*
X190323405Y-114904717D02*
X190323405Y-112504717D01*
X190323405Y-112504717D02*
X184523405Y-112504717D01*
%TO.C,D33*%
X214135905Y-93454717D02*
X208335905Y-93454717D01*
X214135905Y-95854717D02*
X214135905Y-93454717D01*
X208335905Y-95854717D02*
X214135905Y-95854717D01*
X208410905Y-95854717D02*
X208410905Y-93454717D01*
X208535905Y-95854717D02*
X208535905Y-93454717D01*
X208310905Y-93454717D02*
X208310905Y-95854717D01*
X208710905Y-95854717D02*
X208710905Y-93454717D01*
X208885905Y-95854717D02*
X208885905Y-93454717D01*
X209060905Y-95854717D02*
X209060905Y-93454717D01*
%TO.C,D2*%
X352248405Y-93454717D02*
X346448405Y-93454717D01*
X352248405Y-95854717D02*
X352248405Y-93454717D01*
X346448405Y-95854717D02*
X352248405Y-95854717D01*
X346523405Y-95854717D02*
X346523405Y-93454717D01*
X346648405Y-95854717D02*
X346648405Y-93454717D01*
X346423405Y-93454717D02*
X346423405Y-95854717D01*
X346823405Y-95854717D02*
X346823405Y-93454717D01*
X346998405Y-95854717D02*
X346998405Y-93454717D01*
X347173405Y-95854717D02*
X347173405Y-93454717D01*
%TO.C,D1*%
X357010905Y-74404717D02*
X351210905Y-74404717D01*
X357010905Y-76804717D02*
X357010905Y-74404717D01*
X351210905Y-76804717D02*
X357010905Y-76804717D01*
X351285905Y-76804717D02*
X351285905Y-74404717D01*
X351410905Y-76804717D02*
X351410905Y-74404717D01*
X351185905Y-74404717D02*
X351185905Y-76804717D01*
X351585905Y-76804717D02*
X351585905Y-74404717D01*
X351760905Y-76804717D02*
X351760905Y-74404717D01*
X351935905Y-76804717D02*
X351935905Y-74404717D01*
%TO.C,D4*%
X345104655Y-131554717D02*
X339304655Y-131554717D01*
X345104655Y-133954717D02*
X345104655Y-131554717D01*
X339304655Y-133954717D02*
X345104655Y-133954717D01*
X339379655Y-133954717D02*
X339379655Y-131554717D01*
X339504655Y-133954717D02*
X339504655Y-131554717D01*
X339279655Y-131554717D02*
X339279655Y-133954717D01*
X339679655Y-133954717D02*
X339679655Y-131554717D01*
X339854655Y-133954717D02*
X339854655Y-131554717D01*
X340029655Y-133954717D02*
X340029655Y-131554717D01*
%TO.C,D5*%
X349554655Y-153004717D02*
X349554655Y-150604717D01*
X349379655Y-153004717D02*
X349379655Y-150604717D01*
X349204655Y-153004717D02*
X349204655Y-150604717D01*
X348804655Y-150604717D02*
X348804655Y-153004717D01*
X349029655Y-153004717D02*
X349029655Y-150604717D01*
X348904655Y-153004717D02*
X348904655Y-150604717D01*
X348829655Y-153004717D02*
X354629655Y-153004717D01*
X354629655Y-153004717D02*
X354629655Y-150604717D01*
X354629655Y-150604717D02*
X348829655Y-150604717D01*
%TO.C,D3*%
X344792155Y-114904717D02*
X344792155Y-112504717D01*
X344617155Y-114904717D02*
X344617155Y-112504717D01*
X344442155Y-114904717D02*
X344442155Y-112504717D01*
X344042155Y-112504717D02*
X344042155Y-114904717D01*
X344267155Y-114904717D02*
X344267155Y-112504717D01*
X344142155Y-114904717D02*
X344142155Y-112504717D01*
X344067155Y-114904717D02*
X349867155Y-114904717D01*
X349867155Y-114904717D02*
X349867155Y-112504717D01*
X349867155Y-112504717D02*
X344067155Y-112504717D01*
%TO.C,D23*%
X261760905Y-74404717D02*
X255960905Y-74404717D01*
X261760905Y-76804717D02*
X261760905Y-74404717D01*
X255960905Y-76804717D02*
X261760905Y-76804717D01*
X256035905Y-76804717D02*
X256035905Y-74404717D01*
X256160905Y-76804717D02*
X256160905Y-74404717D01*
X255935905Y-74404717D02*
X255935905Y-76804717D01*
X256335905Y-76804717D02*
X256335905Y-74404717D01*
X256510905Y-76804717D02*
X256510905Y-74404717D01*
X256685905Y-76804717D02*
X256685905Y-74404717D01*
%TO.C,D31*%
X230492155Y-153004717D02*
X230492155Y-150604717D01*
X230317155Y-153004717D02*
X230317155Y-150604717D01*
X230142155Y-153004717D02*
X230142155Y-150604717D01*
X229742155Y-150604717D02*
X229742155Y-153004717D01*
X229967155Y-153004717D02*
X229967155Y-150604717D01*
X229842155Y-153004717D02*
X229842155Y-150604717D01*
X229767155Y-153004717D02*
X235567155Y-153004717D01*
X235567155Y-153004717D02*
X235567155Y-150604717D01*
X235567155Y-150604717D02*
X229767155Y-150604717D01*
%TO.C,D30*%
X237948405Y-131554717D02*
X232148405Y-131554717D01*
X237948405Y-133954717D02*
X237948405Y-131554717D01*
X232148405Y-133954717D02*
X237948405Y-133954717D01*
X232223405Y-133954717D02*
X232223405Y-131554717D01*
X232348405Y-133954717D02*
X232348405Y-131554717D01*
X232123405Y-131554717D02*
X232123405Y-133954717D01*
X232523405Y-133954717D02*
X232523405Y-131554717D01*
X232698405Y-133954717D02*
X232698405Y-131554717D01*
X232873405Y-133954717D02*
X232873405Y-131554717D01*
%TO.C,D29*%
X228423405Y-112504717D02*
X222623405Y-112504717D01*
X228423405Y-114904717D02*
X228423405Y-112504717D01*
X222623405Y-114904717D02*
X228423405Y-114904717D01*
X222698405Y-114904717D02*
X222698405Y-112504717D01*
X222823405Y-114904717D02*
X222823405Y-112504717D01*
X222598405Y-112504717D02*
X222598405Y-114904717D01*
X222998405Y-114904717D02*
X222998405Y-112504717D01*
X223173405Y-114904717D02*
X223173405Y-112504717D01*
X223348405Y-114904717D02*
X223348405Y-112504717D01*
%TO.C,D28*%
X233185905Y-93454717D02*
X227385905Y-93454717D01*
X233185905Y-95854717D02*
X233185905Y-93454717D01*
X227385905Y-95854717D02*
X233185905Y-95854717D01*
X227460905Y-95854717D02*
X227460905Y-93454717D01*
X227585905Y-95854717D02*
X227585905Y-93454717D01*
X227360905Y-93454717D02*
X227360905Y-95854717D01*
X227760905Y-95854717D02*
X227760905Y-93454717D01*
X227935905Y-95854717D02*
X227935905Y-93454717D01*
X228110905Y-95854717D02*
X228110905Y-93454717D01*
%TO.C,D19*%
X280810905Y-74404717D02*
X275010905Y-74404717D01*
X280810905Y-76804717D02*
X280810905Y-74404717D01*
X275010905Y-76804717D02*
X280810905Y-76804717D01*
X275085905Y-76804717D02*
X275085905Y-74404717D01*
X275210905Y-76804717D02*
X275210905Y-74404717D01*
X274985905Y-74404717D02*
X274985905Y-76804717D01*
X275385905Y-76804717D02*
X275385905Y-74404717D01*
X275560905Y-76804717D02*
X275560905Y-74404717D01*
X275735905Y-76804717D02*
X275735905Y-74404717D01*
%TO.C,D27*%
X242710905Y-74404717D02*
X236910905Y-74404717D01*
X242710905Y-76804717D02*
X242710905Y-74404717D01*
X236910905Y-76804717D02*
X242710905Y-76804717D01*
X236985905Y-76804717D02*
X236985905Y-74404717D01*
X237110905Y-76804717D02*
X237110905Y-74404717D01*
X236885905Y-74404717D02*
X236885905Y-76804717D01*
X237285905Y-76804717D02*
X237285905Y-74404717D01*
X237460905Y-76804717D02*
X237460905Y-74404717D01*
X237635905Y-76804717D02*
X237635905Y-74404717D01*
%TO.C,D26*%
X251923405Y-133954717D02*
X251923405Y-131554717D01*
X251748405Y-133954717D02*
X251748405Y-131554717D01*
X251573405Y-133954717D02*
X251573405Y-131554717D01*
X251173405Y-131554717D02*
X251173405Y-133954717D01*
X251398405Y-133954717D02*
X251398405Y-131554717D01*
X251273405Y-133954717D02*
X251273405Y-131554717D01*
X251198405Y-133954717D02*
X256998405Y-133954717D01*
X256998405Y-133954717D02*
X256998405Y-131554717D01*
X256998405Y-131554717D02*
X251198405Y-131554717D01*
%TO.C,D24*%
X252235905Y-93454717D02*
X246435905Y-93454717D01*
X252235905Y-95854717D02*
X252235905Y-93454717D01*
X246435905Y-95854717D02*
X252235905Y-95854717D01*
X246510905Y-95854717D02*
X246510905Y-93454717D01*
X246635905Y-95854717D02*
X246635905Y-93454717D01*
X246410905Y-93454717D02*
X246410905Y-95854717D01*
X246810905Y-95854717D02*
X246810905Y-93454717D01*
X246985905Y-95854717D02*
X246985905Y-93454717D01*
X247160905Y-95854717D02*
X247160905Y-93454717D01*
%TO.C,D22*%
X270973405Y-133954717D02*
X270973405Y-131554717D01*
X270798405Y-133954717D02*
X270798405Y-131554717D01*
X270623405Y-133954717D02*
X270623405Y-131554717D01*
X270223405Y-131554717D02*
X270223405Y-133954717D01*
X270448405Y-133954717D02*
X270448405Y-131554717D01*
X270323405Y-133954717D02*
X270323405Y-131554717D01*
X270248405Y-133954717D02*
X276048405Y-133954717D01*
X276048405Y-133954717D02*
X276048405Y-131554717D01*
X276048405Y-131554717D02*
X270248405Y-131554717D01*
%TO.C,D16*%
X285260905Y-95854717D02*
X285260905Y-93454717D01*
X285085905Y-95854717D02*
X285085905Y-93454717D01*
X284910905Y-95854717D02*
X284910905Y-93454717D01*
X284510905Y-93454717D02*
X284510905Y-95854717D01*
X284735905Y-95854717D02*
X284735905Y-93454717D01*
X284610905Y-95854717D02*
X284610905Y-93454717D01*
X284535905Y-95854717D02*
X290335905Y-95854717D01*
X290335905Y-95854717D02*
X290335905Y-93454717D01*
X290335905Y-93454717D02*
X284535905Y-93454717D01*
%TO.C,D15*%
X294785905Y-76804717D02*
X294785905Y-74404717D01*
X294610905Y-76804717D02*
X294610905Y-74404717D01*
X294435905Y-76804717D02*
X294435905Y-74404717D01*
X294035905Y-74404717D02*
X294035905Y-76804717D01*
X294260905Y-76804717D02*
X294260905Y-74404717D01*
X294135905Y-76804717D02*
X294135905Y-74404717D01*
X294060905Y-76804717D02*
X299860905Y-76804717D01*
X299860905Y-76804717D02*
X299860905Y-74404717D01*
X299860905Y-74404717D02*
X294060905Y-74404717D01*
%TO.C,D18*%
X290023405Y-133954717D02*
X290023405Y-131554717D01*
X289848405Y-133954717D02*
X289848405Y-131554717D01*
X289673405Y-133954717D02*
X289673405Y-131554717D01*
X289273405Y-131554717D02*
X289273405Y-133954717D01*
X289498405Y-133954717D02*
X289498405Y-131554717D01*
X289373405Y-133954717D02*
X289373405Y-131554717D01*
X289298405Y-133954717D02*
X295098405Y-133954717D01*
X295098405Y-133954717D02*
X295098405Y-131554717D01*
X295098405Y-131554717D02*
X289298405Y-131554717D01*
%TO.C,D21*%
X261448405Y-114904717D02*
X261448405Y-112504717D01*
X261273405Y-114904717D02*
X261273405Y-112504717D01*
X261098405Y-114904717D02*
X261098405Y-112504717D01*
X260698405Y-112504717D02*
X260698405Y-114904717D01*
X260923405Y-114904717D02*
X260923405Y-112504717D01*
X260798405Y-114904717D02*
X260798405Y-112504717D01*
X260723405Y-114904717D02*
X266523405Y-114904717D01*
X266523405Y-114904717D02*
X266523405Y-112504717D01*
X266523405Y-112504717D02*
X260723405Y-112504717D01*
%TO.C,D20*%
X271285905Y-93454717D02*
X265485905Y-93454717D01*
X271285905Y-95854717D02*
X271285905Y-93454717D01*
X265485905Y-95854717D02*
X271285905Y-95854717D01*
X265560905Y-95854717D02*
X265560905Y-93454717D01*
X265685905Y-95854717D02*
X265685905Y-93454717D01*
X265460905Y-93454717D02*
X265460905Y-95854717D01*
X265860905Y-95854717D02*
X265860905Y-93454717D01*
X266035905Y-95854717D02*
X266035905Y-93454717D01*
X266210905Y-95854717D02*
X266210905Y-93454717D01*
%TO.C,D17*%
X285573405Y-112504717D02*
X279773405Y-112504717D01*
X285573405Y-114904717D02*
X285573405Y-112504717D01*
X279773405Y-114904717D02*
X285573405Y-114904717D01*
X279848405Y-114904717D02*
X279848405Y-112504717D01*
X279973405Y-114904717D02*
X279973405Y-112504717D01*
X279748405Y-112504717D02*
X279748405Y-114904717D01*
X280148405Y-114904717D02*
X280148405Y-112504717D01*
X280323405Y-114904717D02*
X280323405Y-112504717D01*
X280498405Y-114904717D02*
X280498405Y-112504717D01*
%TO.C,D32*%
X223660905Y-74404717D02*
X217860905Y-74404717D01*
X223660905Y-76804717D02*
X223660905Y-74404717D01*
X217860905Y-76804717D02*
X223660905Y-76804717D01*
X217935905Y-76804717D02*
X217935905Y-74404717D01*
X218060905Y-76804717D02*
X218060905Y-74404717D01*
X217835905Y-74404717D02*
X217835905Y-76804717D01*
X218235905Y-76804717D02*
X218235905Y-74404717D01*
X218410905Y-76804717D02*
X218410905Y-74404717D01*
X218585905Y-76804717D02*
X218585905Y-74404717D01*
%TO.C,D25*%
X242398405Y-114904717D02*
X242398405Y-112504717D01*
X242223405Y-114904717D02*
X242223405Y-112504717D01*
X242048405Y-114904717D02*
X242048405Y-112504717D01*
X241648405Y-112504717D02*
X241648405Y-114904717D01*
X241873405Y-114904717D02*
X241873405Y-112504717D01*
X241748405Y-114904717D02*
X241748405Y-112504717D01*
X241673405Y-114904717D02*
X247473405Y-114904717D01*
X247473405Y-114904717D02*
X247473405Y-112504717D01*
X247473405Y-112504717D02*
X241673405Y-112504717D01*
%TO.C,D55*%
X128410905Y-74404717D02*
X122610905Y-74404717D01*
X128410905Y-76804717D02*
X128410905Y-74404717D01*
X122610905Y-76804717D02*
X128410905Y-76804717D01*
X122685905Y-76804717D02*
X122685905Y-74404717D01*
X122810905Y-76804717D02*
X122810905Y-74404717D01*
X122585905Y-74404717D02*
X122585905Y-76804717D01*
X122985905Y-76804717D02*
X122985905Y-74404717D01*
X123160905Y-76804717D02*
X123160905Y-74404717D01*
X123335905Y-76804717D02*
X123335905Y-74404717D01*
%TO.C,D53*%
X137623405Y-133954717D02*
X137623405Y-131554717D01*
X137448405Y-133954717D02*
X137448405Y-131554717D01*
X137273405Y-133954717D02*
X137273405Y-131554717D01*
X136873405Y-131554717D02*
X136873405Y-133954717D01*
X137098405Y-133954717D02*
X137098405Y-131554717D01*
X136973405Y-133954717D02*
X136973405Y-131554717D01*
X136898405Y-133954717D02*
X142698405Y-133954717D01*
X142698405Y-133954717D02*
X142698405Y-131554717D01*
X142698405Y-131554717D02*
X136898405Y-131554717D01*
%TO.C,D63*%
X85235905Y-153004717D02*
X85235905Y-150604717D01*
X85060905Y-153004717D02*
X85060905Y-150604717D01*
X84885905Y-153004717D02*
X84885905Y-150604717D01*
X84485905Y-150604717D02*
X84485905Y-153004717D01*
X84710905Y-153004717D02*
X84710905Y-150604717D01*
X84585905Y-153004717D02*
X84585905Y-150604717D01*
X84510905Y-153004717D02*
X90310905Y-153004717D01*
X90310905Y-153004717D02*
X90310905Y-150604717D01*
X90310905Y-150604717D02*
X84510905Y-150604717D01*
%TO.C,D65*%
X66185905Y-95854717D02*
X66185905Y-93454717D01*
X66010905Y-95854717D02*
X66010905Y-93454717D01*
X65835905Y-95854717D02*
X65835905Y-93454717D01*
X65435905Y-93454717D02*
X65435905Y-95854717D01*
X65660905Y-95854717D02*
X65660905Y-93454717D01*
X65535905Y-95854717D02*
X65535905Y-93454717D01*
X65460905Y-95854717D02*
X71260905Y-95854717D01*
X71260905Y-95854717D02*
X71260905Y-93454717D01*
X71260905Y-93454717D02*
X65460905Y-93454717D01*
%TO.C,D68*%
X71260905Y-150604717D02*
X65460905Y-150604717D01*
X71260905Y-153004717D02*
X71260905Y-150604717D01*
X65460905Y-153004717D02*
X71260905Y-153004717D01*
X65535905Y-153004717D02*
X65535905Y-150604717D01*
X65660905Y-153004717D02*
X65660905Y-150604717D01*
X65435905Y-150604717D02*
X65435905Y-153004717D01*
X65835905Y-153004717D02*
X65835905Y-150604717D01*
X66010905Y-153004717D02*
X66010905Y-150604717D01*
X66185905Y-153004717D02*
X66185905Y-150604717D01*
%TO.C,D61*%
X102217155Y-112504717D02*
X96417155Y-112504717D01*
X102217155Y-114904717D02*
X102217155Y-112504717D01*
X96417155Y-114904717D02*
X102217155Y-114904717D01*
X96492155Y-114904717D02*
X96492155Y-112504717D01*
X96617155Y-114904717D02*
X96617155Y-112504717D01*
X96392155Y-112504717D02*
X96392155Y-114904717D01*
X96792155Y-114904717D02*
X96792155Y-112504717D01*
X96967155Y-114904717D02*
X96967155Y-112504717D01*
X97142155Y-114904717D02*
X97142155Y-112504717D01*
%TO.C,D62*%
X90310905Y-131554717D02*
X84510905Y-131554717D01*
X90310905Y-133954717D02*
X90310905Y-131554717D01*
X84510905Y-133954717D02*
X90310905Y-133954717D01*
X84585905Y-133954717D02*
X84585905Y-131554717D01*
X84710905Y-133954717D02*
X84710905Y-131554717D01*
X84485905Y-131554717D02*
X84485905Y-133954717D01*
X84885905Y-133954717D02*
X84885905Y-131554717D01*
X85060905Y-133954717D02*
X85060905Y-131554717D01*
X85235905Y-133954717D02*
X85235905Y-131554717D01*
%TO.C,D51*%
X137935905Y-93454717D02*
X132135905Y-93454717D01*
X137935905Y-95854717D02*
X137935905Y-93454717D01*
X132135905Y-95854717D02*
X137935905Y-95854717D01*
X132210905Y-95854717D02*
X132210905Y-93454717D01*
X132335905Y-95854717D02*
X132335905Y-93454717D01*
X132110905Y-93454717D02*
X132110905Y-95854717D01*
X132510905Y-95854717D02*
X132510905Y-93454717D01*
X132685905Y-95854717D02*
X132685905Y-93454717D01*
X132860905Y-95854717D02*
X132860905Y-93454717D01*
%TO.C,D56*%
X118885905Y-93454717D02*
X113085905Y-93454717D01*
X118885905Y-95854717D02*
X118885905Y-93454717D01*
X113085905Y-95854717D02*
X118885905Y-95854717D01*
X113160905Y-95854717D02*
X113160905Y-93454717D01*
X113285905Y-95854717D02*
X113285905Y-93454717D01*
X113060905Y-93454717D02*
X113060905Y-95854717D01*
X113460905Y-95854717D02*
X113460905Y-93454717D01*
X113635905Y-95854717D02*
X113635905Y-93454717D01*
X113810905Y-95854717D02*
X113810905Y-93454717D01*
%TO.C,D57*%
X111429655Y-133954717D02*
X111429655Y-131554717D01*
X111254655Y-133954717D02*
X111254655Y-131554717D01*
X111079655Y-133954717D02*
X111079655Y-131554717D01*
X110679655Y-131554717D02*
X110679655Y-133954717D01*
X110904655Y-133954717D02*
X110904655Y-131554717D01*
X110779655Y-133954717D02*
X110779655Y-131554717D01*
X110704655Y-133954717D02*
X116504655Y-133954717D01*
X116504655Y-133954717D02*
X116504655Y-131554717D01*
X116504655Y-131554717D02*
X110704655Y-131554717D01*
%TO.C,D60*%
X89998405Y-95854717D02*
X89998405Y-93454717D01*
X89823405Y-95854717D02*
X89823405Y-93454717D01*
X89648405Y-95854717D02*
X89648405Y-93454717D01*
X89248405Y-93454717D02*
X89248405Y-95854717D01*
X89473405Y-95854717D02*
X89473405Y-93454717D01*
X89348405Y-95854717D02*
X89348405Y-93454717D01*
X89273405Y-95854717D02*
X95073405Y-95854717D01*
X95073405Y-95854717D02*
X95073405Y-93454717D01*
X95073405Y-93454717D02*
X89273405Y-93454717D01*
%TO.C,D54*%
X123335905Y-153004717D02*
X123335905Y-150604717D01*
X123160905Y-153004717D02*
X123160905Y-150604717D01*
X122985905Y-153004717D02*
X122985905Y-150604717D01*
X122585905Y-150604717D02*
X122585905Y-153004717D01*
X122810905Y-153004717D02*
X122810905Y-150604717D01*
X122685905Y-153004717D02*
X122685905Y-150604717D01*
X122610905Y-153004717D02*
X128410905Y-153004717D01*
X128410905Y-153004717D02*
X128410905Y-150604717D01*
X128410905Y-150604717D02*
X122610905Y-150604717D01*
%TO.C,D59*%
X99835905Y-74404717D02*
X94035905Y-74404717D01*
X99835905Y-76804717D02*
X99835905Y-74404717D01*
X94035905Y-76804717D02*
X99835905Y-76804717D01*
X94110905Y-76804717D02*
X94110905Y-74404717D01*
X94235905Y-76804717D02*
X94235905Y-74404717D01*
X94010905Y-74404717D02*
X94010905Y-76804717D01*
X94410905Y-76804717D02*
X94410905Y-74404717D01*
X94585905Y-76804717D02*
X94585905Y-74404717D01*
X94760905Y-76804717D02*
X94760905Y-74404717D01*
%TO.C,D64*%
X71260905Y-74404717D02*
X65460905Y-74404717D01*
X71260905Y-76804717D02*
X71260905Y-74404717D01*
X65460905Y-76804717D02*
X71260905Y-76804717D01*
X65535905Y-76804717D02*
X65535905Y-74404717D01*
X65660905Y-76804717D02*
X65660905Y-74404717D01*
X65435905Y-74404717D02*
X65435905Y-76804717D01*
X65835905Y-76804717D02*
X65835905Y-74404717D01*
X66010905Y-76804717D02*
X66010905Y-74404717D01*
X66185905Y-76804717D02*
X66185905Y-74404717D01*
%TO.C,D67*%
X66185905Y-133954717D02*
X66185905Y-131554717D01*
X66010905Y-133954717D02*
X66010905Y-131554717D01*
X65835905Y-133954717D02*
X65835905Y-131554717D01*
X65435905Y-131554717D02*
X65435905Y-133954717D01*
X65660905Y-133954717D02*
X65660905Y-131554717D01*
X65535905Y-133954717D02*
X65535905Y-131554717D01*
X65460905Y-133954717D02*
X71260905Y-133954717D01*
X71260905Y-133954717D02*
X71260905Y-131554717D01*
X71260905Y-131554717D02*
X65460905Y-131554717D01*
%TO.C,D52*%
X128098405Y-114904717D02*
X128098405Y-112504717D01*
X127923405Y-114904717D02*
X127923405Y-112504717D01*
X127748405Y-114904717D02*
X127748405Y-112504717D01*
X127348405Y-112504717D02*
X127348405Y-114904717D01*
X127573405Y-114904717D02*
X127573405Y-112504717D01*
X127448405Y-114904717D02*
X127448405Y-112504717D01*
X127373405Y-114904717D02*
X133173405Y-114904717D01*
X133173405Y-114904717D02*
X133173405Y-112504717D01*
X133173405Y-112504717D02*
X127373405Y-112504717D01*
%TO.C,D66*%
X71260905Y-112504717D02*
X65460905Y-112504717D01*
X71260905Y-114904717D02*
X71260905Y-112504717D01*
X65460905Y-114904717D02*
X71260905Y-114904717D01*
X65535905Y-114904717D02*
X65535905Y-112504717D01*
X65660905Y-114904717D02*
X65660905Y-112504717D01*
X65435905Y-112504717D02*
X65435905Y-114904717D01*
X65835905Y-114904717D02*
X65835905Y-112504717D01*
X66010905Y-114904717D02*
X66010905Y-112504717D01*
X66185905Y-114904717D02*
X66185905Y-112504717D01*
%TO.C,D58*%
X109360905Y-150604717D02*
X103560905Y-150604717D01*
X109360905Y-153004717D02*
X109360905Y-150604717D01*
X103560905Y-153004717D02*
X109360905Y-153004717D01*
X103635905Y-153004717D02*
X103635905Y-150604717D01*
X103760905Y-153004717D02*
X103760905Y-150604717D01*
X103535905Y-150604717D02*
X103535905Y-153004717D01*
X103935905Y-153004717D02*
X103935905Y-150604717D01*
X104110905Y-153004717D02*
X104110905Y-150604717D01*
X104285905Y-153004717D02*
X104285905Y-150604717D01*
%TO.C,D10*%
X318910905Y-74404717D02*
X313110905Y-74404717D01*
X318910905Y-76804717D02*
X318910905Y-74404717D01*
X313110905Y-76804717D02*
X318910905Y-76804717D01*
X313185905Y-76804717D02*
X313185905Y-74404717D01*
X313310905Y-76804717D02*
X313310905Y-74404717D01*
X313085905Y-74404717D02*
X313085905Y-76804717D01*
X313485905Y-76804717D02*
X313485905Y-74404717D01*
X313660905Y-76804717D02*
X313660905Y-74404717D01*
X313835905Y-76804717D02*
X313835905Y-74404717D01*
%TO.C,D8*%
X318598405Y-114904717D02*
X318598405Y-112504717D01*
X318423405Y-114904717D02*
X318423405Y-112504717D01*
X318248405Y-114904717D02*
X318248405Y-112504717D01*
X317848405Y-112504717D02*
X317848405Y-114904717D01*
X318073405Y-114904717D02*
X318073405Y-112504717D01*
X317948405Y-114904717D02*
X317948405Y-112504717D01*
X317873405Y-114904717D02*
X323673405Y-114904717D01*
X323673405Y-114904717D02*
X323673405Y-112504717D01*
X323673405Y-112504717D02*
X317873405Y-112504717D01*
%TO.C,D6*%
X337960905Y-74404717D02*
X332160905Y-74404717D01*
X337960905Y-76804717D02*
X337960905Y-74404717D01*
X332160905Y-76804717D02*
X337960905Y-76804717D01*
X332235905Y-76804717D02*
X332235905Y-74404717D01*
X332360905Y-76804717D02*
X332360905Y-74404717D01*
X332135905Y-74404717D02*
X332135905Y-76804717D01*
X332535905Y-76804717D02*
X332535905Y-74404717D01*
X332710905Y-76804717D02*
X332710905Y-74404717D01*
X332885905Y-76804717D02*
X332885905Y-74404717D01*
%TO.C,D14*%
X307004655Y-150604717D02*
X301204655Y-150604717D01*
X307004655Y-153004717D02*
X307004655Y-150604717D01*
X301204655Y-153004717D02*
X307004655Y-153004717D01*
X301279655Y-153004717D02*
X301279655Y-150604717D01*
X301404655Y-153004717D02*
X301404655Y-150604717D01*
X301179655Y-150604717D02*
X301179655Y-153004717D01*
X301579655Y-153004717D02*
X301579655Y-150604717D01*
X301754655Y-153004717D02*
X301754655Y-150604717D01*
X301929655Y-153004717D02*
X301929655Y-150604717D01*
%TO.C,D13*%
X309073405Y-133954717D02*
X309073405Y-131554717D01*
X308898405Y-133954717D02*
X308898405Y-131554717D01*
X308723405Y-133954717D02*
X308723405Y-131554717D01*
X308323405Y-131554717D02*
X308323405Y-133954717D01*
X308548405Y-133954717D02*
X308548405Y-131554717D01*
X308423405Y-133954717D02*
X308423405Y-131554717D01*
X308348405Y-133954717D02*
X314148405Y-133954717D01*
X314148405Y-133954717D02*
X314148405Y-131554717D01*
X314148405Y-131554717D02*
X308348405Y-131554717D01*
%TO.C,D12*%
X304623405Y-112504717D02*
X298823405Y-112504717D01*
X304623405Y-114904717D02*
X304623405Y-112504717D01*
X298823405Y-114904717D02*
X304623405Y-114904717D01*
X298898405Y-114904717D02*
X298898405Y-112504717D01*
X299023405Y-114904717D02*
X299023405Y-112504717D01*
X298798405Y-112504717D02*
X298798405Y-114904717D01*
X299198405Y-114904717D02*
X299198405Y-112504717D01*
X299373405Y-114904717D02*
X299373405Y-112504717D01*
X299548405Y-114904717D02*
X299548405Y-112504717D01*
%TO.C,D7*%
X323360905Y-95854717D02*
X323360905Y-93454717D01*
X323185905Y-95854717D02*
X323185905Y-93454717D01*
X323010905Y-95854717D02*
X323010905Y-93454717D01*
X322610905Y-93454717D02*
X322610905Y-95854717D01*
X322835905Y-95854717D02*
X322835905Y-93454717D01*
X322710905Y-95854717D02*
X322710905Y-93454717D01*
X322635905Y-95854717D02*
X328435905Y-95854717D01*
X328435905Y-95854717D02*
X328435905Y-93454717D01*
X328435905Y-93454717D02*
X322635905Y-93454717D01*
%TO.C,D9*%
X325742155Y-153004717D02*
X325742155Y-150604717D01*
X325567155Y-153004717D02*
X325567155Y-150604717D01*
X325392155Y-153004717D02*
X325392155Y-150604717D01*
X324992155Y-150604717D02*
X324992155Y-153004717D01*
X325217155Y-153004717D02*
X325217155Y-150604717D01*
X325092155Y-153004717D02*
X325092155Y-150604717D01*
X325017155Y-153004717D02*
X330817155Y-153004717D01*
X330817155Y-153004717D02*
X330817155Y-150604717D01*
X330817155Y-150604717D02*
X325017155Y-150604717D01*
%TO.C,D11*%
X304310905Y-95854717D02*
X304310905Y-93454717D01*
X304135905Y-95854717D02*
X304135905Y-93454717D01*
X303960905Y-95854717D02*
X303960905Y-93454717D01*
X303560905Y-93454717D02*
X303560905Y-95854717D01*
X303785905Y-95854717D02*
X303785905Y-93454717D01*
X303660905Y-95854717D02*
X303660905Y-93454717D01*
X303585905Y-95854717D02*
X309385905Y-95854717D01*
X309385905Y-95854717D02*
X309385905Y-93454717D01*
X309385905Y-93454717D02*
X303585905Y-93454717D01*
D11*
%TO.C,SW1*%
X262023659Y-147123563D02*
X262473659Y-146673563D01*
X265423659Y-147123563D02*
X264973659Y-146673563D01*
X265423659Y-151723563D02*
X264973659Y-152173563D01*
X262023659Y-151723563D02*
X262473659Y-152173563D01*
X266473659Y-150423563D02*
X266473659Y-148423563D01*
X262473659Y-146673563D02*
X264973659Y-146673563D01*
X260973659Y-150423563D02*
X260973659Y-148423563D01*
X262473659Y-152173563D02*
X264973659Y-152173563D01*
D12*
%TO.C,U1*%
X201398555Y-154598489D02*
X201398555Y-154023489D01*
X211748555Y-154598489D02*
X211748555Y-153923489D01*
X211748555Y-144248489D02*
X211748555Y-144923489D01*
X201398555Y-144248489D02*
X201398555Y-144923489D01*
X201398555Y-154598489D02*
X202073555Y-154598489D01*
X201398555Y-144248489D02*
X202073555Y-144248489D01*
X211748555Y-144248489D02*
X211073555Y-144248489D01*
X211748555Y-154598489D02*
X211073555Y-154598489D01*
X201398555Y-154023489D02*
X200123555Y-154023489D01*
D11*
%TO.C,R1*%
X254933651Y-149650627D02*
X254933651Y-149196499D01*
X253463651Y-149650627D02*
X253463651Y-149196499D01*
%TO.C,R5*%
X262901282Y-142735433D02*
X263355410Y-142735433D01*
X262901282Y-144205433D02*
X263355410Y-144205433D01*
%TO.C,R2*%
X215363619Y-149196499D02*
X215363619Y-149650627D01*
X216833619Y-149196499D02*
X216833619Y-149650627D01*
%TO.C,R6*%
X267663786Y-142735433D02*
X268117914Y-142735433D01*
X267663786Y-144205433D02*
X268117914Y-144205433D01*
%TO.C,R4*%
X258138778Y-144205433D02*
X258592906Y-144205433D01*
X258138778Y-142735433D02*
X258592906Y-142735433D01*
%TO.C,R3*%
X253376274Y-142735433D02*
X253830402Y-142735433D01*
X253376274Y-144205433D02*
X253830402Y-144205433D01*
%TO.C,C4*%
X215363555Y-144399737D02*
X215363555Y-144922241D01*
X216833555Y-144399737D02*
X216833555Y-144922241D01*
%TO.C,C1*%
X201950794Y-138238748D02*
X201950794Y-138761252D01*
X200480794Y-138238748D02*
X200480794Y-138761252D01*
%TO.C,C5*%
X196313555Y-144922241D02*
X196313555Y-144399737D01*
X197783555Y-144922241D02*
X197783555Y-144399737D01*
%TO.C,C2*%
X211015000Y-138238748D02*
X211015000Y-138761252D01*
X212485000Y-138238748D02*
X212485000Y-138761252D01*
%TO.C,C3*%
X216833555Y-153924737D02*
X216833555Y-154447241D01*
X215363555Y-153924737D02*
X215363555Y-154447241D01*
%TO.C,C6*%
X197783603Y-138969181D02*
X197783603Y-138446677D01*
X196313603Y-138969181D02*
X196313603Y-138446677D01*
%TO.C,C8*%
X197783555Y-149684741D02*
X197783555Y-149162237D01*
X196313555Y-149684741D02*
X196313555Y-149162237D01*
%TO.C,C7*%
X196313555Y-154447241D02*
X196313555Y-153924737D01*
X197783555Y-154447241D02*
X197783555Y-153924737D01*
%TO.C,K6*%
D10*
X335899000Y-75612597D02*
X335899000Y-74612597D01*
X335327571Y-75612597D02*
X335756143Y-75041169D01*
X335327571Y-74612597D02*
X335899000Y-75184026D01*
X334470428Y-74612597D02*
X334660905Y-74612597D01*
X334756143Y-74660217D01*
X334803762Y-74707836D01*
X334899000Y-74850693D01*
X334946619Y-75041169D01*
X334946619Y-75422121D01*
X334899000Y-75517359D01*
X334851381Y-75564978D01*
X334756143Y-75612597D01*
X334565666Y-75612597D01*
X334470428Y-75564978D01*
X334422809Y-75517359D01*
X334375190Y-75422121D01*
X334375190Y-75184026D01*
X334422809Y-75088788D01*
X334470428Y-75041169D01*
X334565666Y-74993550D01*
X334756143Y-74993550D01*
X334851381Y-75041169D01*
X334899000Y-75088788D01*
X334946619Y-75184026D01*
%TO.C,X1*%
D13*
X207530832Y-140068004D02*
X207623704Y-140532362D01*
X207345089Y-140253748D02*
X207809447Y-140346619D01*
X207371624Y-140784443D02*
X207530832Y-140625234D01*
X207451228Y-140704838D02*
X207172613Y-140426223D01*
X207238950Y-140439491D01*
X207292019Y-140439491D01*
X207331821Y-140426223D01*
D12*
%TO.C,D43*%
X178969833Y-131191621D02*
X178969833Y-130391621D01*
X178779357Y-130391621D01*
X178665071Y-130429717D01*
X178588881Y-130505907D01*
X178550785Y-130582097D01*
X178512690Y-130734478D01*
X178512690Y-130848764D01*
X178550785Y-131001145D01*
X178588881Y-131077336D01*
X178665071Y-131153526D01*
X178779357Y-131191621D01*
X178969833Y-131191621D01*
X177826976Y-130658288D02*
X177826976Y-131191621D01*
X178017452Y-130353526D02*
X178207928Y-130924955D01*
X177712690Y-130924955D01*
X177484119Y-130391621D02*
X176988881Y-130391621D01*
X177255547Y-130696383D01*
X177141262Y-130696383D01*
X177065071Y-130734478D01*
X177026976Y-130772574D01*
X176988881Y-130848764D01*
X176988881Y-131039240D01*
X177026976Y-131115431D01*
X177065071Y-131153526D01*
X177141262Y-131191621D01*
X177369833Y-131191621D01*
X177446024Y-131153526D01*
X177484119Y-131115431D01*
%TO.C,D42*%
X169444833Y-112141621D02*
X169444833Y-111341621D01*
X169254357Y-111341621D01*
X169140071Y-111379717D01*
X169063881Y-111455907D01*
X169025785Y-111532097D01*
X168987690Y-111684478D01*
X168987690Y-111798764D01*
X169025785Y-111951145D01*
X169063881Y-112027336D01*
X169140071Y-112103526D01*
X169254357Y-112141621D01*
X169444833Y-112141621D01*
X168301976Y-111608288D02*
X168301976Y-112141621D01*
X168492452Y-111303526D02*
X168682928Y-111874955D01*
X168187690Y-111874955D01*
X167921024Y-111417812D02*
X167882928Y-111379717D01*
X167806738Y-111341621D01*
X167616262Y-111341621D01*
X167540071Y-111379717D01*
X167501976Y-111417812D01*
X167463881Y-111494002D01*
X167463881Y-111570193D01*
X167501976Y-111684478D01*
X167959119Y-112141621D01*
X167463881Y-112141621D01*
%TO.C,D40*%
X183732333Y-74041621D02*
X183732333Y-73241621D01*
X183541857Y-73241621D01*
X183427571Y-73279717D01*
X183351381Y-73355907D01*
X183313285Y-73432097D01*
X183275190Y-73584478D01*
X183275190Y-73698764D01*
X183313285Y-73851145D01*
X183351381Y-73927336D01*
X183427571Y-74003526D01*
X183541857Y-74041621D01*
X183732333Y-74041621D01*
X182589476Y-73508288D02*
X182589476Y-74041621D01*
X182779952Y-73203526D02*
X182970428Y-73774955D01*
X182475190Y-73774955D01*
X182018047Y-73241621D02*
X181941857Y-73241621D01*
X181865666Y-73279717D01*
X181827571Y-73317812D01*
X181789476Y-73394002D01*
X181751381Y-73546383D01*
X181751381Y-73736859D01*
X181789476Y-73889240D01*
X181827571Y-73965431D01*
X181865666Y-74003526D01*
X181941857Y-74041621D01*
X182018047Y-74041621D01*
X182094238Y-74003526D01*
X182132333Y-73965431D01*
X182170428Y-73889240D01*
X182208524Y-73736859D01*
X182208524Y-73546383D01*
X182170428Y-73394002D01*
X182132333Y-73317812D01*
X182094238Y-73279717D01*
X182018047Y-73241621D01*
%TO.C,D37*%
X193257333Y-93091621D02*
X193257333Y-92291621D01*
X193066857Y-92291621D01*
X192952571Y-92329717D01*
X192876381Y-92405907D01*
X192838285Y-92482097D01*
X192800190Y-92634478D01*
X192800190Y-92748764D01*
X192838285Y-92901145D01*
X192876381Y-92977336D01*
X192952571Y-93053526D01*
X193066857Y-93091621D01*
X193257333Y-93091621D01*
X192533524Y-92291621D02*
X192038285Y-92291621D01*
X192304952Y-92596383D01*
X192190666Y-92596383D01*
X192114476Y-92634478D01*
X192076381Y-92672574D01*
X192038285Y-92748764D01*
X192038285Y-92939240D01*
X192076381Y-93015431D01*
X192114476Y-93053526D01*
X192190666Y-93091621D01*
X192419238Y-93091621D01*
X192495428Y-93053526D01*
X192533524Y-93015431D01*
X191771619Y-92291621D02*
X191238285Y-92291621D01*
X191581143Y-93091621D01*
%TO.C,D36*%
X202782333Y-74041621D02*
X202782333Y-73241621D01*
X202591857Y-73241621D01*
X202477571Y-73279717D01*
X202401381Y-73355907D01*
X202363285Y-73432097D01*
X202325190Y-73584478D01*
X202325190Y-73698764D01*
X202363285Y-73851145D01*
X202401381Y-73927336D01*
X202477571Y-74003526D01*
X202591857Y-74041621D01*
X202782333Y-74041621D01*
X202058524Y-73241621D02*
X201563285Y-73241621D01*
X201829952Y-73546383D01*
X201715666Y-73546383D01*
X201639476Y-73584478D01*
X201601381Y-73622574D01*
X201563285Y-73698764D01*
X201563285Y-73889240D01*
X201601381Y-73965431D01*
X201639476Y-74003526D01*
X201715666Y-74041621D01*
X201944238Y-74041621D01*
X202020428Y-74003526D01*
X202058524Y-73965431D01*
X200877571Y-73241621D02*
X201029952Y-73241621D01*
X201106143Y-73279717D01*
X201144238Y-73317812D01*
X201220428Y-73432097D01*
X201258524Y-73584478D01*
X201258524Y-73889240D01*
X201220428Y-73965431D01*
X201182333Y-74003526D01*
X201106143Y-74041621D01*
X200953762Y-74041621D01*
X200877571Y-74003526D01*
X200839476Y-73965431D01*
X200801381Y-73889240D01*
X200801381Y-73698764D01*
X200839476Y-73622574D01*
X200877571Y-73584478D01*
X200953762Y-73546383D01*
X201106143Y-73546383D01*
X201182333Y-73584478D01*
X201220428Y-73622574D01*
X201258524Y-73698764D01*
%TO.C,D35*%
X217069833Y-131191621D02*
X217069833Y-130391621D01*
X216879357Y-130391621D01*
X216765071Y-130429717D01*
X216688881Y-130505907D01*
X216650785Y-130582097D01*
X216612690Y-130734478D01*
X216612690Y-130848764D01*
X216650785Y-131001145D01*
X216688881Y-131077336D01*
X216765071Y-131153526D01*
X216879357Y-131191621D01*
X217069833Y-131191621D01*
X216346024Y-130391621D02*
X215850785Y-130391621D01*
X216117452Y-130696383D01*
X216003166Y-130696383D01*
X215926976Y-130734478D01*
X215888881Y-130772574D01*
X215850785Y-130848764D01*
X215850785Y-131039240D01*
X215888881Y-131115431D01*
X215926976Y-131153526D01*
X216003166Y-131191621D01*
X216231738Y-131191621D01*
X216307928Y-131153526D01*
X216346024Y-131115431D01*
X215126976Y-130391621D02*
X215507928Y-130391621D01*
X215546024Y-130772574D01*
X215507928Y-130734478D01*
X215431738Y-130696383D01*
X215241262Y-130696383D01*
X215165071Y-130734478D01*
X215126976Y-130772574D01*
X215088881Y-130848764D01*
X215088881Y-131039240D01*
X215126976Y-131115431D01*
X215165071Y-131153526D01*
X215241262Y-131191621D01*
X215431738Y-131191621D01*
X215507928Y-131153526D01*
X215546024Y-131115431D01*
%TO.C,D48*%
X159919833Y-131191621D02*
X159919833Y-130391621D01*
X159729357Y-130391621D01*
X159615071Y-130429717D01*
X159538881Y-130505907D01*
X159500785Y-130582097D01*
X159462690Y-130734478D01*
X159462690Y-130848764D01*
X159500785Y-131001145D01*
X159538881Y-131077336D01*
X159615071Y-131153526D01*
X159729357Y-131191621D01*
X159919833Y-131191621D01*
X158776976Y-130658288D02*
X158776976Y-131191621D01*
X158967452Y-130353526D02*
X159157928Y-130924955D01*
X158662690Y-130924955D01*
X158243643Y-130734478D02*
X158319833Y-130696383D01*
X158357928Y-130658288D01*
X158396024Y-130582097D01*
X158396024Y-130544002D01*
X158357928Y-130467812D01*
X158319833Y-130429717D01*
X158243643Y-130391621D01*
X158091262Y-130391621D01*
X158015071Y-130429717D01*
X157976976Y-130467812D01*
X157938881Y-130544002D01*
X157938881Y-130582097D01*
X157976976Y-130658288D01*
X158015071Y-130696383D01*
X158091262Y-130734478D01*
X158243643Y-130734478D01*
X158319833Y-130772574D01*
X158357928Y-130810669D01*
X158396024Y-130886859D01*
X158396024Y-131039240D01*
X158357928Y-131115431D01*
X158319833Y-131153526D01*
X158243643Y-131191621D01*
X158091262Y-131191621D01*
X158015071Y-131153526D01*
X157976976Y-131115431D01*
X157938881Y-131039240D01*
X157938881Y-130886859D01*
X157976976Y-130810669D01*
X158015071Y-130772574D01*
X158091262Y-130734478D01*
%TO.C,D34*%
X207544833Y-112141621D02*
X207544833Y-111341621D01*
X207354357Y-111341621D01*
X207240071Y-111379717D01*
X207163881Y-111455907D01*
X207125785Y-111532097D01*
X207087690Y-111684478D01*
X207087690Y-111798764D01*
X207125785Y-111951145D01*
X207163881Y-112027336D01*
X207240071Y-112103526D01*
X207354357Y-112141621D01*
X207544833Y-112141621D01*
X206821024Y-111341621D02*
X206325785Y-111341621D01*
X206592452Y-111646383D01*
X206478166Y-111646383D01*
X206401976Y-111684478D01*
X206363881Y-111722574D01*
X206325785Y-111798764D01*
X206325785Y-111989240D01*
X206363881Y-112065431D01*
X206401976Y-112103526D01*
X206478166Y-112141621D01*
X206706738Y-112141621D01*
X206782928Y-112103526D01*
X206821024Y-112065431D01*
X205640071Y-111608288D02*
X205640071Y-112141621D01*
X205830547Y-111303526D02*
X206021024Y-111874955D01*
X205525785Y-111874955D01*
%TO.C,D50*%
X145632333Y-74041621D02*
X145632333Y-73241621D01*
X145441857Y-73241621D01*
X145327571Y-73279717D01*
X145251381Y-73355907D01*
X145213285Y-73432097D01*
X145175190Y-73584478D01*
X145175190Y-73698764D01*
X145213285Y-73851145D01*
X145251381Y-73927336D01*
X145327571Y-74003526D01*
X145441857Y-74041621D01*
X145632333Y-74041621D01*
X144451381Y-73241621D02*
X144832333Y-73241621D01*
X144870428Y-73622574D01*
X144832333Y-73584478D01*
X144756143Y-73546383D01*
X144565666Y-73546383D01*
X144489476Y-73584478D01*
X144451381Y-73622574D01*
X144413285Y-73698764D01*
X144413285Y-73889240D01*
X144451381Y-73965431D01*
X144489476Y-74003526D01*
X144565666Y-74041621D01*
X144756143Y-74041621D01*
X144832333Y-74003526D01*
X144870428Y-73965431D01*
X143918047Y-73241621D02*
X143841857Y-73241621D01*
X143765666Y-73279717D01*
X143727571Y-73317812D01*
X143689476Y-73394002D01*
X143651381Y-73546383D01*
X143651381Y-73736859D01*
X143689476Y-73889240D01*
X143727571Y-73965431D01*
X143765666Y-74003526D01*
X143841857Y-74041621D01*
X143918047Y-74041621D01*
X143994238Y-74003526D01*
X144032333Y-73965431D01*
X144070428Y-73889240D01*
X144108524Y-73736859D01*
X144108524Y-73546383D01*
X144070428Y-73394002D01*
X144032333Y-73317812D01*
X143994238Y-73279717D01*
X143918047Y-73241621D01*
%TO.C,D49*%
X145632333Y-150241621D02*
X145632333Y-149441621D01*
X145441857Y-149441621D01*
X145327571Y-149479717D01*
X145251381Y-149555907D01*
X145213285Y-149632097D01*
X145175190Y-149784478D01*
X145175190Y-149898764D01*
X145213285Y-150051145D01*
X145251381Y-150127336D01*
X145327571Y-150203526D01*
X145441857Y-150241621D01*
X145632333Y-150241621D01*
X144489476Y-149708288D02*
X144489476Y-150241621D01*
X144679952Y-149403526D02*
X144870428Y-149974955D01*
X144375190Y-149974955D01*
X144032333Y-150241621D02*
X143879952Y-150241621D01*
X143803762Y-150203526D01*
X143765666Y-150165431D01*
X143689476Y-150051145D01*
X143651381Y-149898764D01*
X143651381Y-149594002D01*
X143689476Y-149517812D01*
X143727571Y-149479717D01*
X143803762Y-149441621D01*
X143956143Y-149441621D01*
X144032333Y-149479717D01*
X144070428Y-149517812D01*
X144108524Y-149594002D01*
X144108524Y-149784478D01*
X144070428Y-149860669D01*
X144032333Y-149898764D01*
X143956143Y-149936859D01*
X143803762Y-149936859D01*
X143727571Y-149898764D01*
X143689476Y-149860669D01*
X143651381Y-149784478D01*
%TO.C,D45*%
X164682333Y-74041621D02*
X164682333Y-73241621D01*
X164491857Y-73241621D01*
X164377571Y-73279717D01*
X164301381Y-73355907D01*
X164263285Y-73432097D01*
X164225190Y-73584478D01*
X164225190Y-73698764D01*
X164263285Y-73851145D01*
X164301381Y-73927336D01*
X164377571Y-74003526D01*
X164491857Y-74041621D01*
X164682333Y-74041621D01*
X163539476Y-73508288D02*
X163539476Y-74041621D01*
X163729952Y-73203526D02*
X163920428Y-73774955D01*
X163425190Y-73774955D01*
X162739476Y-73241621D02*
X163120428Y-73241621D01*
X163158524Y-73622574D01*
X163120428Y-73584478D01*
X163044238Y-73546383D01*
X162853762Y-73546383D01*
X162777571Y-73584478D01*
X162739476Y-73622574D01*
X162701381Y-73698764D01*
X162701381Y-73889240D01*
X162739476Y-73965431D01*
X162777571Y-74003526D01*
X162853762Y-74041621D01*
X163044238Y-74041621D01*
X163120428Y-74003526D01*
X163158524Y-73965431D01*
%TO.C,D47*%
X150394833Y-112141621D02*
X150394833Y-111341621D01*
X150204357Y-111341621D01*
X150090071Y-111379717D01*
X150013881Y-111455907D01*
X149975785Y-111532097D01*
X149937690Y-111684478D01*
X149937690Y-111798764D01*
X149975785Y-111951145D01*
X150013881Y-112027336D01*
X150090071Y-112103526D01*
X150204357Y-112141621D01*
X150394833Y-112141621D01*
X149251976Y-111608288D02*
X149251976Y-112141621D01*
X149442452Y-111303526D02*
X149632928Y-111874955D01*
X149137690Y-111874955D01*
X148909119Y-111341621D02*
X148375785Y-111341621D01*
X148718643Y-112141621D01*
%TO.C,D46*%
X155157333Y-93091621D02*
X155157333Y-92291621D01*
X154966857Y-92291621D01*
X154852571Y-92329717D01*
X154776381Y-92405907D01*
X154738285Y-92482097D01*
X154700190Y-92634478D01*
X154700190Y-92748764D01*
X154738285Y-92901145D01*
X154776381Y-92977336D01*
X154852571Y-93053526D01*
X154966857Y-93091621D01*
X155157333Y-93091621D01*
X154014476Y-92558288D02*
X154014476Y-93091621D01*
X154204952Y-92253526D02*
X154395428Y-92824955D01*
X153900190Y-92824955D01*
X153252571Y-92291621D02*
X153404952Y-92291621D01*
X153481143Y-92329717D01*
X153519238Y-92367812D01*
X153595428Y-92482097D01*
X153633524Y-92634478D01*
X153633524Y-92939240D01*
X153595428Y-93015431D01*
X153557333Y-93053526D01*
X153481143Y-93091621D01*
X153328762Y-93091621D01*
X153252571Y-93053526D01*
X153214476Y-93015431D01*
X153176381Y-92939240D01*
X153176381Y-92748764D01*
X153214476Y-92672574D01*
X153252571Y-92634478D01*
X153328762Y-92596383D01*
X153481143Y-92596383D01*
X153557333Y-92634478D01*
X153595428Y-92672574D01*
X153633524Y-92748764D01*
%TO.C,D44*%
X164682333Y-150241621D02*
X164682333Y-149441621D01*
X164491857Y-149441621D01*
X164377571Y-149479717D01*
X164301381Y-149555907D01*
X164263285Y-149632097D01*
X164225190Y-149784478D01*
X164225190Y-149898764D01*
X164263285Y-150051145D01*
X164301381Y-150127336D01*
X164377571Y-150203526D01*
X164491857Y-150241621D01*
X164682333Y-150241621D01*
X163539476Y-149708288D02*
X163539476Y-150241621D01*
X163729952Y-149403526D02*
X163920428Y-149974955D01*
X163425190Y-149974955D01*
X162777571Y-149708288D02*
X162777571Y-150241621D01*
X162968047Y-149403526D02*
X163158524Y-149974955D01*
X162663285Y-149974955D01*
%TO.C,D41*%
X174207333Y-93091621D02*
X174207333Y-92291621D01*
X174016857Y-92291621D01*
X173902571Y-92329717D01*
X173826381Y-92405907D01*
X173788285Y-92482097D01*
X173750190Y-92634478D01*
X173750190Y-92748764D01*
X173788285Y-92901145D01*
X173826381Y-92977336D01*
X173902571Y-93053526D01*
X174016857Y-93091621D01*
X174207333Y-93091621D01*
X173064476Y-92558288D02*
X173064476Y-93091621D01*
X173254952Y-92253526D02*
X173445428Y-92824955D01*
X172950190Y-92824955D01*
X172226381Y-93091621D02*
X172683524Y-93091621D01*
X172454952Y-93091621D02*
X172454952Y-92291621D01*
X172531143Y-92405907D01*
X172607333Y-92482097D01*
X172683524Y-92520193D01*
%TO.C,D39*%
X198019833Y-131191621D02*
X198019833Y-130391621D01*
X197829357Y-130391621D01*
X197715071Y-130429717D01*
X197638881Y-130505907D01*
X197600785Y-130582097D01*
X197562690Y-130734478D01*
X197562690Y-130848764D01*
X197600785Y-131001145D01*
X197638881Y-131077336D01*
X197715071Y-131153526D01*
X197829357Y-131191621D01*
X198019833Y-131191621D01*
X197296024Y-130391621D02*
X196800785Y-130391621D01*
X197067452Y-130696383D01*
X196953166Y-130696383D01*
X196876976Y-130734478D01*
X196838881Y-130772574D01*
X196800785Y-130848764D01*
X196800785Y-131039240D01*
X196838881Y-131115431D01*
X196876976Y-131153526D01*
X196953166Y-131191621D01*
X197181738Y-131191621D01*
X197257928Y-131153526D01*
X197296024Y-131115431D01*
X196419833Y-131191621D02*
X196267452Y-131191621D01*
X196191262Y-131153526D01*
X196153166Y-131115431D01*
X196076976Y-131001145D01*
X196038881Y-130848764D01*
X196038881Y-130544002D01*
X196076976Y-130467812D01*
X196115071Y-130429717D01*
X196191262Y-130391621D01*
X196343643Y-130391621D01*
X196419833Y-130429717D01*
X196457928Y-130467812D01*
X196496024Y-130544002D01*
X196496024Y-130734478D01*
X196457928Y-130810669D01*
X196419833Y-130848764D01*
X196343643Y-130886859D01*
X196191262Y-130886859D01*
X196115071Y-130848764D01*
X196076976Y-130810669D01*
X196038881Y-130734478D01*
%TO.C,D38*%
X188494833Y-112141621D02*
X188494833Y-111341621D01*
X188304357Y-111341621D01*
X188190071Y-111379717D01*
X188113881Y-111455907D01*
X188075785Y-111532097D01*
X188037690Y-111684478D01*
X188037690Y-111798764D01*
X188075785Y-111951145D01*
X188113881Y-112027336D01*
X188190071Y-112103526D01*
X188304357Y-112141621D01*
X188494833Y-112141621D01*
X187771024Y-111341621D02*
X187275785Y-111341621D01*
X187542452Y-111646383D01*
X187428166Y-111646383D01*
X187351976Y-111684478D01*
X187313881Y-111722574D01*
X187275785Y-111798764D01*
X187275785Y-111989240D01*
X187313881Y-112065431D01*
X187351976Y-112103526D01*
X187428166Y-112141621D01*
X187656738Y-112141621D01*
X187732928Y-112103526D01*
X187771024Y-112065431D01*
X186818643Y-111684478D02*
X186894833Y-111646383D01*
X186932928Y-111608288D01*
X186971024Y-111532097D01*
X186971024Y-111494002D01*
X186932928Y-111417812D01*
X186894833Y-111379717D01*
X186818643Y-111341621D01*
X186666262Y-111341621D01*
X186590071Y-111379717D01*
X186551976Y-111417812D01*
X186513881Y-111494002D01*
X186513881Y-111532097D01*
X186551976Y-111608288D01*
X186590071Y-111646383D01*
X186666262Y-111684478D01*
X186818643Y-111684478D01*
X186894833Y-111722574D01*
X186932928Y-111760669D01*
X186971024Y-111836859D01*
X186971024Y-111989240D01*
X186932928Y-112065431D01*
X186894833Y-112103526D01*
X186818643Y-112141621D01*
X186666262Y-112141621D01*
X186590071Y-112103526D01*
X186551976Y-112065431D01*
X186513881Y-111989240D01*
X186513881Y-111836859D01*
X186551976Y-111760669D01*
X186590071Y-111722574D01*
X186666262Y-111684478D01*
%TO.C,D33*%
X212307333Y-93091621D02*
X212307333Y-92291621D01*
X212116857Y-92291621D01*
X212002571Y-92329717D01*
X211926381Y-92405907D01*
X211888285Y-92482097D01*
X211850190Y-92634478D01*
X211850190Y-92748764D01*
X211888285Y-92901145D01*
X211926381Y-92977336D01*
X212002571Y-93053526D01*
X212116857Y-93091621D01*
X212307333Y-93091621D01*
X211583524Y-92291621D02*
X211088285Y-92291621D01*
X211354952Y-92596383D01*
X211240666Y-92596383D01*
X211164476Y-92634478D01*
X211126381Y-92672574D01*
X211088285Y-92748764D01*
X211088285Y-92939240D01*
X211126381Y-93015431D01*
X211164476Y-93053526D01*
X211240666Y-93091621D01*
X211469238Y-93091621D01*
X211545428Y-93053526D01*
X211583524Y-93015431D01*
X210821619Y-92291621D02*
X210326381Y-92291621D01*
X210593047Y-92596383D01*
X210478762Y-92596383D01*
X210402571Y-92634478D01*
X210364476Y-92672574D01*
X210326381Y-92748764D01*
X210326381Y-92939240D01*
X210364476Y-93015431D01*
X210402571Y-93053526D01*
X210478762Y-93091621D01*
X210707333Y-93091621D01*
X210783524Y-93053526D01*
X210821619Y-93015431D01*
%TO.C,D2*%
X350038881Y-93091621D02*
X350038881Y-92291621D01*
X349848405Y-92291621D01*
X349734119Y-92329717D01*
X349657928Y-92405907D01*
X349619833Y-92482097D01*
X349581738Y-92634478D01*
X349581738Y-92748764D01*
X349619833Y-92901145D01*
X349657928Y-92977336D01*
X349734119Y-93053526D01*
X349848405Y-93091621D01*
X350038881Y-93091621D01*
X349276976Y-92367812D02*
X349238881Y-92329717D01*
X349162690Y-92291621D01*
X348972214Y-92291621D01*
X348896024Y-92329717D01*
X348857928Y-92367812D01*
X348819833Y-92444002D01*
X348819833Y-92520193D01*
X348857928Y-92634478D01*
X349315071Y-93091621D01*
X348819833Y-93091621D01*
%TO.C,D1*%
X354801381Y-74041621D02*
X354801381Y-73241621D01*
X354610905Y-73241621D01*
X354496619Y-73279717D01*
X354420428Y-73355907D01*
X354382333Y-73432097D01*
X354344238Y-73584478D01*
X354344238Y-73698764D01*
X354382333Y-73851145D01*
X354420428Y-73927336D01*
X354496619Y-74003526D01*
X354610905Y-74041621D01*
X354801381Y-74041621D01*
X353582333Y-74041621D02*
X354039476Y-74041621D01*
X353810905Y-74041621D02*
X353810905Y-73241621D01*
X353887095Y-73355907D01*
X353963285Y-73432097D01*
X354039476Y-73470193D01*
%TO.C,D4*%
X342895131Y-131191621D02*
X342895131Y-130391621D01*
X342704655Y-130391621D01*
X342590369Y-130429717D01*
X342514178Y-130505907D01*
X342476083Y-130582097D01*
X342437988Y-130734478D01*
X342437988Y-130848764D01*
X342476083Y-131001145D01*
X342514178Y-131077336D01*
X342590369Y-131153526D01*
X342704655Y-131191621D01*
X342895131Y-131191621D01*
X341752274Y-130658288D02*
X341752274Y-131191621D01*
X341942750Y-130353526D02*
X342133226Y-130924955D01*
X341637988Y-130924955D01*
%TO.C,D5*%
X352420131Y-150241621D02*
X352420131Y-149441621D01*
X352229655Y-149441621D01*
X352115369Y-149479717D01*
X352039178Y-149555907D01*
X352001083Y-149632097D01*
X351962988Y-149784478D01*
X351962988Y-149898764D01*
X352001083Y-150051145D01*
X352039178Y-150127336D01*
X352115369Y-150203526D01*
X352229655Y-150241621D01*
X352420131Y-150241621D01*
X351239178Y-149441621D02*
X351620131Y-149441621D01*
X351658226Y-149822574D01*
X351620131Y-149784478D01*
X351543940Y-149746383D01*
X351353464Y-149746383D01*
X351277274Y-149784478D01*
X351239178Y-149822574D01*
X351201083Y-149898764D01*
X351201083Y-150089240D01*
X351239178Y-150165431D01*
X351277274Y-150203526D01*
X351353464Y-150241621D01*
X351543940Y-150241621D01*
X351620131Y-150203526D01*
X351658226Y-150165431D01*
%TO.C,D3*%
X347657631Y-112141621D02*
X347657631Y-111341621D01*
X347467155Y-111341621D01*
X347352869Y-111379717D01*
X347276678Y-111455907D01*
X347238583Y-111532097D01*
X347200488Y-111684478D01*
X347200488Y-111798764D01*
X347238583Y-111951145D01*
X347276678Y-112027336D01*
X347352869Y-112103526D01*
X347467155Y-112141621D01*
X347657631Y-112141621D01*
X346933821Y-111341621D02*
X346438583Y-111341621D01*
X346705250Y-111646383D01*
X346590964Y-111646383D01*
X346514774Y-111684478D01*
X346476678Y-111722574D01*
X346438583Y-111798764D01*
X346438583Y-111989240D01*
X346476678Y-112065431D01*
X346514774Y-112103526D01*
X346590964Y-112141621D01*
X346819535Y-112141621D01*
X346895726Y-112103526D01*
X346933821Y-112065431D01*
%TO.C,D23*%
X259932333Y-74041621D02*
X259932333Y-73241621D01*
X259741857Y-73241621D01*
X259627571Y-73279717D01*
X259551381Y-73355907D01*
X259513285Y-73432097D01*
X259475190Y-73584478D01*
X259475190Y-73698764D01*
X259513285Y-73851145D01*
X259551381Y-73927336D01*
X259627571Y-74003526D01*
X259741857Y-74041621D01*
X259932333Y-74041621D01*
X259170428Y-73317812D02*
X259132333Y-73279717D01*
X259056143Y-73241621D01*
X258865666Y-73241621D01*
X258789476Y-73279717D01*
X258751381Y-73317812D01*
X258713285Y-73394002D01*
X258713285Y-73470193D01*
X258751381Y-73584478D01*
X259208524Y-74041621D01*
X258713285Y-74041621D01*
X258446619Y-73241621D02*
X257951381Y-73241621D01*
X258218047Y-73546383D01*
X258103762Y-73546383D01*
X258027571Y-73584478D01*
X257989476Y-73622574D01*
X257951381Y-73698764D01*
X257951381Y-73889240D01*
X257989476Y-73965431D01*
X258027571Y-74003526D01*
X258103762Y-74041621D01*
X258332333Y-74041621D01*
X258408524Y-74003526D01*
X258446619Y-73965431D01*
%TO.C,D31*%
X233738583Y-150241621D02*
X233738583Y-149441621D01*
X233548107Y-149441621D01*
X233433821Y-149479717D01*
X233357631Y-149555907D01*
X233319535Y-149632097D01*
X233281440Y-149784478D01*
X233281440Y-149898764D01*
X233319535Y-150051145D01*
X233357631Y-150127336D01*
X233433821Y-150203526D01*
X233548107Y-150241621D01*
X233738583Y-150241621D01*
X233014774Y-149441621D02*
X232519535Y-149441621D01*
X232786202Y-149746383D01*
X232671916Y-149746383D01*
X232595726Y-149784478D01*
X232557631Y-149822574D01*
X232519535Y-149898764D01*
X232519535Y-150089240D01*
X232557631Y-150165431D01*
X232595726Y-150203526D01*
X232671916Y-150241621D01*
X232900488Y-150241621D01*
X232976678Y-150203526D01*
X233014774Y-150165431D01*
X231757631Y-150241621D02*
X232214774Y-150241621D01*
X231986202Y-150241621D02*
X231986202Y-149441621D01*
X232062393Y-149555907D01*
X232138583Y-149632097D01*
X232214774Y-149670193D01*
%TO.C,D30*%
X236119833Y-131191621D02*
X236119833Y-130391621D01*
X235929357Y-130391621D01*
X235815071Y-130429717D01*
X235738881Y-130505907D01*
X235700785Y-130582097D01*
X235662690Y-130734478D01*
X235662690Y-130848764D01*
X235700785Y-131001145D01*
X235738881Y-131077336D01*
X235815071Y-131153526D01*
X235929357Y-131191621D01*
X236119833Y-131191621D01*
X235396024Y-130391621D02*
X234900785Y-130391621D01*
X235167452Y-130696383D01*
X235053166Y-130696383D01*
X234976976Y-130734478D01*
X234938881Y-130772574D01*
X234900785Y-130848764D01*
X234900785Y-131039240D01*
X234938881Y-131115431D01*
X234976976Y-131153526D01*
X235053166Y-131191621D01*
X235281738Y-131191621D01*
X235357928Y-131153526D01*
X235396024Y-131115431D01*
X234405547Y-130391621D02*
X234329357Y-130391621D01*
X234253166Y-130429717D01*
X234215071Y-130467812D01*
X234176976Y-130544002D01*
X234138881Y-130696383D01*
X234138881Y-130886859D01*
X234176976Y-131039240D01*
X234215071Y-131115431D01*
X234253166Y-131153526D01*
X234329357Y-131191621D01*
X234405547Y-131191621D01*
X234481738Y-131153526D01*
X234519833Y-131115431D01*
X234557928Y-131039240D01*
X234596024Y-130886859D01*
X234596024Y-130696383D01*
X234557928Y-130544002D01*
X234519833Y-130467812D01*
X234481738Y-130429717D01*
X234405547Y-130391621D01*
%TO.C,D29*%
X226594833Y-112141621D02*
X226594833Y-111341621D01*
X226404357Y-111341621D01*
X226290071Y-111379717D01*
X226213881Y-111455907D01*
X226175785Y-111532097D01*
X226137690Y-111684478D01*
X226137690Y-111798764D01*
X226175785Y-111951145D01*
X226213881Y-112027336D01*
X226290071Y-112103526D01*
X226404357Y-112141621D01*
X226594833Y-112141621D01*
X225832928Y-111417812D02*
X225794833Y-111379717D01*
X225718643Y-111341621D01*
X225528166Y-111341621D01*
X225451976Y-111379717D01*
X225413881Y-111417812D01*
X225375785Y-111494002D01*
X225375785Y-111570193D01*
X225413881Y-111684478D01*
X225871024Y-112141621D01*
X225375785Y-112141621D01*
X224994833Y-112141621D02*
X224842452Y-112141621D01*
X224766262Y-112103526D01*
X224728166Y-112065431D01*
X224651976Y-111951145D01*
X224613881Y-111798764D01*
X224613881Y-111494002D01*
X224651976Y-111417812D01*
X224690071Y-111379717D01*
X224766262Y-111341621D01*
X224918643Y-111341621D01*
X224994833Y-111379717D01*
X225032928Y-111417812D01*
X225071024Y-111494002D01*
X225071024Y-111684478D01*
X225032928Y-111760669D01*
X224994833Y-111798764D01*
X224918643Y-111836859D01*
X224766262Y-111836859D01*
X224690071Y-111798764D01*
X224651976Y-111760669D01*
X224613881Y-111684478D01*
%TO.C,D28*%
X231357333Y-93091621D02*
X231357333Y-92291621D01*
X231166857Y-92291621D01*
X231052571Y-92329717D01*
X230976381Y-92405907D01*
X230938285Y-92482097D01*
X230900190Y-92634478D01*
X230900190Y-92748764D01*
X230938285Y-92901145D01*
X230976381Y-92977336D01*
X231052571Y-93053526D01*
X231166857Y-93091621D01*
X231357333Y-93091621D01*
X230595428Y-92367812D02*
X230557333Y-92329717D01*
X230481143Y-92291621D01*
X230290666Y-92291621D01*
X230214476Y-92329717D01*
X230176381Y-92367812D01*
X230138285Y-92444002D01*
X230138285Y-92520193D01*
X230176381Y-92634478D01*
X230633524Y-93091621D01*
X230138285Y-93091621D01*
X229681143Y-92634478D02*
X229757333Y-92596383D01*
X229795428Y-92558288D01*
X229833524Y-92482097D01*
X229833524Y-92444002D01*
X229795428Y-92367812D01*
X229757333Y-92329717D01*
X229681143Y-92291621D01*
X229528762Y-92291621D01*
X229452571Y-92329717D01*
X229414476Y-92367812D01*
X229376381Y-92444002D01*
X229376381Y-92482097D01*
X229414476Y-92558288D01*
X229452571Y-92596383D01*
X229528762Y-92634478D01*
X229681143Y-92634478D01*
X229757333Y-92672574D01*
X229795428Y-92710669D01*
X229833524Y-92786859D01*
X229833524Y-92939240D01*
X229795428Y-93015431D01*
X229757333Y-93053526D01*
X229681143Y-93091621D01*
X229528762Y-93091621D01*
X229452571Y-93053526D01*
X229414476Y-93015431D01*
X229376381Y-92939240D01*
X229376381Y-92786859D01*
X229414476Y-92710669D01*
X229452571Y-92672574D01*
X229528762Y-92634478D01*
%TO.C,D19*%
X278982333Y-74041621D02*
X278982333Y-73241621D01*
X278791857Y-73241621D01*
X278677571Y-73279717D01*
X278601381Y-73355907D01*
X278563285Y-73432097D01*
X278525190Y-73584478D01*
X278525190Y-73698764D01*
X278563285Y-73851145D01*
X278601381Y-73927336D01*
X278677571Y-74003526D01*
X278791857Y-74041621D01*
X278982333Y-74041621D01*
X277763285Y-74041621D02*
X278220428Y-74041621D01*
X277991857Y-74041621D02*
X277991857Y-73241621D01*
X278068047Y-73355907D01*
X278144238Y-73432097D01*
X278220428Y-73470193D01*
X277382333Y-74041621D02*
X277229952Y-74041621D01*
X277153762Y-74003526D01*
X277115666Y-73965431D01*
X277039476Y-73851145D01*
X277001381Y-73698764D01*
X277001381Y-73394002D01*
X277039476Y-73317812D01*
X277077571Y-73279717D01*
X277153762Y-73241621D01*
X277306143Y-73241621D01*
X277382333Y-73279717D01*
X277420428Y-73317812D01*
X277458524Y-73394002D01*
X277458524Y-73584478D01*
X277420428Y-73660669D01*
X277382333Y-73698764D01*
X277306143Y-73736859D01*
X277153762Y-73736859D01*
X277077571Y-73698764D01*
X277039476Y-73660669D01*
X277001381Y-73584478D01*
%TO.C,D27*%
X240882333Y-74041621D02*
X240882333Y-73241621D01*
X240691857Y-73241621D01*
X240577571Y-73279717D01*
X240501381Y-73355907D01*
X240463285Y-73432097D01*
X240425190Y-73584478D01*
X240425190Y-73698764D01*
X240463285Y-73851145D01*
X240501381Y-73927336D01*
X240577571Y-74003526D01*
X240691857Y-74041621D01*
X240882333Y-74041621D01*
X240120428Y-73317812D02*
X240082333Y-73279717D01*
X240006143Y-73241621D01*
X239815666Y-73241621D01*
X239739476Y-73279717D01*
X239701381Y-73317812D01*
X239663285Y-73394002D01*
X239663285Y-73470193D01*
X239701381Y-73584478D01*
X240158524Y-74041621D01*
X239663285Y-74041621D01*
X239396619Y-73241621D02*
X238863285Y-73241621D01*
X239206143Y-74041621D01*
%TO.C,D26*%
X255169833Y-131191621D02*
X255169833Y-130391621D01*
X254979357Y-130391621D01*
X254865071Y-130429717D01*
X254788881Y-130505907D01*
X254750785Y-130582097D01*
X254712690Y-130734478D01*
X254712690Y-130848764D01*
X254750785Y-131001145D01*
X254788881Y-131077336D01*
X254865071Y-131153526D01*
X254979357Y-131191621D01*
X255169833Y-131191621D01*
X254407928Y-130467812D02*
X254369833Y-130429717D01*
X254293643Y-130391621D01*
X254103166Y-130391621D01*
X254026976Y-130429717D01*
X253988881Y-130467812D01*
X253950785Y-130544002D01*
X253950785Y-130620193D01*
X253988881Y-130734478D01*
X254446024Y-131191621D01*
X253950785Y-131191621D01*
X253265071Y-130391621D02*
X253417452Y-130391621D01*
X253493643Y-130429717D01*
X253531738Y-130467812D01*
X253607928Y-130582097D01*
X253646024Y-130734478D01*
X253646024Y-131039240D01*
X253607928Y-131115431D01*
X253569833Y-131153526D01*
X253493643Y-131191621D01*
X253341262Y-131191621D01*
X253265071Y-131153526D01*
X253226976Y-131115431D01*
X253188881Y-131039240D01*
X253188881Y-130848764D01*
X253226976Y-130772574D01*
X253265071Y-130734478D01*
X253341262Y-130696383D01*
X253493643Y-130696383D01*
X253569833Y-130734478D01*
X253607928Y-130772574D01*
X253646024Y-130848764D01*
%TO.C,D24*%
X250407333Y-93091621D02*
X250407333Y-92291621D01*
X250216857Y-92291621D01*
X250102571Y-92329717D01*
X250026381Y-92405907D01*
X249988285Y-92482097D01*
X249950190Y-92634478D01*
X249950190Y-92748764D01*
X249988285Y-92901145D01*
X250026381Y-92977336D01*
X250102571Y-93053526D01*
X250216857Y-93091621D01*
X250407333Y-93091621D01*
X249645428Y-92367812D02*
X249607333Y-92329717D01*
X249531143Y-92291621D01*
X249340666Y-92291621D01*
X249264476Y-92329717D01*
X249226381Y-92367812D01*
X249188285Y-92444002D01*
X249188285Y-92520193D01*
X249226381Y-92634478D01*
X249683524Y-93091621D01*
X249188285Y-93091621D01*
X248502571Y-92558288D02*
X248502571Y-93091621D01*
X248693047Y-92253526D02*
X248883524Y-92824955D01*
X248388285Y-92824955D01*
%TO.C,D22*%
X274219833Y-131191621D02*
X274219833Y-130391621D01*
X274029357Y-130391621D01*
X273915071Y-130429717D01*
X273838881Y-130505907D01*
X273800785Y-130582097D01*
X273762690Y-130734478D01*
X273762690Y-130848764D01*
X273800785Y-131001145D01*
X273838881Y-131077336D01*
X273915071Y-131153526D01*
X274029357Y-131191621D01*
X274219833Y-131191621D01*
X273457928Y-130467812D02*
X273419833Y-130429717D01*
X273343643Y-130391621D01*
X273153166Y-130391621D01*
X273076976Y-130429717D01*
X273038881Y-130467812D01*
X273000785Y-130544002D01*
X273000785Y-130620193D01*
X273038881Y-130734478D01*
X273496024Y-131191621D01*
X273000785Y-131191621D01*
X272696024Y-130467812D02*
X272657928Y-130429717D01*
X272581738Y-130391621D01*
X272391262Y-130391621D01*
X272315071Y-130429717D01*
X272276976Y-130467812D01*
X272238881Y-130544002D01*
X272238881Y-130620193D01*
X272276976Y-130734478D01*
X272734119Y-131191621D01*
X272238881Y-131191621D01*
%TO.C,D16*%
X288507333Y-93091621D02*
X288507333Y-92291621D01*
X288316857Y-92291621D01*
X288202571Y-92329717D01*
X288126381Y-92405907D01*
X288088285Y-92482097D01*
X288050190Y-92634478D01*
X288050190Y-92748764D01*
X288088285Y-92901145D01*
X288126381Y-92977336D01*
X288202571Y-93053526D01*
X288316857Y-93091621D01*
X288507333Y-93091621D01*
X287288285Y-93091621D02*
X287745428Y-93091621D01*
X287516857Y-93091621D02*
X287516857Y-92291621D01*
X287593047Y-92405907D01*
X287669238Y-92482097D01*
X287745428Y-92520193D01*
X286602571Y-92291621D02*
X286754952Y-92291621D01*
X286831143Y-92329717D01*
X286869238Y-92367812D01*
X286945428Y-92482097D01*
X286983524Y-92634478D01*
X286983524Y-92939240D01*
X286945428Y-93015431D01*
X286907333Y-93053526D01*
X286831143Y-93091621D01*
X286678762Y-93091621D01*
X286602571Y-93053526D01*
X286564476Y-93015431D01*
X286526381Y-92939240D01*
X286526381Y-92748764D01*
X286564476Y-92672574D01*
X286602571Y-92634478D01*
X286678762Y-92596383D01*
X286831143Y-92596383D01*
X286907333Y-92634478D01*
X286945428Y-92672574D01*
X286983524Y-92748764D01*
%TO.C,D15*%
X298032333Y-74041621D02*
X298032333Y-73241621D01*
X297841857Y-73241621D01*
X297727571Y-73279717D01*
X297651381Y-73355907D01*
X297613285Y-73432097D01*
X297575190Y-73584478D01*
X297575190Y-73698764D01*
X297613285Y-73851145D01*
X297651381Y-73927336D01*
X297727571Y-74003526D01*
X297841857Y-74041621D01*
X298032333Y-74041621D01*
X296813285Y-74041621D02*
X297270428Y-74041621D01*
X297041857Y-74041621D02*
X297041857Y-73241621D01*
X297118047Y-73355907D01*
X297194238Y-73432097D01*
X297270428Y-73470193D01*
X296089476Y-73241621D02*
X296470428Y-73241621D01*
X296508524Y-73622574D01*
X296470428Y-73584478D01*
X296394238Y-73546383D01*
X296203762Y-73546383D01*
X296127571Y-73584478D01*
X296089476Y-73622574D01*
X296051381Y-73698764D01*
X296051381Y-73889240D01*
X296089476Y-73965431D01*
X296127571Y-74003526D01*
X296203762Y-74041621D01*
X296394238Y-74041621D01*
X296470428Y-74003526D01*
X296508524Y-73965431D01*
%TO.C,D18*%
X293269833Y-131191621D02*
X293269833Y-130391621D01*
X293079357Y-130391621D01*
X292965071Y-130429717D01*
X292888881Y-130505907D01*
X292850785Y-130582097D01*
X292812690Y-130734478D01*
X292812690Y-130848764D01*
X292850785Y-131001145D01*
X292888881Y-131077336D01*
X292965071Y-131153526D01*
X293079357Y-131191621D01*
X293269833Y-131191621D01*
X292050785Y-131191621D02*
X292507928Y-131191621D01*
X292279357Y-131191621D02*
X292279357Y-130391621D01*
X292355547Y-130505907D01*
X292431738Y-130582097D01*
X292507928Y-130620193D01*
X291593643Y-130734478D02*
X291669833Y-130696383D01*
X291707928Y-130658288D01*
X291746024Y-130582097D01*
X291746024Y-130544002D01*
X291707928Y-130467812D01*
X291669833Y-130429717D01*
X291593643Y-130391621D01*
X291441262Y-130391621D01*
X291365071Y-130429717D01*
X291326976Y-130467812D01*
X291288881Y-130544002D01*
X291288881Y-130582097D01*
X291326976Y-130658288D01*
X291365071Y-130696383D01*
X291441262Y-130734478D01*
X291593643Y-130734478D01*
X291669833Y-130772574D01*
X291707928Y-130810669D01*
X291746024Y-130886859D01*
X291746024Y-131039240D01*
X291707928Y-131115431D01*
X291669833Y-131153526D01*
X291593643Y-131191621D01*
X291441262Y-131191621D01*
X291365071Y-131153526D01*
X291326976Y-131115431D01*
X291288881Y-131039240D01*
X291288881Y-130886859D01*
X291326976Y-130810669D01*
X291365071Y-130772574D01*
X291441262Y-130734478D01*
%TO.C,D21*%
X264694833Y-112141621D02*
X264694833Y-111341621D01*
X264504357Y-111341621D01*
X264390071Y-111379717D01*
X264313881Y-111455907D01*
X264275785Y-111532097D01*
X264237690Y-111684478D01*
X264237690Y-111798764D01*
X264275785Y-111951145D01*
X264313881Y-112027336D01*
X264390071Y-112103526D01*
X264504357Y-112141621D01*
X264694833Y-112141621D01*
X263932928Y-111417812D02*
X263894833Y-111379717D01*
X263818643Y-111341621D01*
X263628166Y-111341621D01*
X263551976Y-111379717D01*
X263513881Y-111417812D01*
X263475785Y-111494002D01*
X263475785Y-111570193D01*
X263513881Y-111684478D01*
X263971024Y-112141621D01*
X263475785Y-112141621D01*
X262713881Y-112141621D02*
X263171024Y-112141621D01*
X262942452Y-112141621D02*
X262942452Y-111341621D01*
X263018643Y-111455907D01*
X263094833Y-111532097D01*
X263171024Y-111570193D01*
%TO.C,D20*%
X269457333Y-93091621D02*
X269457333Y-92291621D01*
X269266857Y-92291621D01*
X269152571Y-92329717D01*
X269076381Y-92405907D01*
X269038285Y-92482097D01*
X269000190Y-92634478D01*
X269000190Y-92748764D01*
X269038285Y-92901145D01*
X269076381Y-92977336D01*
X269152571Y-93053526D01*
X269266857Y-93091621D01*
X269457333Y-93091621D01*
X268695428Y-92367812D02*
X268657333Y-92329717D01*
X268581143Y-92291621D01*
X268390666Y-92291621D01*
X268314476Y-92329717D01*
X268276381Y-92367812D01*
X268238285Y-92444002D01*
X268238285Y-92520193D01*
X268276381Y-92634478D01*
X268733524Y-93091621D01*
X268238285Y-93091621D01*
X267743047Y-92291621D02*
X267666857Y-92291621D01*
X267590666Y-92329717D01*
X267552571Y-92367812D01*
X267514476Y-92444002D01*
X267476381Y-92596383D01*
X267476381Y-92786859D01*
X267514476Y-92939240D01*
X267552571Y-93015431D01*
X267590666Y-93053526D01*
X267666857Y-93091621D01*
X267743047Y-93091621D01*
X267819238Y-93053526D01*
X267857333Y-93015431D01*
X267895428Y-92939240D01*
X267933524Y-92786859D01*
X267933524Y-92596383D01*
X267895428Y-92444002D01*
X267857333Y-92367812D01*
X267819238Y-92329717D01*
X267743047Y-92291621D01*
%TO.C,D17*%
X283744833Y-112141621D02*
X283744833Y-111341621D01*
X283554357Y-111341621D01*
X283440071Y-111379717D01*
X283363881Y-111455907D01*
X283325785Y-111532097D01*
X283287690Y-111684478D01*
X283287690Y-111798764D01*
X283325785Y-111951145D01*
X283363881Y-112027336D01*
X283440071Y-112103526D01*
X283554357Y-112141621D01*
X283744833Y-112141621D01*
X282525785Y-112141621D02*
X282982928Y-112141621D01*
X282754357Y-112141621D02*
X282754357Y-111341621D01*
X282830547Y-111455907D01*
X282906738Y-111532097D01*
X282982928Y-111570193D01*
X282259119Y-111341621D02*
X281725785Y-111341621D01*
X282068643Y-112141621D01*
%TO.C,D32*%
X221832333Y-74041621D02*
X221832333Y-73241621D01*
X221641857Y-73241621D01*
X221527571Y-73279717D01*
X221451381Y-73355907D01*
X221413285Y-73432097D01*
X221375190Y-73584478D01*
X221375190Y-73698764D01*
X221413285Y-73851145D01*
X221451381Y-73927336D01*
X221527571Y-74003526D01*
X221641857Y-74041621D01*
X221832333Y-74041621D01*
X221108524Y-73241621D02*
X220613285Y-73241621D01*
X220879952Y-73546383D01*
X220765666Y-73546383D01*
X220689476Y-73584478D01*
X220651381Y-73622574D01*
X220613285Y-73698764D01*
X220613285Y-73889240D01*
X220651381Y-73965431D01*
X220689476Y-74003526D01*
X220765666Y-74041621D01*
X220994238Y-74041621D01*
X221070428Y-74003526D01*
X221108524Y-73965431D01*
X220308524Y-73317812D02*
X220270428Y-73279717D01*
X220194238Y-73241621D01*
X220003762Y-73241621D01*
X219927571Y-73279717D01*
X219889476Y-73317812D01*
X219851381Y-73394002D01*
X219851381Y-73470193D01*
X219889476Y-73584478D01*
X220346619Y-74041621D01*
X219851381Y-74041621D01*
%TO.C,D25*%
X245644833Y-112141621D02*
X245644833Y-111341621D01*
X245454357Y-111341621D01*
X245340071Y-111379717D01*
X245263881Y-111455907D01*
X245225785Y-111532097D01*
X245187690Y-111684478D01*
X245187690Y-111798764D01*
X245225785Y-111951145D01*
X245263881Y-112027336D01*
X245340071Y-112103526D01*
X245454357Y-112141621D01*
X245644833Y-112141621D01*
X244882928Y-111417812D02*
X244844833Y-111379717D01*
X244768643Y-111341621D01*
X244578166Y-111341621D01*
X244501976Y-111379717D01*
X244463881Y-111417812D01*
X244425785Y-111494002D01*
X244425785Y-111570193D01*
X244463881Y-111684478D01*
X244921024Y-112141621D01*
X244425785Y-112141621D01*
X243701976Y-111341621D02*
X244082928Y-111341621D01*
X244121024Y-111722574D01*
X244082928Y-111684478D01*
X244006738Y-111646383D01*
X243816262Y-111646383D01*
X243740071Y-111684478D01*
X243701976Y-111722574D01*
X243663881Y-111798764D01*
X243663881Y-111989240D01*
X243701976Y-112065431D01*
X243740071Y-112103526D01*
X243816262Y-112141621D01*
X244006738Y-112141621D01*
X244082928Y-112103526D01*
X244121024Y-112065431D01*
%TO.C,D55*%
X126582333Y-74041621D02*
X126582333Y-73241621D01*
X126391857Y-73241621D01*
X126277571Y-73279717D01*
X126201381Y-73355907D01*
X126163285Y-73432097D01*
X126125190Y-73584478D01*
X126125190Y-73698764D01*
X126163285Y-73851145D01*
X126201381Y-73927336D01*
X126277571Y-74003526D01*
X126391857Y-74041621D01*
X126582333Y-74041621D01*
X125401381Y-73241621D02*
X125782333Y-73241621D01*
X125820428Y-73622574D01*
X125782333Y-73584478D01*
X125706143Y-73546383D01*
X125515666Y-73546383D01*
X125439476Y-73584478D01*
X125401381Y-73622574D01*
X125363285Y-73698764D01*
X125363285Y-73889240D01*
X125401381Y-73965431D01*
X125439476Y-74003526D01*
X125515666Y-74041621D01*
X125706143Y-74041621D01*
X125782333Y-74003526D01*
X125820428Y-73965431D01*
X124639476Y-73241621D02*
X125020428Y-73241621D01*
X125058524Y-73622574D01*
X125020428Y-73584478D01*
X124944238Y-73546383D01*
X124753762Y-73546383D01*
X124677571Y-73584478D01*
X124639476Y-73622574D01*
X124601381Y-73698764D01*
X124601381Y-73889240D01*
X124639476Y-73965431D01*
X124677571Y-74003526D01*
X124753762Y-74041621D01*
X124944238Y-74041621D01*
X125020428Y-74003526D01*
X125058524Y-73965431D01*
%TO.C,D53*%
X140869833Y-131191621D02*
X140869833Y-130391621D01*
X140679357Y-130391621D01*
X140565071Y-130429717D01*
X140488881Y-130505907D01*
X140450785Y-130582097D01*
X140412690Y-130734478D01*
X140412690Y-130848764D01*
X140450785Y-131001145D01*
X140488881Y-131077336D01*
X140565071Y-131153526D01*
X140679357Y-131191621D01*
X140869833Y-131191621D01*
X139688881Y-130391621D02*
X140069833Y-130391621D01*
X140107928Y-130772574D01*
X140069833Y-130734478D01*
X139993643Y-130696383D01*
X139803166Y-130696383D01*
X139726976Y-130734478D01*
X139688881Y-130772574D01*
X139650785Y-130848764D01*
X139650785Y-131039240D01*
X139688881Y-131115431D01*
X139726976Y-131153526D01*
X139803166Y-131191621D01*
X139993643Y-131191621D01*
X140069833Y-131153526D01*
X140107928Y-131115431D01*
X139384119Y-130391621D02*
X138888881Y-130391621D01*
X139155547Y-130696383D01*
X139041262Y-130696383D01*
X138965071Y-130734478D01*
X138926976Y-130772574D01*
X138888881Y-130848764D01*
X138888881Y-131039240D01*
X138926976Y-131115431D01*
X138965071Y-131153526D01*
X139041262Y-131191621D01*
X139269833Y-131191621D01*
X139346024Y-131153526D01*
X139384119Y-131115431D01*
%TO.C,D63*%
X88482333Y-150241621D02*
X88482333Y-149441621D01*
X88291857Y-149441621D01*
X88177571Y-149479717D01*
X88101381Y-149555907D01*
X88063285Y-149632097D01*
X88025190Y-149784478D01*
X88025190Y-149898764D01*
X88063285Y-150051145D01*
X88101381Y-150127336D01*
X88177571Y-150203526D01*
X88291857Y-150241621D01*
X88482333Y-150241621D01*
X87339476Y-149441621D02*
X87491857Y-149441621D01*
X87568047Y-149479717D01*
X87606143Y-149517812D01*
X87682333Y-149632097D01*
X87720428Y-149784478D01*
X87720428Y-150089240D01*
X87682333Y-150165431D01*
X87644238Y-150203526D01*
X87568047Y-150241621D01*
X87415666Y-150241621D01*
X87339476Y-150203526D01*
X87301381Y-150165431D01*
X87263285Y-150089240D01*
X87263285Y-149898764D01*
X87301381Y-149822574D01*
X87339476Y-149784478D01*
X87415666Y-149746383D01*
X87568047Y-149746383D01*
X87644238Y-149784478D01*
X87682333Y-149822574D01*
X87720428Y-149898764D01*
X86996619Y-149441621D02*
X86501381Y-149441621D01*
X86768047Y-149746383D01*
X86653762Y-149746383D01*
X86577571Y-149784478D01*
X86539476Y-149822574D01*
X86501381Y-149898764D01*
X86501381Y-150089240D01*
X86539476Y-150165431D01*
X86577571Y-150203526D01*
X86653762Y-150241621D01*
X86882333Y-150241621D01*
X86958524Y-150203526D01*
X86996619Y-150165431D01*
%TO.C,D65*%
X69432333Y-93091621D02*
X69432333Y-92291621D01*
X69241857Y-92291621D01*
X69127571Y-92329717D01*
X69051381Y-92405907D01*
X69013285Y-92482097D01*
X68975190Y-92634478D01*
X68975190Y-92748764D01*
X69013285Y-92901145D01*
X69051381Y-92977336D01*
X69127571Y-93053526D01*
X69241857Y-93091621D01*
X69432333Y-93091621D01*
X68289476Y-92291621D02*
X68441857Y-92291621D01*
X68518047Y-92329717D01*
X68556143Y-92367812D01*
X68632333Y-92482097D01*
X68670428Y-92634478D01*
X68670428Y-92939240D01*
X68632333Y-93015431D01*
X68594238Y-93053526D01*
X68518047Y-93091621D01*
X68365666Y-93091621D01*
X68289476Y-93053526D01*
X68251381Y-93015431D01*
X68213285Y-92939240D01*
X68213285Y-92748764D01*
X68251381Y-92672574D01*
X68289476Y-92634478D01*
X68365666Y-92596383D01*
X68518047Y-92596383D01*
X68594238Y-92634478D01*
X68632333Y-92672574D01*
X68670428Y-92748764D01*
X67489476Y-92291621D02*
X67870428Y-92291621D01*
X67908524Y-92672574D01*
X67870428Y-92634478D01*
X67794238Y-92596383D01*
X67603762Y-92596383D01*
X67527571Y-92634478D01*
X67489476Y-92672574D01*
X67451381Y-92748764D01*
X67451381Y-92939240D01*
X67489476Y-93015431D01*
X67527571Y-93053526D01*
X67603762Y-93091621D01*
X67794238Y-93091621D01*
X67870428Y-93053526D01*
X67908524Y-93015431D01*
%TO.C,D68*%
X69432333Y-150241621D02*
X69432333Y-149441621D01*
X69241857Y-149441621D01*
X69127571Y-149479717D01*
X69051381Y-149555907D01*
X69013285Y-149632097D01*
X68975190Y-149784478D01*
X68975190Y-149898764D01*
X69013285Y-150051145D01*
X69051381Y-150127336D01*
X69127571Y-150203526D01*
X69241857Y-150241621D01*
X69432333Y-150241621D01*
X68289476Y-149441621D02*
X68441857Y-149441621D01*
X68518047Y-149479717D01*
X68556143Y-149517812D01*
X68632333Y-149632097D01*
X68670428Y-149784478D01*
X68670428Y-150089240D01*
X68632333Y-150165431D01*
X68594238Y-150203526D01*
X68518047Y-150241621D01*
X68365666Y-150241621D01*
X68289476Y-150203526D01*
X68251381Y-150165431D01*
X68213285Y-150089240D01*
X68213285Y-149898764D01*
X68251381Y-149822574D01*
X68289476Y-149784478D01*
X68365666Y-149746383D01*
X68518047Y-149746383D01*
X68594238Y-149784478D01*
X68632333Y-149822574D01*
X68670428Y-149898764D01*
X67756143Y-149784478D02*
X67832333Y-149746383D01*
X67870428Y-149708288D01*
X67908524Y-149632097D01*
X67908524Y-149594002D01*
X67870428Y-149517812D01*
X67832333Y-149479717D01*
X67756143Y-149441621D01*
X67603762Y-149441621D01*
X67527571Y-149479717D01*
X67489476Y-149517812D01*
X67451381Y-149594002D01*
X67451381Y-149632097D01*
X67489476Y-149708288D01*
X67527571Y-149746383D01*
X67603762Y-149784478D01*
X67756143Y-149784478D01*
X67832333Y-149822574D01*
X67870428Y-149860669D01*
X67908524Y-149936859D01*
X67908524Y-150089240D01*
X67870428Y-150165431D01*
X67832333Y-150203526D01*
X67756143Y-150241621D01*
X67603762Y-150241621D01*
X67527571Y-150203526D01*
X67489476Y-150165431D01*
X67451381Y-150089240D01*
X67451381Y-149936859D01*
X67489476Y-149860669D01*
X67527571Y-149822574D01*
X67603762Y-149784478D01*
%TO.C,D61*%
X100388583Y-112141621D02*
X100388583Y-111341621D01*
X100198107Y-111341621D01*
X100083821Y-111379717D01*
X100007631Y-111455907D01*
X99969535Y-111532097D01*
X99931440Y-111684478D01*
X99931440Y-111798764D01*
X99969535Y-111951145D01*
X100007631Y-112027336D01*
X100083821Y-112103526D01*
X100198107Y-112141621D01*
X100388583Y-112141621D01*
X99245726Y-111341621D02*
X99398107Y-111341621D01*
X99474297Y-111379717D01*
X99512393Y-111417812D01*
X99588583Y-111532097D01*
X99626678Y-111684478D01*
X99626678Y-111989240D01*
X99588583Y-112065431D01*
X99550488Y-112103526D01*
X99474297Y-112141621D01*
X99321916Y-112141621D01*
X99245726Y-112103526D01*
X99207631Y-112065431D01*
X99169535Y-111989240D01*
X99169535Y-111798764D01*
X99207631Y-111722574D01*
X99245726Y-111684478D01*
X99321916Y-111646383D01*
X99474297Y-111646383D01*
X99550488Y-111684478D01*
X99588583Y-111722574D01*
X99626678Y-111798764D01*
X98407631Y-112141621D02*
X98864774Y-112141621D01*
X98636202Y-112141621D02*
X98636202Y-111341621D01*
X98712393Y-111455907D01*
X98788583Y-111532097D01*
X98864774Y-111570193D01*
%TO.C,D62*%
X88482333Y-131191621D02*
X88482333Y-130391621D01*
X88291857Y-130391621D01*
X88177571Y-130429717D01*
X88101381Y-130505907D01*
X88063285Y-130582097D01*
X88025190Y-130734478D01*
X88025190Y-130848764D01*
X88063285Y-131001145D01*
X88101381Y-131077336D01*
X88177571Y-131153526D01*
X88291857Y-131191621D01*
X88482333Y-131191621D01*
X87339476Y-130391621D02*
X87491857Y-130391621D01*
X87568047Y-130429717D01*
X87606143Y-130467812D01*
X87682333Y-130582097D01*
X87720428Y-130734478D01*
X87720428Y-131039240D01*
X87682333Y-131115431D01*
X87644238Y-131153526D01*
X87568047Y-131191621D01*
X87415666Y-131191621D01*
X87339476Y-131153526D01*
X87301381Y-131115431D01*
X87263285Y-131039240D01*
X87263285Y-130848764D01*
X87301381Y-130772574D01*
X87339476Y-130734478D01*
X87415666Y-130696383D01*
X87568047Y-130696383D01*
X87644238Y-130734478D01*
X87682333Y-130772574D01*
X87720428Y-130848764D01*
X86958524Y-130467812D02*
X86920428Y-130429717D01*
X86844238Y-130391621D01*
X86653762Y-130391621D01*
X86577571Y-130429717D01*
X86539476Y-130467812D01*
X86501381Y-130544002D01*
X86501381Y-130620193D01*
X86539476Y-130734478D01*
X86996619Y-131191621D01*
X86501381Y-131191621D01*
%TO.C,D51*%
X136107333Y-93091621D02*
X136107333Y-92291621D01*
X135916857Y-92291621D01*
X135802571Y-92329717D01*
X135726381Y-92405907D01*
X135688285Y-92482097D01*
X135650190Y-92634478D01*
X135650190Y-92748764D01*
X135688285Y-92901145D01*
X135726381Y-92977336D01*
X135802571Y-93053526D01*
X135916857Y-93091621D01*
X136107333Y-93091621D01*
X134926381Y-92291621D02*
X135307333Y-92291621D01*
X135345428Y-92672574D01*
X135307333Y-92634478D01*
X135231143Y-92596383D01*
X135040666Y-92596383D01*
X134964476Y-92634478D01*
X134926381Y-92672574D01*
X134888285Y-92748764D01*
X134888285Y-92939240D01*
X134926381Y-93015431D01*
X134964476Y-93053526D01*
X135040666Y-93091621D01*
X135231143Y-93091621D01*
X135307333Y-93053526D01*
X135345428Y-93015431D01*
X134126381Y-93091621D02*
X134583524Y-93091621D01*
X134354952Y-93091621D02*
X134354952Y-92291621D01*
X134431143Y-92405907D01*
X134507333Y-92482097D01*
X134583524Y-92520193D01*
%TO.C,D56*%
X117057333Y-93091621D02*
X117057333Y-92291621D01*
X116866857Y-92291621D01*
X116752571Y-92329717D01*
X116676381Y-92405907D01*
X116638285Y-92482097D01*
X116600190Y-92634478D01*
X116600190Y-92748764D01*
X116638285Y-92901145D01*
X116676381Y-92977336D01*
X116752571Y-93053526D01*
X116866857Y-93091621D01*
X117057333Y-93091621D01*
X115876381Y-92291621D02*
X116257333Y-92291621D01*
X116295428Y-92672574D01*
X116257333Y-92634478D01*
X116181143Y-92596383D01*
X115990666Y-92596383D01*
X115914476Y-92634478D01*
X115876381Y-92672574D01*
X115838285Y-92748764D01*
X115838285Y-92939240D01*
X115876381Y-93015431D01*
X115914476Y-93053526D01*
X115990666Y-93091621D01*
X116181143Y-93091621D01*
X116257333Y-93053526D01*
X116295428Y-93015431D01*
X115152571Y-92291621D02*
X115304952Y-92291621D01*
X115381143Y-92329717D01*
X115419238Y-92367812D01*
X115495428Y-92482097D01*
X115533524Y-92634478D01*
X115533524Y-92939240D01*
X115495428Y-93015431D01*
X115457333Y-93053526D01*
X115381143Y-93091621D01*
X115228762Y-93091621D01*
X115152571Y-93053526D01*
X115114476Y-93015431D01*
X115076381Y-92939240D01*
X115076381Y-92748764D01*
X115114476Y-92672574D01*
X115152571Y-92634478D01*
X115228762Y-92596383D01*
X115381143Y-92596383D01*
X115457333Y-92634478D01*
X115495428Y-92672574D01*
X115533524Y-92748764D01*
%TO.C,D57*%
X114676083Y-131191621D02*
X114676083Y-130391621D01*
X114485607Y-130391621D01*
X114371321Y-130429717D01*
X114295131Y-130505907D01*
X114257035Y-130582097D01*
X114218940Y-130734478D01*
X114218940Y-130848764D01*
X114257035Y-131001145D01*
X114295131Y-131077336D01*
X114371321Y-131153526D01*
X114485607Y-131191621D01*
X114676083Y-131191621D01*
X113495131Y-130391621D02*
X113876083Y-130391621D01*
X113914178Y-130772574D01*
X113876083Y-130734478D01*
X113799893Y-130696383D01*
X113609416Y-130696383D01*
X113533226Y-130734478D01*
X113495131Y-130772574D01*
X113457035Y-130848764D01*
X113457035Y-131039240D01*
X113495131Y-131115431D01*
X113533226Y-131153526D01*
X113609416Y-131191621D01*
X113799893Y-131191621D01*
X113876083Y-131153526D01*
X113914178Y-131115431D01*
X113190369Y-130391621D02*
X112657035Y-130391621D01*
X112999893Y-131191621D01*
%TO.C,D60*%
X93244833Y-93091621D02*
X93244833Y-92291621D01*
X93054357Y-92291621D01*
X92940071Y-92329717D01*
X92863881Y-92405907D01*
X92825785Y-92482097D01*
X92787690Y-92634478D01*
X92787690Y-92748764D01*
X92825785Y-92901145D01*
X92863881Y-92977336D01*
X92940071Y-93053526D01*
X93054357Y-93091621D01*
X93244833Y-93091621D01*
X92101976Y-92291621D02*
X92254357Y-92291621D01*
X92330547Y-92329717D01*
X92368643Y-92367812D01*
X92444833Y-92482097D01*
X92482928Y-92634478D01*
X92482928Y-92939240D01*
X92444833Y-93015431D01*
X92406738Y-93053526D01*
X92330547Y-93091621D01*
X92178166Y-93091621D01*
X92101976Y-93053526D01*
X92063881Y-93015431D01*
X92025785Y-92939240D01*
X92025785Y-92748764D01*
X92063881Y-92672574D01*
X92101976Y-92634478D01*
X92178166Y-92596383D01*
X92330547Y-92596383D01*
X92406738Y-92634478D01*
X92444833Y-92672574D01*
X92482928Y-92748764D01*
X91530547Y-92291621D02*
X91454357Y-92291621D01*
X91378166Y-92329717D01*
X91340071Y-92367812D01*
X91301976Y-92444002D01*
X91263881Y-92596383D01*
X91263881Y-92786859D01*
X91301976Y-92939240D01*
X91340071Y-93015431D01*
X91378166Y-93053526D01*
X91454357Y-93091621D01*
X91530547Y-93091621D01*
X91606738Y-93053526D01*
X91644833Y-93015431D01*
X91682928Y-92939240D01*
X91721024Y-92786859D01*
X91721024Y-92596383D01*
X91682928Y-92444002D01*
X91644833Y-92367812D01*
X91606738Y-92329717D01*
X91530547Y-92291621D01*
%TO.C,D54*%
X126582333Y-150241621D02*
X126582333Y-149441621D01*
X126391857Y-149441621D01*
X126277571Y-149479717D01*
X126201381Y-149555907D01*
X126163285Y-149632097D01*
X126125190Y-149784478D01*
X126125190Y-149898764D01*
X126163285Y-150051145D01*
X126201381Y-150127336D01*
X126277571Y-150203526D01*
X126391857Y-150241621D01*
X126582333Y-150241621D01*
X125401381Y-149441621D02*
X125782333Y-149441621D01*
X125820428Y-149822574D01*
X125782333Y-149784478D01*
X125706143Y-149746383D01*
X125515666Y-149746383D01*
X125439476Y-149784478D01*
X125401381Y-149822574D01*
X125363285Y-149898764D01*
X125363285Y-150089240D01*
X125401381Y-150165431D01*
X125439476Y-150203526D01*
X125515666Y-150241621D01*
X125706143Y-150241621D01*
X125782333Y-150203526D01*
X125820428Y-150165431D01*
X124677571Y-149708288D02*
X124677571Y-150241621D01*
X124868047Y-149403526D02*
X125058524Y-149974955D01*
X124563285Y-149974955D01*
%TO.C,D59*%
X98007333Y-74041621D02*
X98007333Y-73241621D01*
X97816857Y-73241621D01*
X97702571Y-73279717D01*
X97626381Y-73355907D01*
X97588285Y-73432097D01*
X97550190Y-73584478D01*
X97550190Y-73698764D01*
X97588285Y-73851145D01*
X97626381Y-73927336D01*
X97702571Y-74003526D01*
X97816857Y-74041621D01*
X98007333Y-74041621D01*
X96826381Y-73241621D02*
X97207333Y-73241621D01*
X97245428Y-73622574D01*
X97207333Y-73584478D01*
X97131143Y-73546383D01*
X96940666Y-73546383D01*
X96864476Y-73584478D01*
X96826381Y-73622574D01*
X96788285Y-73698764D01*
X96788285Y-73889240D01*
X96826381Y-73965431D01*
X96864476Y-74003526D01*
X96940666Y-74041621D01*
X97131143Y-74041621D01*
X97207333Y-74003526D01*
X97245428Y-73965431D01*
X96407333Y-74041621D02*
X96254952Y-74041621D01*
X96178762Y-74003526D01*
X96140666Y-73965431D01*
X96064476Y-73851145D01*
X96026381Y-73698764D01*
X96026381Y-73394002D01*
X96064476Y-73317812D01*
X96102571Y-73279717D01*
X96178762Y-73241621D01*
X96331143Y-73241621D01*
X96407333Y-73279717D01*
X96445428Y-73317812D01*
X96483524Y-73394002D01*
X96483524Y-73584478D01*
X96445428Y-73660669D01*
X96407333Y-73698764D01*
X96331143Y-73736859D01*
X96178762Y-73736859D01*
X96102571Y-73698764D01*
X96064476Y-73660669D01*
X96026381Y-73584478D01*
%TO.C,D64*%
X69432333Y-74041621D02*
X69432333Y-73241621D01*
X69241857Y-73241621D01*
X69127571Y-73279717D01*
X69051381Y-73355907D01*
X69013285Y-73432097D01*
X68975190Y-73584478D01*
X68975190Y-73698764D01*
X69013285Y-73851145D01*
X69051381Y-73927336D01*
X69127571Y-74003526D01*
X69241857Y-74041621D01*
X69432333Y-74041621D01*
X68289476Y-73241621D02*
X68441857Y-73241621D01*
X68518047Y-73279717D01*
X68556143Y-73317812D01*
X68632333Y-73432097D01*
X68670428Y-73584478D01*
X68670428Y-73889240D01*
X68632333Y-73965431D01*
X68594238Y-74003526D01*
X68518047Y-74041621D01*
X68365666Y-74041621D01*
X68289476Y-74003526D01*
X68251381Y-73965431D01*
X68213285Y-73889240D01*
X68213285Y-73698764D01*
X68251381Y-73622574D01*
X68289476Y-73584478D01*
X68365666Y-73546383D01*
X68518047Y-73546383D01*
X68594238Y-73584478D01*
X68632333Y-73622574D01*
X68670428Y-73698764D01*
X67527571Y-73508288D02*
X67527571Y-74041621D01*
X67718047Y-73203526D02*
X67908524Y-73774955D01*
X67413285Y-73774955D01*
%TO.C,D67*%
X69432333Y-131191621D02*
X69432333Y-130391621D01*
X69241857Y-130391621D01*
X69127571Y-130429717D01*
X69051381Y-130505907D01*
X69013285Y-130582097D01*
X68975190Y-130734478D01*
X68975190Y-130848764D01*
X69013285Y-131001145D01*
X69051381Y-131077336D01*
X69127571Y-131153526D01*
X69241857Y-131191621D01*
X69432333Y-131191621D01*
X68289476Y-130391621D02*
X68441857Y-130391621D01*
X68518047Y-130429717D01*
X68556143Y-130467812D01*
X68632333Y-130582097D01*
X68670428Y-130734478D01*
X68670428Y-131039240D01*
X68632333Y-131115431D01*
X68594238Y-131153526D01*
X68518047Y-131191621D01*
X68365666Y-131191621D01*
X68289476Y-131153526D01*
X68251381Y-131115431D01*
X68213285Y-131039240D01*
X68213285Y-130848764D01*
X68251381Y-130772574D01*
X68289476Y-130734478D01*
X68365666Y-130696383D01*
X68518047Y-130696383D01*
X68594238Y-130734478D01*
X68632333Y-130772574D01*
X68670428Y-130848764D01*
X67946619Y-130391621D02*
X67413285Y-130391621D01*
X67756143Y-131191621D01*
%TO.C,D52*%
X131344833Y-112141621D02*
X131344833Y-111341621D01*
X131154357Y-111341621D01*
X131040071Y-111379717D01*
X130963881Y-111455907D01*
X130925785Y-111532097D01*
X130887690Y-111684478D01*
X130887690Y-111798764D01*
X130925785Y-111951145D01*
X130963881Y-112027336D01*
X131040071Y-112103526D01*
X131154357Y-112141621D01*
X131344833Y-112141621D01*
X130163881Y-111341621D02*
X130544833Y-111341621D01*
X130582928Y-111722574D01*
X130544833Y-111684478D01*
X130468643Y-111646383D01*
X130278166Y-111646383D01*
X130201976Y-111684478D01*
X130163881Y-111722574D01*
X130125785Y-111798764D01*
X130125785Y-111989240D01*
X130163881Y-112065431D01*
X130201976Y-112103526D01*
X130278166Y-112141621D01*
X130468643Y-112141621D01*
X130544833Y-112103526D01*
X130582928Y-112065431D01*
X129821024Y-111417812D02*
X129782928Y-111379717D01*
X129706738Y-111341621D01*
X129516262Y-111341621D01*
X129440071Y-111379717D01*
X129401976Y-111417812D01*
X129363881Y-111494002D01*
X129363881Y-111570193D01*
X129401976Y-111684478D01*
X129859119Y-112141621D01*
X129363881Y-112141621D01*
%TO.C,D66*%
X69432333Y-112141621D02*
X69432333Y-111341621D01*
X69241857Y-111341621D01*
X69127571Y-111379717D01*
X69051381Y-111455907D01*
X69013285Y-111532097D01*
X68975190Y-111684478D01*
X68975190Y-111798764D01*
X69013285Y-111951145D01*
X69051381Y-112027336D01*
X69127571Y-112103526D01*
X69241857Y-112141621D01*
X69432333Y-112141621D01*
X68289476Y-111341621D02*
X68441857Y-111341621D01*
X68518047Y-111379717D01*
X68556143Y-111417812D01*
X68632333Y-111532097D01*
X68670428Y-111684478D01*
X68670428Y-111989240D01*
X68632333Y-112065431D01*
X68594238Y-112103526D01*
X68518047Y-112141621D01*
X68365666Y-112141621D01*
X68289476Y-112103526D01*
X68251381Y-112065431D01*
X68213285Y-111989240D01*
X68213285Y-111798764D01*
X68251381Y-111722574D01*
X68289476Y-111684478D01*
X68365666Y-111646383D01*
X68518047Y-111646383D01*
X68594238Y-111684478D01*
X68632333Y-111722574D01*
X68670428Y-111798764D01*
X67527571Y-111341621D02*
X67679952Y-111341621D01*
X67756143Y-111379717D01*
X67794238Y-111417812D01*
X67870428Y-111532097D01*
X67908524Y-111684478D01*
X67908524Y-111989240D01*
X67870428Y-112065431D01*
X67832333Y-112103526D01*
X67756143Y-112141621D01*
X67603762Y-112141621D01*
X67527571Y-112103526D01*
X67489476Y-112065431D01*
X67451381Y-111989240D01*
X67451381Y-111798764D01*
X67489476Y-111722574D01*
X67527571Y-111684478D01*
X67603762Y-111646383D01*
X67756143Y-111646383D01*
X67832333Y-111684478D01*
X67870428Y-111722574D01*
X67908524Y-111798764D01*
%TO.C,D58*%
X107532333Y-150241621D02*
X107532333Y-149441621D01*
X107341857Y-149441621D01*
X107227571Y-149479717D01*
X107151381Y-149555907D01*
X107113285Y-149632097D01*
X107075190Y-149784478D01*
X107075190Y-149898764D01*
X107113285Y-150051145D01*
X107151381Y-150127336D01*
X107227571Y-150203526D01*
X107341857Y-150241621D01*
X107532333Y-150241621D01*
X106351381Y-149441621D02*
X106732333Y-149441621D01*
X106770428Y-149822574D01*
X106732333Y-149784478D01*
X106656143Y-149746383D01*
X106465666Y-149746383D01*
X106389476Y-149784478D01*
X106351381Y-149822574D01*
X106313285Y-149898764D01*
X106313285Y-150089240D01*
X106351381Y-150165431D01*
X106389476Y-150203526D01*
X106465666Y-150241621D01*
X106656143Y-150241621D01*
X106732333Y-150203526D01*
X106770428Y-150165431D01*
X105856143Y-149784478D02*
X105932333Y-149746383D01*
X105970428Y-149708288D01*
X106008524Y-149632097D01*
X106008524Y-149594002D01*
X105970428Y-149517812D01*
X105932333Y-149479717D01*
X105856143Y-149441621D01*
X105703762Y-149441621D01*
X105627571Y-149479717D01*
X105589476Y-149517812D01*
X105551381Y-149594002D01*
X105551381Y-149632097D01*
X105589476Y-149708288D01*
X105627571Y-149746383D01*
X105703762Y-149784478D01*
X105856143Y-149784478D01*
X105932333Y-149822574D01*
X105970428Y-149860669D01*
X106008524Y-149936859D01*
X106008524Y-150089240D01*
X105970428Y-150165431D01*
X105932333Y-150203526D01*
X105856143Y-150241621D01*
X105703762Y-150241621D01*
X105627571Y-150203526D01*
X105589476Y-150165431D01*
X105551381Y-150089240D01*
X105551381Y-149936859D01*
X105589476Y-149860669D01*
X105627571Y-149822574D01*
X105703762Y-149784478D01*
%TO.C,D10*%
X317082333Y-74041621D02*
X317082333Y-73241621D01*
X316891857Y-73241621D01*
X316777571Y-73279717D01*
X316701381Y-73355907D01*
X316663285Y-73432097D01*
X316625190Y-73584478D01*
X316625190Y-73698764D01*
X316663285Y-73851145D01*
X316701381Y-73927336D01*
X316777571Y-74003526D01*
X316891857Y-74041621D01*
X317082333Y-74041621D01*
X315863285Y-74041621D02*
X316320428Y-74041621D01*
X316091857Y-74041621D02*
X316091857Y-73241621D01*
X316168047Y-73355907D01*
X316244238Y-73432097D01*
X316320428Y-73470193D01*
X315368047Y-73241621D02*
X315291857Y-73241621D01*
X315215666Y-73279717D01*
X315177571Y-73317812D01*
X315139476Y-73394002D01*
X315101381Y-73546383D01*
X315101381Y-73736859D01*
X315139476Y-73889240D01*
X315177571Y-73965431D01*
X315215666Y-74003526D01*
X315291857Y-74041621D01*
X315368047Y-74041621D01*
X315444238Y-74003526D01*
X315482333Y-73965431D01*
X315520428Y-73889240D01*
X315558524Y-73736859D01*
X315558524Y-73546383D01*
X315520428Y-73394002D01*
X315482333Y-73317812D01*
X315444238Y-73279717D01*
X315368047Y-73241621D01*
%TO.C,D8*%
X321463881Y-112141621D02*
X321463881Y-111341621D01*
X321273405Y-111341621D01*
X321159119Y-111379717D01*
X321082928Y-111455907D01*
X321044833Y-111532097D01*
X321006738Y-111684478D01*
X321006738Y-111798764D01*
X321044833Y-111951145D01*
X321082928Y-112027336D01*
X321159119Y-112103526D01*
X321273405Y-112141621D01*
X321463881Y-112141621D01*
X320549595Y-111684478D02*
X320625785Y-111646383D01*
X320663881Y-111608288D01*
X320701976Y-111532097D01*
X320701976Y-111494002D01*
X320663881Y-111417812D01*
X320625785Y-111379717D01*
X320549595Y-111341621D01*
X320397214Y-111341621D01*
X320321024Y-111379717D01*
X320282928Y-111417812D01*
X320244833Y-111494002D01*
X320244833Y-111532097D01*
X320282928Y-111608288D01*
X320321024Y-111646383D01*
X320397214Y-111684478D01*
X320549595Y-111684478D01*
X320625785Y-111722574D01*
X320663881Y-111760669D01*
X320701976Y-111836859D01*
X320701976Y-111989240D01*
X320663881Y-112065431D01*
X320625785Y-112103526D01*
X320549595Y-112141621D01*
X320397214Y-112141621D01*
X320321024Y-112103526D01*
X320282928Y-112065431D01*
X320244833Y-111989240D01*
X320244833Y-111836859D01*
X320282928Y-111760669D01*
X320321024Y-111722574D01*
X320397214Y-111684478D01*
%TO.C,D6*%
X335751381Y-74041621D02*
X335751381Y-73241621D01*
X335560905Y-73241621D01*
X335446619Y-73279717D01*
X335370428Y-73355907D01*
X335332333Y-73432097D01*
X335294238Y-73584478D01*
X335294238Y-73698764D01*
X335332333Y-73851145D01*
X335370428Y-73927336D01*
X335446619Y-74003526D01*
X335560905Y-74041621D01*
X335751381Y-74041621D01*
X334608524Y-73241621D02*
X334760905Y-73241621D01*
X334837095Y-73279717D01*
X334875190Y-73317812D01*
X334951381Y-73432097D01*
X334989476Y-73584478D01*
X334989476Y-73889240D01*
X334951381Y-73965431D01*
X334913285Y-74003526D01*
X334837095Y-74041621D01*
X334684714Y-74041621D01*
X334608524Y-74003526D01*
X334570428Y-73965431D01*
X334532333Y-73889240D01*
X334532333Y-73698764D01*
X334570428Y-73622574D01*
X334608524Y-73584478D01*
X334684714Y-73546383D01*
X334837095Y-73546383D01*
X334913285Y-73584478D01*
X334951381Y-73622574D01*
X334989476Y-73698764D01*
%TO.C,D14*%
X305176083Y-150241621D02*
X305176083Y-149441621D01*
X304985607Y-149441621D01*
X304871321Y-149479717D01*
X304795131Y-149555907D01*
X304757035Y-149632097D01*
X304718940Y-149784478D01*
X304718940Y-149898764D01*
X304757035Y-150051145D01*
X304795131Y-150127336D01*
X304871321Y-150203526D01*
X304985607Y-150241621D01*
X305176083Y-150241621D01*
X303957035Y-150241621D02*
X304414178Y-150241621D01*
X304185607Y-150241621D02*
X304185607Y-149441621D01*
X304261797Y-149555907D01*
X304337988Y-149632097D01*
X304414178Y-149670193D01*
X303271321Y-149708288D02*
X303271321Y-150241621D01*
X303461797Y-149403526D02*
X303652274Y-149974955D01*
X303157035Y-149974955D01*
%TO.C,D13*%
X312319833Y-131191621D02*
X312319833Y-130391621D01*
X312129357Y-130391621D01*
X312015071Y-130429717D01*
X311938881Y-130505907D01*
X311900785Y-130582097D01*
X311862690Y-130734478D01*
X311862690Y-130848764D01*
X311900785Y-131001145D01*
X311938881Y-131077336D01*
X312015071Y-131153526D01*
X312129357Y-131191621D01*
X312319833Y-131191621D01*
X311100785Y-131191621D02*
X311557928Y-131191621D01*
X311329357Y-131191621D02*
X311329357Y-130391621D01*
X311405547Y-130505907D01*
X311481738Y-130582097D01*
X311557928Y-130620193D01*
X310834119Y-130391621D02*
X310338881Y-130391621D01*
X310605547Y-130696383D01*
X310491262Y-130696383D01*
X310415071Y-130734478D01*
X310376976Y-130772574D01*
X310338881Y-130848764D01*
X310338881Y-131039240D01*
X310376976Y-131115431D01*
X310415071Y-131153526D01*
X310491262Y-131191621D01*
X310719833Y-131191621D01*
X310796024Y-131153526D01*
X310834119Y-131115431D01*
%TO.C,D12*%
X302794833Y-112141621D02*
X302794833Y-111341621D01*
X302604357Y-111341621D01*
X302490071Y-111379717D01*
X302413881Y-111455907D01*
X302375785Y-111532097D01*
X302337690Y-111684478D01*
X302337690Y-111798764D01*
X302375785Y-111951145D01*
X302413881Y-112027336D01*
X302490071Y-112103526D01*
X302604357Y-112141621D01*
X302794833Y-112141621D01*
X301575785Y-112141621D02*
X302032928Y-112141621D01*
X301804357Y-112141621D02*
X301804357Y-111341621D01*
X301880547Y-111455907D01*
X301956738Y-111532097D01*
X302032928Y-111570193D01*
X301271024Y-111417812D02*
X301232928Y-111379717D01*
X301156738Y-111341621D01*
X300966262Y-111341621D01*
X300890071Y-111379717D01*
X300851976Y-111417812D01*
X300813881Y-111494002D01*
X300813881Y-111570193D01*
X300851976Y-111684478D01*
X301309119Y-112141621D01*
X300813881Y-112141621D01*
%TO.C,D7*%
X326226381Y-93091621D02*
X326226381Y-92291621D01*
X326035905Y-92291621D01*
X325921619Y-92329717D01*
X325845428Y-92405907D01*
X325807333Y-92482097D01*
X325769238Y-92634478D01*
X325769238Y-92748764D01*
X325807333Y-92901145D01*
X325845428Y-92977336D01*
X325921619Y-93053526D01*
X326035905Y-93091621D01*
X326226381Y-93091621D01*
X325502571Y-92291621D02*
X324969238Y-92291621D01*
X325312095Y-93091621D01*
%TO.C,D9*%
X328607631Y-150241621D02*
X328607631Y-149441621D01*
X328417155Y-149441621D01*
X328302869Y-149479717D01*
X328226678Y-149555907D01*
X328188583Y-149632097D01*
X328150488Y-149784478D01*
X328150488Y-149898764D01*
X328188583Y-150051145D01*
X328226678Y-150127336D01*
X328302869Y-150203526D01*
X328417155Y-150241621D01*
X328607631Y-150241621D01*
X327769535Y-150241621D02*
X327617155Y-150241621D01*
X327540964Y-150203526D01*
X327502869Y-150165431D01*
X327426678Y-150051145D01*
X327388583Y-149898764D01*
X327388583Y-149594002D01*
X327426678Y-149517812D01*
X327464774Y-149479717D01*
X327540964Y-149441621D01*
X327693345Y-149441621D01*
X327769535Y-149479717D01*
X327807631Y-149517812D01*
X327845726Y-149594002D01*
X327845726Y-149784478D01*
X327807631Y-149860669D01*
X327769535Y-149898764D01*
X327693345Y-149936859D01*
X327540964Y-149936859D01*
X327464774Y-149898764D01*
X327426678Y-149860669D01*
X327388583Y-149784478D01*
%TO.C,D11*%
X307557333Y-93091621D02*
X307557333Y-92291621D01*
X307366857Y-92291621D01*
X307252571Y-92329717D01*
X307176381Y-92405907D01*
X307138285Y-92482097D01*
X307100190Y-92634478D01*
X307100190Y-92748764D01*
X307138285Y-92901145D01*
X307176381Y-92977336D01*
X307252571Y-93053526D01*
X307366857Y-93091621D01*
X307557333Y-93091621D01*
X306338285Y-93091621D02*
X306795428Y-93091621D01*
X306566857Y-93091621D02*
X306566857Y-92291621D01*
X306643047Y-92405907D01*
X306719238Y-92482097D01*
X306795428Y-92520193D01*
X305576381Y-93091621D02*
X306033524Y-93091621D01*
X305804952Y-93091621D02*
X305804952Y-92291621D01*
X305881143Y-92405907D01*
X305957333Y-92482097D01*
X306033524Y-92520193D01*
%TO.C,SW1*%
X265056992Y-153578324D02*
X264914135Y-153625943D01*
X264676039Y-153625943D01*
X264580801Y-153578324D01*
X264533182Y-153530705D01*
X264485563Y-153435467D01*
X264485563Y-153340229D01*
X264533182Y-153244991D01*
X264580801Y-153197372D01*
X264676039Y-153149753D01*
X264866516Y-153102134D01*
X264961754Y-153054515D01*
X265009373Y-153006896D01*
X265056992Y-152911658D01*
X265056992Y-152816420D01*
X265009373Y-152721182D01*
X264961754Y-152673563D01*
X264866516Y-152625943D01*
X264628420Y-152625943D01*
X264485563Y-152673563D01*
X264152230Y-152625943D02*
X263914135Y-153625943D01*
X263723659Y-152911658D01*
X263533182Y-153625943D01*
X263295087Y-152625943D01*
X262390325Y-153625943D02*
X262961754Y-153625943D01*
X262676039Y-153625943D02*
X262676039Y-152625943D01*
X262771278Y-152768801D01*
X262866516Y-152864039D01*
X262961754Y-152911658D01*
%TO.C,U1*%
X207335459Y-156325869D02*
X207335459Y-157135393D01*
X207287840Y-157230631D01*
X207240221Y-157278250D01*
X207144983Y-157325869D01*
X206954507Y-157325869D01*
X206859269Y-157278250D01*
X206811650Y-157230631D01*
X206764031Y-157135393D01*
X206764031Y-156325869D01*
X205764031Y-157325869D02*
X206335459Y-157325869D01*
X206049745Y-157325869D02*
X206049745Y-156325869D01*
X206144983Y-156468727D01*
X206240221Y-156563965D01*
X206335459Y-156611584D01*
%TO.C,R1*%
X256301031Y-149256896D02*
X255824841Y-148923563D01*
X256301031Y-148685467D02*
X255301031Y-148685467D01*
X255301031Y-149066420D01*
X255348651Y-149161658D01*
X255396270Y-149209277D01*
X255491508Y-149256896D01*
X255634365Y-149256896D01*
X255729603Y-149209277D01*
X255777222Y-149161658D01*
X255824841Y-149066420D01*
X255824841Y-148685467D01*
X256301031Y-150209277D02*
X256301031Y-149637848D01*
X256301031Y-149923563D02*
X255301031Y-149923563D01*
X255443889Y-149828324D01*
X255539127Y-149733086D01*
X255586746Y-149637848D01*
%TO.C,R5*%
X263295012Y-145572813D02*
X263628346Y-145096623D01*
X263866441Y-145572813D02*
X263866441Y-144572813D01*
X263485488Y-144572813D01*
X263390250Y-144620433D01*
X263342631Y-144668052D01*
X263295012Y-144763290D01*
X263295012Y-144906147D01*
X263342631Y-145001385D01*
X263390250Y-145049004D01*
X263485488Y-145096623D01*
X263866441Y-145096623D01*
X262390250Y-144572813D02*
X262866441Y-144572813D01*
X262914060Y-145049004D01*
X262866441Y-145001385D01*
X262771203Y-144953766D01*
X262533107Y-144953766D01*
X262437869Y-145001385D01*
X262390250Y-145049004D01*
X262342631Y-145144242D01*
X262342631Y-145382337D01*
X262390250Y-145477575D01*
X262437869Y-145525194D01*
X262533107Y-145572813D01*
X262771203Y-145572813D01*
X262866441Y-145525194D01*
X262914060Y-145477575D01*
%TO.C,R2*%
X214900999Y-149256896D02*
X214424809Y-148923563D01*
X214900999Y-148685467D02*
X213900999Y-148685467D01*
X213900999Y-149066420D01*
X213948619Y-149161658D01*
X213996238Y-149209277D01*
X214091476Y-149256896D01*
X214234333Y-149256896D01*
X214329571Y-149209277D01*
X214377190Y-149161658D01*
X214424809Y-149066420D01*
X214424809Y-148685467D01*
X213996238Y-149637848D02*
X213948619Y-149685467D01*
X213900999Y-149780705D01*
X213900999Y-150018801D01*
X213948619Y-150114039D01*
X213996238Y-150161658D01*
X214091476Y-150209277D01*
X214186714Y-150209277D01*
X214329571Y-150161658D01*
X214900999Y-149590229D01*
X214900999Y-150209277D01*
%TO.C,R6*%
X268057516Y-145572813D02*
X268390850Y-145096623D01*
X268628945Y-145572813D02*
X268628945Y-144572813D01*
X268247992Y-144572813D01*
X268152754Y-144620433D01*
X268105135Y-144668052D01*
X268057516Y-144763290D01*
X268057516Y-144906147D01*
X268105135Y-145001385D01*
X268152754Y-145049004D01*
X268247992Y-145096623D01*
X268628945Y-145096623D01*
X267200373Y-144572813D02*
X267390850Y-144572813D01*
X267486088Y-144620433D01*
X267533707Y-144668052D01*
X267628945Y-144810909D01*
X267676564Y-145001385D01*
X267676564Y-145382337D01*
X267628945Y-145477575D01*
X267581326Y-145525194D01*
X267486088Y-145572813D01*
X267295611Y-145572813D01*
X267200373Y-145525194D01*
X267152754Y-145477575D01*
X267105135Y-145382337D01*
X267105135Y-145144242D01*
X267152754Y-145049004D01*
X267200373Y-145001385D01*
X267295611Y-144953766D01*
X267486088Y-144953766D01*
X267581326Y-145001385D01*
X267628945Y-145049004D01*
X267676564Y-145144242D01*
%TO.C,R4*%
X258532508Y-145572813D02*
X258865842Y-145096623D01*
X259103937Y-145572813D02*
X259103937Y-144572813D01*
X258722984Y-144572813D01*
X258627746Y-144620433D01*
X258580127Y-144668052D01*
X258532508Y-144763290D01*
X258532508Y-144906147D01*
X258580127Y-145001385D01*
X258627746Y-145049004D01*
X258722984Y-145096623D01*
X259103937Y-145096623D01*
X257675365Y-144906147D02*
X257675365Y-145572813D01*
X257913461Y-144525194D02*
X258151556Y-145239480D01*
X257532508Y-145239480D01*
%TO.C,R3*%
X253770004Y-145572813D02*
X254103338Y-145096623D01*
X254341433Y-145572813D02*
X254341433Y-144572813D01*
X253960480Y-144572813D01*
X253865242Y-144620433D01*
X253817623Y-144668052D01*
X253770004Y-144763290D01*
X253770004Y-144906147D01*
X253817623Y-145001385D01*
X253865242Y-145049004D01*
X253960480Y-145096623D01*
X254341433Y-145096623D01*
X253436671Y-144572813D02*
X252817623Y-144572813D01*
X253150957Y-144953766D01*
X253008099Y-144953766D01*
X252912861Y-145001385D01*
X252865242Y-145049004D01*
X252817623Y-145144242D01*
X252817623Y-145382337D01*
X252865242Y-145477575D01*
X252912861Y-145525194D01*
X253008099Y-145572813D01*
X253293814Y-145572813D01*
X253389052Y-145525194D01*
X253436671Y-145477575D01*
%TO.C,C4*%
X214775697Y-144494322D02*
X214823316Y-144446703D01*
X214870935Y-144303846D01*
X214870935Y-144208608D01*
X214823316Y-144065750D01*
X214728078Y-143970512D01*
X214632840Y-143922893D01*
X214442364Y-143875274D01*
X214299507Y-143875274D01*
X214109031Y-143922893D01*
X214013793Y-143970512D01*
X213918555Y-144065750D01*
X213870935Y-144208608D01*
X213870935Y-144303846D01*
X213918555Y-144446703D01*
X213966174Y-144494322D01*
X214204269Y-145351465D02*
X214870935Y-145351465D01*
X213823316Y-145113369D02*
X214537602Y-144875274D01*
X214537602Y-145494322D01*
%TO.C,C1*%
X199892936Y-138333333D02*
X199940555Y-138285714D01*
X199988174Y-138142857D01*
X199988174Y-138047619D01*
X199940555Y-137904761D01*
X199845317Y-137809523D01*
X199750079Y-137761904D01*
X199559603Y-137714285D01*
X199416746Y-137714285D01*
X199226270Y-137761904D01*
X199131032Y-137809523D01*
X199035794Y-137904761D01*
X198988174Y-138047619D01*
X198988174Y-138142857D01*
X199035794Y-138285714D01*
X199083413Y-138333333D01*
X199988174Y-139285714D02*
X199988174Y-138714285D01*
X199988174Y-139000000D02*
X198988174Y-139000000D01*
X199131032Y-138904761D01*
X199226270Y-138809523D01*
X199273889Y-138714285D01*
%TO.C,C5*%
X199085697Y-144494322D02*
X199133316Y-144446703D01*
X199180935Y-144303846D01*
X199180935Y-144208608D01*
X199133316Y-144065750D01*
X199038078Y-143970512D01*
X198942840Y-143922893D01*
X198752364Y-143875274D01*
X198609507Y-143875274D01*
X198419031Y-143922893D01*
X198323793Y-143970512D01*
X198228555Y-144065750D01*
X198180935Y-144208608D01*
X198180935Y-144303846D01*
X198228555Y-144446703D01*
X198276174Y-144494322D01*
X198180935Y-145399084D02*
X198180935Y-144922893D01*
X198657126Y-144875274D01*
X198609507Y-144922893D01*
X198561888Y-145018131D01*
X198561888Y-145256227D01*
X198609507Y-145351465D01*
X198657126Y-145399084D01*
X198752364Y-145446703D01*
X198990459Y-145446703D01*
X199085697Y-145399084D01*
X199133316Y-145351465D01*
X199180935Y-145256227D01*
X199180935Y-145018131D01*
X199133316Y-144922893D01*
X199085697Y-144875274D01*
%TO.C,C2*%
X210427142Y-138333333D02*
X210474761Y-138285714D01*
X210522380Y-138142857D01*
X210522380Y-138047619D01*
X210474761Y-137904761D01*
X210379523Y-137809523D01*
X210284285Y-137761904D01*
X210093809Y-137714285D01*
X209950952Y-137714285D01*
X209760476Y-137761904D01*
X209665238Y-137809523D01*
X209570000Y-137904761D01*
X209522380Y-138047619D01*
X209522380Y-138142857D01*
X209570000Y-138285714D01*
X209617619Y-138333333D01*
X209617619Y-138714285D02*
X209570000Y-138761904D01*
X209522380Y-138857142D01*
X209522380Y-139095238D01*
X209570000Y-139190476D01*
X209617619Y-139238095D01*
X209712857Y-139285714D01*
X209808095Y-139285714D01*
X209950952Y-139238095D01*
X210522380Y-138666666D01*
X210522380Y-139285714D01*
%TO.C,C3*%
X214775697Y-154019322D02*
X214823316Y-153971703D01*
X214870935Y-153828846D01*
X214870935Y-153733608D01*
X214823316Y-153590750D01*
X214728078Y-153495512D01*
X214632840Y-153447893D01*
X214442364Y-153400274D01*
X214299507Y-153400274D01*
X214109031Y-153447893D01*
X214013793Y-153495512D01*
X213918555Y-153590750D01*
X213870935Y-153733608D01*
X213870935Y-153828846D01*
X213918555Y-153971703D01*
X213966174Y-154019322D01*
X213870935Y-154352655D02*
X213870935Y-154971703D01*
X214251888Y-154638369D01*
X214251888Y-154781227D01*
X214299507Y-154876465D01*
X214347126Y-154924084D01*
X214442364Y-154971703D01*
X214680459Y-154971703D01*
X214775697Y-154924084D01*
X214823316Y-154876465D01*
X214870935Y-154781227D01*
X214870935Y-154495512D01*
X214823316Y-154400274D01*
X214775697Y-154352655D01*
%TO.C,C6*%
X199085745Y-138541262D02*
X199133364Y-138493643D01*
X199180983Y-138350786D01*
X199180983Y-138255548D01*
X199133364Y-138112690D01*
X199038126Y-138017452D01*
X198942888Y-137969833D01*
X198752412Y-137922214D01*
X198609555Y-137922214D01*
X198419079Y-137969833D01*
X198323841Y-138017452D01*
X198228603Y-138112690D01*
X198180983Y-138255548D01*
X198180983Y-138350786D01*
X198228603Y-138493643D01*
X198276222Y-138541262D01*
X198180983Y-139398405D02*
X198180983Y-139207929D01*
X198228603Y-139112690D01*
X198276222Y-139065071D01*
X198419079Y-138969833D01*
X198609555Y-138922214D01*
X198990507Y-138922214D01*
X199085745Y-138969833D01*
X199133364Y-139017452D01*
X199180983Y-139112690D01*
X199180983Y-139303167D01*
X199133364Y-139398405D01*
X199085745Y-139446024D01*
X198990507Y-139493643D01*
X198752412Y-139493643D01*
X198657174Y-139446024D01*
X198609555Y-139398405D01*
X198561936Y-139303167D01*
X198561936Y-139112690D01*
X198609555Y-139017452D01*
X198657174Y-138969833D01*
X198752412Y-138922214D01*
%TO.C,C8*%
X199085697Y-149256822D02*
X199133316Y-149209203D01*
X199180935Y-149066346D01*
X199180935Y-148971108D01*
X199133316Y-148828250D01*
X199038078Y-148733012D01*
X198942840Y-148685393D01*
X198752364Y-148637774D01*
X198609507Y-148637774D01*
X198419031Y-148685393D01*
X198323793Y-148733012D01*
X198228555Y-148828250D01*
X198180935Y-148971108D01*
X198180935Y-149066346D01*
X198228555Y-149209203D01*
X198276174Y-149256822D01*
X198609507Y-149828250D02*
X198561888Y-149733012D01*
X198514269Y-149685393D01*
X198419031Y-149637774D01*
X198371412Y-149637774D01*
X198276174Y-149685393D01*
X198228555Y-149733012D01*
X198180935Y-149828250D01*
X198180935Y-150018727D01*
X198228555Y-150113965D01*
X198276174Y-150161584D01*
X198371412Y-150209203D01*
X198419031Y-150209203D01*
X198514269Y-150161584D01*
X198561888Y-150113965D01*
X198609507Y-150018727D01*
X198609507Y-149828250D01*
X198657126Y-149733012D01*
X198704745Y-149685393D01*
X198799983Y-149637774D01*
X198990459Y-149637774D01*
X199085697Y-149685393D01*
X199133316Y-149733012D01*
X199180935Y-149828250D01*
X199180935Y-150018727D01*
X199133316Y-150113965D01*
X199085697Y-150161584D01*
X198990459Y-150209203D01*
X198799983Y-150209203D01*
X198704745Y-150161584D01*
X198657126Y-150113965D01*
X198609507Y-150018727D01*
%TO.C,C7*%
X199085697Y-154019322D02*
X199133316Y-153971703D01*
X199180935Y-153828846D01*
X199180935Y-153733608D01*
X199133316Y-153590750D01*
X199038078Y-153495512D01*
X198942840Y-153447893D01*
X198752364Y-153400274D01*
X198609507Y-153400274D01*
X198419031Y-153447893D01*
X198323793Y-153495512D01*
X198228555Y-153590750D01*
X198180935Y-153733608D01*
X198180935Y-153828846D01*
X198228555Y-153971703D01*
X198276174Y-154019322D01*
X198180935Y-154352655D02*
X198180935Y-155019322D01*
X199180935Y-154590750D01*
%TO.C,K1*%
D10*
X354949000Y-75612597D02*
X354949000Y-74612597D01*
X354377571Y-75612597D02*
X354806143Y-75041169D01*
X354377571Y-74612597D02*
X354949000Y-75184026D01*
X353425190Y-75612597D02*
X353996619Y-75612597D01*
X353710905Y-75612597D02*
X353710905Y-74612597D01*
X353806143Y-74755455D01*
X353901381Y-74850693D01*
X353996619Y-74898312D01*
%TO.C,K2*%
X350186500Y-94662597D02*
X350186500Y-93662597D01*
X349615071Y-94662597D02*
X350043643Y-94091169D01*
X349615071Y-93662597D02*
X350186500Y-94234026D01*
X349234119Y-93757836D02*
X349186500Y-93710217D01*
X349091262Y-93662597D01*
X348853166Y-93662597D01*
X348757928Y-93710217D01*
X348710309Y-93757836D01*
X348662690Y-93853074D01*
X348662690Y-93948312D01*
X348710309Y-94091169D01*
X349281738Y-94662597D01*
X348662690Y-94662597D01*
%TO.C,K3*%
X347805250Y-113712597D02*
X347805250Y-112712597D01*
X347233821Y-113712597D02*
X347662393Y-113141169D01*
X347233821Y-112712597D02*
X347805250Y-113284026D01*
X346900488Y-112712597D02*
X346281440Y-112712597D01*
X346614774Y-113093550D01*
X346471916Y-113093550D01*
X346376678Y-113141169D01*
X346329059Y-113188788D01*
X346281440Y-113284026D01*
X346281440Y-113522121D01*
X346329059Y-113617359D01*
X346376678Y-113664978D01*
X346471916Y-113712597D01*
X346757631Y-113712597D01*
X346852869Y-113664978D01*
X346900488Y-113617359D01*
%TO.C,K4*%
X343042750Y-132762597D02*
X343042750Y-131762597D01*
X342471321Y-132762597D02*
X342899893Y-132191169D01*
X342471321Y-131762597D02*
X343042750Y-132334026D01*
X341614178Y-132095931D02*
X341614178Y-132762597D01*
X341852274Y-131714978D02*
X342090369Y-132429264D01*
X341471321Y-132429264D01*
%TO.C,K5*%
X352567750Y-151812597D02*
X352567750Y-150812597D01*
X351996321Y-151812597D02*
X352424893Y-151241169D01*
X351996321Y-150812597D02*
X352567750Y-151384026D01*
X351091559Y-150812597D02*
X351567750Y-150812597D01*
X351615369Y-151288788D01*
X351567750Y-151241169D01*
X351472512Y-151193550D01*
X351234416Y-151193550D01*
X351139178Y-151241169D01*
X351091559Y-151288788D01*
X351043940Y-151384026D01*
X351043940Y-151622121D01*
X351091559Y-151717359D01*
X351139178Y-151764978D01*
X351234416Y-151812597D01*
X351472512Y-151812597D01*
X351567750Y-151764978D01*
X351615369Y-151717359D01*
%TO.C,K7*%
X326374000Y-94662597D02*
X326374000Y-93662597D01*
X325802571Y-94662597D02*
X326231143Y-94091169D01*
X325802571Y-93662597D02*
X326374000Y-94234026D01*
X325469238Y-93662597D02*
X324802571Y-93662597D01*
X325231143Y-94662597D01*
%TO.C,K8*%
X321611500Y-113712597D02*
X321611500Y-112712597D01*
X321040071Y-113712597D02*
X321468643Y-113141169D01*
X321040071Y-112712597D02*
X321611500Y-113284026D01*
X320468643Y-113141169D02*
X320563881Y-113093550D01*
X320611500Y-113045931D01*
X320659119Y-112950693D01*
X320659119Y-112903074D01*
X320611500Y-112807836D01*
X320563881Y-112760217D01*
X320468643Y-112712597D01*
X320278166Y-112712597D01*
X320182928Y-112760217D01*
X320135309Y-112807836D01*
X320087690Y-112903074D01*
X320087690Y-112950693D01*
X320135309Y-113045931D01*
X320182928Y-113093550D01*
X320278166Y-113141169D01*
X320468643Y-113141169D01*
X320563881Y-113188788D01*
X320611500Y-113236407D01*
X320659119Y-113331645D01*
X320659119Y-113522121D01*
X320611500Y-113617359D01*
X320563881Y-113664978D01*
X320468643Y-113712597D01*
X320278166Y-113712597D01*
X320182928Y-113664978D01*
X320135309Y-113617359D01*
X320087690Y-113522121D01*
X320087690Y-113331645D01*
X320135309Y-113236407D01*
X320182928Y-113188788D01*
X320278166Y-113141169D01*
%TO.C,K9*%
X328755250Y-151812597D02*
X328755250Y-150812597D01*
X328183821Y-151812597D02*
X328612393Y-151241169D01*
X328183821Y-150812597D02*
X328755250Y-151384026D01*
X327707631Y-151812597D02*
X327517155Y-151812597D01*
X327421916Y-151764978D01*
X327374297Y-151717359D01*
X327279059Y-151574502D01*
X327231440Y-151384026D01*
X327231440Y-151003074D01*
X327279059Y-150907836D01*
X327326678Y-150860217D01*
X327421916Y-150812597D01*
X327612393Y-150812597D01*
X327707631Y-150860217D01*
X327755250Y-150907836D01*
X327802869Y-151003074D01*
X327802869Y-151241169D01*
X327755250Y-151336407D01*
X327707631Y-151384026D01*
X327612393Y-151431645D01*
X327421916Y-151431645D01*
X327326678Y-151384026D01*
X327279059Y-151336407D01*
X327231440Y-151241169D01*
%TO.C,K10*%
X317325190Y-75612597D02*
X317325190Y-74612597D01*
X316753762Y-75612597D02*
X317182333Y-75041169D01*
X316753762Y-74612597D02*
X317325190Y-75184026D01*
X315801381Y-75612597D02*
X316372809Y-75612597D01*
X316087095Y-75612597D02*
X316087095Y-74612597D01*
X316182333Y-74755455D01*
X316277571Y-74850693D01*
X316372809Y-74898312D01*
X315182333Y-74612597D02*
X315087095Y-74612597D01*
X314991857Y-74660217D01*
X314944238Y-74707836D01*
X314896619Y-74803074D01*
X314849000Y-74993550D01*
X314849000Y-75231645D01*
X314896619Y-75422121D01*
X314944238Y-75517359D01*
X314991857Y-75564978D01*
X315087095Y-75612597D01*
X315182333Y-75612597D01*
X315277571Y-75564978D01*
X315325190Y-75517359D01*
X315372809Y-75422121D01*
X315420428Y-75231645D01*
X315420428Y-74993550D01*
X315372809Y-74803074D01*
X315325190Y-74707836D01*
X315277571Y-74660217D01*
X315182333Y-74612597D01*
%TO.C,K11*%
X307800190Y-94662597D02*
X307800190Y-93662597D01*
X307228762Y-94662597D02*
X307657333Y-94091169D01*
X307228762Y-93662597D02*
X307800190Y-94234026D01*
X306276381Y-94662597D02*
X306847809Y-94662597D01*
X306562095Y-94662597D02*
X306562095Y-93662597D01*
X306657333Y-93805455D01*
X306752571Y-93900693D01*
X306847809Y-93948312D01*
X305324000Y-94662597D02*
X305895428Y-94662597D01*
X305609714Y-94662597D02*
X305609714Y-93662597D01*
X305704952Y-93805455D01*
X305800190Y-93900693D01*
X305895428Y-93948312D01*
%TO.C,K12*%
X303037690Y-113712597D02*
X303037690Y-112712597D01*
X302466262Y-113712597D02*
X302894833Y-113141169D01*
X302466262Y-112712597D02*
X303037690Y-113284026D01*
X301513881Y-113712597D02*
X302085309Y-113712597D01*
X301799595Y-113712597D02*
X301799595Y-112712597D01*
X301894833Y-112855455D01*
X301990071Y-112950693D01*
X302085309Y-112998312D01*
X301132928Y-112807836D02*
X301085309Y-112760217D01*
X300990071Y-112712597D01*
X300751976Y-112712597D01*
X300656738Y-112760217D01*
X300609119Y-112807836D01*
X300561500Y-112903074D01*
X300561500Y-112998312D01*
X300609119Y-113141169D01*
X301180547Y-113712597D01*
X300561500Y-113712597D01*
%TO.C,K13*%
X312562690Y-132762597D02*
X312562690Y-131762597D01*
X311991262Y-132762597D02*
X312419833Y-132191169D01*
X311991262Y-131762597D02*
X312562690Y-132334026D01*
X311038881Y-132762597D02*
X311610309Y-132762597D01*
X311324595Y-132762597D02*
X311324595Y-131762597D01*
X311419833Y-131905455D01*
X311515071Y-132000693D01*
X311610309Y-132048312D01*
X310705547Y-131762597D02*
X310086500Y-131762597D01*
X310419833Y-132143550D01*
X310276976Y-132143550D01*
X310181738Y-132191169D01*
X310134119Y-132238788D01*
X310086500Y-132334026D01*
X310086500Y-132572121D01*
X310134119Y-132667359D01*
X310181738Y-132714978D01*
X310276976Y-132762597D01*
X310562690Y-132762597D01*
X310657928Y-132714978D01*
X310705547Y-132667359D01*
%TO.C,K14*%
X305418940Y-151812597D02*
X305418940Y-150812597D01*
X304847512Y-151812597D02*
X305276083Y-151241169D01*
X304847512Y-150812597D02*
X305418940Y-151384026D01*
X303895131Y-151812597D02*
X304466559Y-151812597D01*
X304180845Y-151812597D02*
X304180845Y-150812597D01*
X304276083Y-150955455D01*
X304371321Y-151050693D01*
X304466559Y-151098312D01*
X303037988Y-151145931D02*
X303037988Y-151812597D01*
X303276083Y-150764978D02*
X303514178Y-151479264D01*
X302895131Y-151479264D01*
%TO.C,K15*%
X298275190Y-75612597D02*
X298275190Y-74612597D01*
X297703762Y-75612597D02*
X298132333Y-75041169D01*
X297703762Y-74612597D02*
X298275190Y-75184026D01*
X296751381Y-75612597D02*
X297322809Y-75612597D01*
X297037095Y-75612597D02*
X297037095Y-74612597D01*
X297132333Y-74755455D01*
X297227571Y-74850693D01*
X297322809Y-74898312D01*
X295846619Y-74612597D02*
X296322809Y-74612597D01*
X296370428Y-75088788D01*
X296322809Y-75041169D01*
X296227571Y-74993550D01*
X295989476Y-74993550D01*
X295894238Y-75041169D01*
X295846619Y-75088788D01*
X295799000Y-75184026D01*
X295799000Y-75422121D01*
X295846619Y-75517359D01*
X295894238Y-75564978D01*
X295989476Y-75612597D01*
X296227571Y-75612597D01*
X296322809Y-75564978D01*
X296370428Y-75517359D01*
%TO.C,K16*%
X288750190Y-94662597D02*
X288750190Y-93662597D01*
X288178762Y-94662597D02*
X288607333Y-94091169D01*
X288178762Y-93662597D02*
X288750190Y-94234026D01*
X287226381Y-94662597D02*
X287797809Y-94662597D01*
X287512095Y-94662597D02*
X287512095Y-93662597D01*
X287607333Y-93805455D01*
X287702571Y-93900693D01*
X287797809Y-93948312D01*
X286369238Y-93662597D02*
X286559714Y-93662597D01*
X286654952Y-93710217D01*
X286702571Y-93757836D01*
X286797809Y-93900693D01*
X286845428Y-94091169D01*
X286845428Y-94472121D01*
X286797809Y-94567359D01*
X286750190Y-94614978D01*
X286654952Y-94662597D01*
X286464476Y-94662597D01*
X286369238Y-94614978D01*
X286321619Y-94567359D01*
X286274000Y-94472121D01*
X286274000Y-94234026D01*
X286321619Y-94138788D01*
X286369238Y-94091169D01*
X286464476Y-94043550D01*
X286654952Y-94043550D01*
X286750190Y-94091169D01*
X286797809Y-94138788D01*
X286845428Y-94234026D01*
%TO.C,K17*%
X283987690Y-113712597D02*
X283987690Y-112712597D01*
X283416262Y-113712597D02*
X283844833Y-113141169D01*
X283416262Y-112712597D02*
X283987690Y-113284026D01*
X282463881Y-113712597D02*
X283035309Y-113712597D01*
X282749595Y-113712597D02*
X282749595Y-112712597D01*
X282844833Y-112855455D01*
X282940071Y-112950693D01*
X283035309Y-112998312D01*
X282130547Y-112712597D02*
X281463881Y-112712597D01*
X281892452Y-113712597D01*
%TO.C,K18*%
X293512690Y-132762597D02*
X293512690Y-131762597D01*
X292941262Y-132762597D02*
X293369833Y-132191169D01*
X292941262Y-131762597D02*
X293512690Y-132334026D01*
X291988881Y-132762597D02*
X292560309Y-132762597D01*
X292274595Y-132762597D02*
X292274595Y-131762597D01*
X292369833Y-131905455D01*
X292465071Y-132000693D01*
X292560309Y-132048312D01*
X291417452Y-132191169D02*
X291512690Y-132143550D01*
X291560309Y-132095931D01*
X291607928Y-132000693D01*
X291607928Y-131953074D01*
X291560309Y-131857836D01*
X291512690Y-131810217D01*
X291417452Y-131762597D01*
X291226976Y-131762597D01*
X291131738Y-131810217D01*
X291084119Y-131857836D01*
X291036500Y-131953074D01*
X291036500Y-132000693D01*
X291084119Y-132095931D01*
X291131738Y-132143550D01*
X291226976Y-132191169D01*
X291417452Y-132191169D01*
X291512690Y-132238788D01*
X291560309Y-132286407D01*
X291607928Y-132381645D01*
X291607928Y-132572121D01*
X291560309Y-132667359D01*
X291512690Y-132714978D01*
X291417452Y-132762597D01*
X291226976Y-132762597D01*
X291131738Y-132714978D01*
X291084119Y-132667359D01*
X291036500Y-132572121D01*
X291036500Y-132381645D01*
X291084119Y-132286407D01*
X291131738Y-132238788D01*
X291226976Y-132191169D01*
%TO.C,K19*%
X279225190Y-75612597D02*
X279225190Y-74612597D01*
X278653762Y-75612597D02*
X279082333Y-75041169D01*
X278653762Y-74612597D02*
X279225190Y-75184026D01*
X277701381Y-75612597D02*
X278272809Y-75612597D01*
X277987095Y-75612597D02*
X277987095Y-74612597D01*
X278082333Y-74755455D01*
X278177571Y-74850693D01*
X278272809Y-74898312D01*
X277225190Y-75612597D02*
X277034714Y-75612597D01*
X276939476Y-75564978D01*
X276891857Y-75517359D01*
X276796619Y-75374502D01*
X276749000Y-75184026D01*
X276749000Y-74803074D01*
X276796619Y-74707836D01*
X276844238Y-74660217D01*
X276939476Y-74612597D01*
X277129952Y-74612597D01*
X277225190Y-74660217D01*
X277272809Y-74707836D01*
X277320428Y-74803074D01*
X277320428Y-75041169D01*
X277272809Y-75136407D01*
X277225190Y-75184026D01*
X277129952Y-75231645D01*
X276939476Y-75231645D01*
X276844238Y-75184026D01*
X276796619Y-75136407D01*
X276749000Y-75041169D01*
%TO.C,K20*%
X269700190Y-94662597D02*
X269700190Y-93662597D01*
X269128762Y-94662597D02*
X269557333Y-94091169D01*
X269128762Y-93662597D02*
X269700190Y-94234026D01*
X268747809Y-93757836D02*
X268700190Y-93710217D01*
X268604952Y-93662597D01*
X268366857Y-93662597D01*
X268271619Y-93710217D01*
X268224000Y-93757836D01*
X268176381Y-93853074D01*
X268176381Y-93948312D01*
X268224000Y-94091169D01*
X268795428Y-94662597D01*
X268176381Y-94662597D01*
X267557333Y-93662597D02*
X267462095Y-93662597D01*
X267366857Y-93710217D01*
X267319238Y-93757836D01*
X267271619Y-93853074D01*
X267224000Y-94043550D01*
X267224000Y-94281645D01*
X267271619Y-94472121D01*
X267319238Y-94567359D01*
X267366857Y-94614978D01*
X267462095Y-94662597D01*
X267557333Y-94662597D01*
X267652571Y-94614978D01*
X267700190Y-94567359D01*
X267747809Y-94472121D01*
X267795428Y-94281645D01*
X267795428Y-94043550D01*
X267747809Y-93853074D01*
X267700190Y-93757836D01*
X267652571Y-93710217D01*
X267557333Y-93662597D01*
%TO.C,K21*%
X264937690Y-113712597D02*
X264937690Y-112712597D01*
X264366262Y-113712597D02*
X264794833Y-113141169D01*
X264366262Y-112712597D02*
X264937690Y-113284026D01*
X263985309Y-112807836D02*
X263937690Y-112760217D01*
X263842452Y-112712597D01*
X263604357Y-112712597D01*
X263509119Y-112760217D01*
X263461500Y-112807836D01*
X263413881Y-112903074D01*
X263413881Y-112998312D01*
X263461500Y-113141169D01*
X264032928Y-113712597D01*
X263413881Y-113712597D01*
X262461500Y-113712597D02*
X263032928Y-113712597D01*
X262747214Y-113712597D02*
X262747214Y-112712597D01*
X262842452Y-112855455D01*
X262937690Y-112950693D01*
X263032928Y-112998312D01*
%TO.C,K22*%
X274462690Y-132762597D02*
X274462690Y-131762597D01*
X273891262Y-132762597D02*
X274319833Y-132191169D01*
X273891262Y-131762597D02*
X274462690Y-132334026D01*
X273510309Y-131857836D02*
X273462690Y-131810217D01*
X273367452Y-131762597D01*
X273129357Y-131762597D01*
X273034119Y-131810217D01*
X272986500Y-131857836D01*
X272938881Y-131953074D01*
X272938881Y-132048312D01*
X272986500Y-132191169D01*
X273557928Y-132762597D01*
X272938881Y-132762597D01*
X272557928Y-131857836D02*
X272510309Y-131810217D01*
X272415071Y-131762597D01*
X272176976Y-131762597D01*
X272081738Y-131810217D01*
X272034119Y-131857836D01*
X271986500Y-131953074D01*
X271986500Y-132048312D01*
X272034119Y-132191169D01*
X272605547Y-132762597D01*
X271986500Y-132762597D01*
%TO.C,K23*%
X260175190Y-75612597D02*
X260175190Y-74612597D01*
X259603762Y-75612597D02*
X260032333Y-75041169D01*
X259603762Y-74612597D02*
X260175190Y-75184026D01*
X259222809Y-74707836D02*
X259175190Y-74660217D01*
X259079952Y-74612597D01*
X258841857Y-74612597D01*
X258746619Y-74660217D01*
X258699000Y-74707836D01*
X258651381Y-74803074D01*
X258651381Y-74898312D01*
X258699000Y-75041169D01*
X259270428Y-75612597D01*
X258651381Y-75612597D01*
X258318047Y-74612597D02*
X257699000Y-74612597D01*
X258032333Y-74993550D01*
X257889476Y-74993550D01*
X257794238Y-75041169D01*
X257746619Y-75088788D01*
X257699000Y-75184026D01*
X257699000Y-75422121D01*
X257746619Y-75517359D01*
X257794238Y-75564978D01*
X257889476Y-75612597D01*
X258175190Y-75612597D01*
X258270428Y-75564978D01*
X258318047Y-75517359D01*
%TO.C,K24*%
X250650190Y-94662597D02*
X250650190Y-93662597D01*
X250078762Y-94662597D02*
X250507333Y-94091169D01*
X250078762Y-93662597D02*
X250650190Y-94234026D01*
X249697809Y-93757836D02*
X249650190Y-93710217D01*
X249554952Y-93662597D01*
X249316857Y-93662597D01*
X249221619Y-93710217D01*
X249174000Y-93757836D01*
X249126381Y-93853074D01*
X249126381Y-93948312D01*
X249174000Y-94091169D01*
X249745428Y-94662597D01*
X249126381Y-94662597D01*
X248269238Y-93995931D02*
X248269238Y-94662597D01*
X248507333Y-93614978D02*
X248745428Y-94329264D01*
X248126381Y-94329264D01*
%TO.C,K25*%
X245887690Y-113712597D02*
X245887690Y-112712597D01*
X245316262Y-113712597D02*
X245744833Y-113141169D01*
X245316262Y-112712597D02*
X245887690Y-113284026D01*
X244935309Y-112807836D02*
X244887690Y-112760217D01*
X244792452Y-112712597D01*
X244554357Y-112712597D01*
X244459119Y-112760217D01*
X244411500Y-112807836D01*
X244363881Y-112903074D01*
X244363881Y-112998312D01*
X244411500Y-113141169D01*
X244982928Y-113712597D01*
X244363881Y-113712597D01*
X243459119Y-112712597D02*
X243935309Y-112712597D01*
X243982928Y-113188788D01*
X243935309Y-113141169D01*
X243840071Y-113093550D01*
X243601976Y-113093550D01*
X243506738Y-113141169D01*
X243459119Y-113188788D01*
X243411500Y-113284026D01*
X243411500Y-113522121D01*
X243459119Y-113617359D01*
X243506738Y-113664978D01*
X243601976Y-113712597D01*
X243840071Y-113712597D01*
X243935309Y-113664978D01*
X243982928Y-113617359D01*
%TO.C,K26*%
X255412690Y-132762597D02*
X255412690Y-131762597D01*
X254841262Y-132762597D02*
X255269833Y-132191169D01*
X254841262Y-131762597D02*
X255412690Y-132334026D01*
X254460309Y-131857836D02*
X254412690Y-131810217D01*
X254317452Y-131762597D01*
X254079357Y-131762597D01*
X253984119Y-131810217D01*
X253936500Y-131857836D01*
X253888881Y-131953074D01*
X253888881Y-132048312D01*
X253936500Y-132191169D01*
X254507928Y-132762597D01*
X253888881Y-132762597D01*
X253031738Y-131762597D02*
X253222214Y-131762597D01*
X253317452Y-131810217D01*
X253365071Y-131857836D01*
X253460309Y-132000693D01*
X253507928Y-132191169D01*
X253507928Y-132572121D01*
X253460309Y-132667359D01*
X253412690Y-132714978D01*
X253317452Y-132762597D01*
X253126976Y-132762597D01*
X253031738Y-132714978D01*
X252984119Y-132667359D01*
X252936500Y-132572121D01*
X252936500Y-132334026D01*
X252984119Y-132238788D01*
X253031738Y-132191169D01*
X253126976Y-132143550D01*
X253317452Y-132143550D01*
X253412690Y-132191169D01*
X253460309Y-132238788D01*
X253507928Y-132334026D01*
%TO.C,K27*%
X241125190Y-75612597D02*
X241125190Y-74612597D01*
X240553762Y-75612597D02*
X240982333Y-75041169D01*
X240553762Y-74612597D02*
X241125190Y-75184026D01*
X240172809Y-74707836D02*
X240125190Y-74660217D01*
X240029952Y-74612597D01*
X239791857Y-74612597D01*
X239696619Y-74660217D01*
X239649000Y-74707836D01*
X239601381Y-74803074D01*
X239601381Y-74898312D01*
X239649000Y-75041169D01*
X240220428Y-75612597D01*
X239601381Y-75612597D01*
X239268047Y-74612597D02*
X238601381Y-74612597D01*
X239029952Y-75612597D01*
%TO.C,K28*%
X231600190Y-94662597D02*
X231600190Y-93662597D01*
X231028762Y-94662597D02*
X231457333Y-94091169D01*
X231028762Y-93662597D02*
X231600190Y-94234026D01*
X230647809Y-93757836D02*
X230600190Y-93710217D01*
X230504952Y-93662597D01*
X230266857Y-93662597D01*
X230171619Y-93710217D01*
X230124000Y-93757836D01*
X230076381Y-93853074D01*
X230076381Y-93948312D01*
X230124000Y-94091169D01*
X230695428Y-94662597D01*
X230076381Y-94662597D01*
X229504952Y-94091169D02*
X229600190Y-94043550D01*
X229647809Y-93995931D01*
X229695428Y-93900693D01*
X229695428Y-93853074D01*
X229647809Y-93757836D01*
X229600190Y-93710217D01*
X229504952Y-93662597D01*
X229314476Y-93662597D01*
X229219238Y-93710217D01*
X229171619Y-93757836D01*
X229124000Y-93853074D01*
X229124000Y-93900693D01*
X229171619Y-93995931D01*
X229219238Y-94043550D01*
X229314476Y-94091169D01*
X229504952Y-94091169D01*
X229600190Y-94138788D01*
X229647809Y-94186407D01*
X229695428Y-94281645D01*
X229695428Y-94472121D01*
X229647809Y-94567359D01*
X229600190Y-94614978D01*
X229504952Y-94662597D01*
X229314476Y-94662597D01*
X229219238Y-94614978D01*
X229171619Y-94567359D01*
X229124000Y-94472121D01*
X229124000Y-94281645D01*
X229171619Y-94186407D01*
X229219238Y-94138788D01*
X229314476Y-94091169D01*
%TO.C,K29*%
X226837690Y-113712597D02*
X226837690Y-112712597D01*
X226266262Y-113712597D02*
X226694833Y-113141169D01*
X226266262Y-112712597D02*
X226837690Y-113284026D01*
X225885309Y-112807836D02*
X225837690Y-112760217D01*
X225742452Y-112712597D01*
X225504357Y-112712597D01*
X225409119Y-112760217D01*
X225361500Y-112807836D01*
X225313881Y-112903074D01*
X225313881Y-112998312D01*
X225361500Y-113141169D01*
X225932928Y-113712597D01*
X225313881Y-113712597D01*
X224837690Y-113712597D02*
X224647214Y-113712597D01*
X224551976Y-113664978D01*
X224504357Y-113617359D01*
X224409119Y-113474502D01*
X224361500Y-113284026D01*
X224361500Y-112903074D01*
X224409119Y-112807836D01*
X224456738Y-112760217D01*
X224551976Y-112712597D01*
X224742452Y-112712597D01*
X224837690Y-112760217D01*
X224885309Y-112807836D01*
X224932928Y-112903074D01*
X224932928Y-113141169D01*
X224885309Y-113236407D01*
X224837690Y-113284026D01*
X224742452Y-113331645D01*
X224551976Y-113331645D01*
X224456738Y-113284026D01*
X224409119Y-113236407D01*
X224361500Y-113141169D01*
%TO.C,K30*%
X236362690Y-132762597D02*
X236362690Y-131762597D01*
X235791262Y-132762597D02*
X236219833Y-132191169D01*
X235791262Y-131762597D02*
X236362690Y-132334026D01*
X235457928Y-131762597D02*
X234838881Y-131762597D01*
X235172214Y-132143550D01*
X235029357Y-132143550D01*
X234934119Y-132191169D01*
X234886500Y-132238788D01*
X234838881Y-132334026D01*
X234838881Y-132572121D01*
X234886500Y-132667359D01*
X234934119Y-132714978D01*
X235029357Y-132762597D01*
X235315071Y-132762597D01*
X235410309Y-132714978D01*
X235457928Y-132667359D01*
X234219833Y-131762597D02*
X234124595Y-131762597D01*
X234029357Y-131810217D01*
X233981738Y-131857836D01*
X233934119Y-131953074D01*
X233886500Y-132143550D01*
X233886500Y-132381645D01*
X233934119Y-132572121D01*
X233981738Y-132667359D01*
X234029357Y-132714978D01*
X234124595Y-132762597D01*
X234219833Y-132762597D01*
X234315071Y-132714978D01*
X234362690Y-132667359D01*
X234410309Y-132572121D01*
X234457928Y-132381645D01*
X234457928Y-132143550D01*
X234410309Y-131953074D01*
X234362690Y-131857836D01*
X234315071Y-131810217D01*
X234219833Y-131762597D01*
%TO.C,K31*%
X233981440Y-151812597D02*
X233981440Y-150812597D01*
X233410012Y-151812597D02*
X233838583Y-151241169D01*
X233410012Y-150812597D02*
X233981440Y-151384026D01*
X233076678Y-150812597D02*
X232457631Y-150812597D01*
X232790964Y-151193550D01*
X232648107Y-151193550D01*
X232552869Y-151241169D01*
X232505250Y-151288788D01*
X232457631Y-151384026D01*
X232457631Y-151622121D01*
X232505250Y-151717359D01*
X232552869Y-151764978D01*
X232648107Y-151812597D01*
X232933821Y-151812597D01*
X233029059Y-151764978D01*
X233076678Y-151717359D01*
X231505250Y-151812597D02*
X232076678Y-151812597D01*
X231790964Y-151812597D02*
X231790964Y-150812597D01*
X231886202Y-150955455D01*
X231981440Y-151050693D01*
X232076678Y-151098312D01*
%TO.C,K32*%
X222075190Y-75612597D02*
X222075190Y-74612597D01*
X221503762Y-75612597D02*
X221932333Y-75041169D01*
X221503762Y-74612597D02*
X222075190Y-75184026D01*
X221170428Y-74612597D02*
X220551381Y-74612597D01*
X220884714Y-74993550D01*
X220741857Y-74993550D01*
X220646619Y-75041169D01*
X220599000Y-75088788D01*
X220551381Y-75184026D01*
X220551381Y-75422121D01*
X220599000Y-75517359D01*
X220646619Y-75564978D01*
X220741857Y-75612597D01*
X221027571Y-75612597D01*
X221122809Y-75564978D01*
X221170428Y-75517359D01*
X220170428Y-74707836D02*
X220122809Y-74660217D01*
X220027571Y-74612597D01*
X219789476Y-74612597D01*
X219694238Y-74660217D01*
X219646619Y-74707836D01*
X219599000Y-74803074D01*
X219599000Y-74898312D01*
X219646619Y-75041169D01*
X220218047Y-75612597D01*
X219599000Y-75612597D01*
%TO.C,K33*%
X212550190Y-94662597D02*
X212550190Y-93662597D01*
X211978762Y-94662597D02*
X212407333Y-94091169D01*
X211978762Y-93662597D02*
X212550190Y-94234026D01*
X211645428Y-93662597D02*
X211026381Y-93662597D01*
X211359714Y-94043550D01*
X211216857Y-94043550D01*
X211121619Y-94091169D01*
X211074000Y-94138788D01*
X211026381Y-94234026D01*
X211026381Y-94472121D01*
X211074000Y-94567359D01*
X211121619Y-94614978D01*
X211216857Y-94662597D01*
X211502571Y-94662597D01*
X211597809Y-94614978D01*
X211645428Y-94567359D01*
X210693047Y-93662597D02*
X210074000Y-93662597D01*
X210407333Y-94043550D01*
X210264476Y-94043550D01*
X210169238Y-94091169D01*
X210121619Y-94138788D01*
X210074000Y-94234026D01*
X210074000Y-94472121D01*
X210121619Y-94567359D01*
X210169238Y-94614978D01*
X210264476Y-94662597D01*
X210550190Y-94662597D01*
X210645428Y-94614978D01*
X210693047Y-94567359D01*
%TO.C,K34*%
X207787690Y-113712597D02*
X207787690Y-112712597D01*
X207216262Y-113712597D02*
X207644833Y-113141169D01*
X207216262Y-112712597D02*
X207787690Y-113284026D01*
X206882928Y-112712597D02*
X206263881Y-112712597D01*
X206597214Y-113093550D01*
X206454357Y-113093550D01*
X206359119Y-113141169D01*
X206311500Y-113188788D01*
X206263881Y-113284026D01*
X206263881Y-113522121D01*
X206311500Y-113617359D01*
X206359119Y-113664978D01*
X206454357Y-113712597D01*
X206740071Y-113712597D01*
X206835309Y-113664978D01*
X206882928Y-113617359D01*
X205406738Y-113045931D02*
X205406738Y-113712597D01*
X205644833Y-112664978D02*
X205882928Y-113379264D01*
X205263881Y-113379264D01*
%TO.C,K35*%
X217312690Y-132762597D02*
X217312690Y-131762597D01*
X216741262Y-132762597D02*
X217169833Y-132191169D01*
X216741262Y-131762597D02*
X217312690Y-132334026D01*
X216407928Y-131762597D02*
X215788881Y-131762597D01*
X216122214Y-132143550D01*
X215979357Y-132143550D01*
X215884119Y-132191169D01*
X215836500Y-132238788D01*
X215788881Y-132334026D01*
X215788881Y-132572121D01*
X215836500Y-132667359D01*
X215884119Y-132714978D01*
X215979357Y-132762597D01*
X216265071Y-132762597D01*
X216360309Y-132714978D01*
X216407928Y-132667359D01*
X214884119Y-131762597D02*
X215360309Y-131762597D01*
X215407928Y-132238788D01*
X215360309Y-132191169D01*
X215265071Y-132143550D01*
X215026976Y-132143550D01*
X214931738Y-132191169D01*
X214884119Y-132238788D01*
X214836500Y-132334026D01*
X214836500Y-132572121D01*
X214884119Y-132667359D01*
X214931738Y-132714978D01*
X215026976Y-132762597D01*
X215265071Y-132762597D01*
X215360309Y-132714978D01*
X215407928Y-132667359D01*
%TO.C,K36*%
X203025190Y-75612597D02*
X203025190Y-74612597D01*
X202453762Y-75612597D02*
X202882333Y-75041169D01*
X202453762Y-74612597D02*
X203025190Y-75184026D01*
X202120428Y-74612597D02*
X201501381Y-74612597D01*
X201834714Y-74993550D01*
X201691857Y-74993550D01*
X201596619Y-75041169D01*
X201549000Y-75088788D01*
X201501381Y-75184026D01*
X201501381Y-75422121D01*
X201549000Y-75517359D01*
X201596619Y-75564978D01*
X201691857Y-75612597D01*
X201977571Y-75612597D01*
X202072809Y-75564978D01*
X202120428Y-75517359D01*
X200644238Y-74612597D02*
X200834714Y-74612597D01*
X200929952Y-74660217D01*
X200977571Y-74707836D01*
X201072809Y-74850693D01*
X201120428Y-75041169D01*
X201120428Y-75422121D01*
X201072809Y-75517359D01*
X201025190Y-75564978D01*
X200929952Y-75612597D01*
X200739476Y-75612597D01*
X200644238Y-75564978D01*
X200596619Y-75517359D01*
X200549000Y-75422121D01*
X200549000Y-75184026D01*
X200596619Y-75088788D01*
X200644238Y-75041169D01*
X200739476Y-74993550D01*
X200929952Y-74993550D01*
X201025190Y-75041169D01*
X201072809Y-75088788D01*
X201120428Y-75184026D01*
%TO.C,K37*%
X193500190Y-94662597D02*
X193500190Y-93662597D01*
X192928762Y-94662597D02*
X193357333Y-94091169D01*
X192928762Y-93662597D02*
X193500190Y-94234026D01*
X192595428Y-93662597D02*
X191976381Y-93662597D01*
X192309714Y-94043550D01*
X192166857Y-94043550D01*
X192071619Y-94091169D01*
X192024000Y-94138788D01*
X191976381Y-94234026D01*
X191976381Y-94472121D01*
X192024000Y-94567359D01*
X192071619Y-94614978D01*
X192166857Y-94662597D01*
X192452571Y-94662597D01*
X192547809Y-94614978D01*
X192595428Y-94567359D01*
X191643047Y-93662597D02*
X190976381Y-93662597D01*
X191404952Y-94662597D01*
%TO.C,K38*%
X188737690Y-113712597D02*
X188737690Y-112712597D01*
X188166262Y-113712597D02*
X188594833Y-113141169D01*
X188166262Y-112712597D02*
X188737690Y-113284026D01*
X187832928Y-112712597D02*
X187213881Y-112712597D01*
X187547214Y-113093550D01*
X187404357Y-113093550D01*
X187309119Y-113141169D01*
X187261500Y-113188788D01*
X187213881Y-113284026D01*
X187213881Y-113522121D01*
X187261500Y-113617359D01*
X187309119Y-113664978D01*
X187404357Y-113712597D01*
X187690071Y-113712597D01*
X187785309Y-113664978D01*
X187832928Y-113617359D01*
X186642452Y-113141169D02*
X186737690Y-113093550D01*
X186785309Y-113045931D01*
X186832928Y-112950693D01*
X186832928Y-112903074D01*
X186785309Y-112807836D01*
X186737690Y-112760217D01*
X186642452Y-112712597D01*
X186451976Y-112712597D01*
X186356738Y-112760217D01*
X186309119Y-112807836D01*
X186261500Y-112903074D01*
X186261500Y-112950693D01*
X186309119Y-113045931D01*
X186356738Y-113093550D01*
X186451976Y-113141169D01*
X186642452Y-113141169D01*
X186737690Y-113188788D01*
X186785309Y-113236407D01*
X186832928Y-113331645D01*
X186832928Y-113522121D01*
X186785309Y-113617359D01*
X186737690Y-113664978D01*
X186642452Y-113712597D01*
X186451976Y-113712597D01*
X186356738Y-113664978D01*
X186309119Y-113617359D01*
X186261500Y-113522121D01*
X186261500Y-113331645D01*
X186309119Y-113236407D01*
X186356738Y-113188788D01*
X186451976Y-113141169D01*
%TO.C,K39*%
X198262690Y-132762597D02*
X198262690Y-131762597D01*
X197691262Y-132762597D02*
X198119833Y-132191169D01*
X197691262Y-131762597D02*
X198262690Y-132334026D01*
X197357928Y-131762597D02*
X196738881Y-131762597D01*
X197072214Y-132143550D01*
X196929357Y-132143550D01*
X196834119Y-132191169D01*
X196786500Y-132238788D01*
X196738881Y-132334026D01*
X196738881Y-132572121D01*
X196786500Y-132667359D01*
X196834119Y-132714978D01*
X196929357Y-132762597D01*
X197215071Y-132762597D01*
X197310309Y-132714978D01*
X197357928Y-132667359D01*
X196262690Y-132762597D02*
X196072214Y-132762597D01*
X195976976Y-132714978D01*
X195929357Y-132667359D01*
X195834119Y-132524502D01*
X195786500Y-132334026D01*
X195786500Y-131953074D01*
X195834119Y-131857836D01*
X195881738Y-131810217D01*
X195976976Y-131762597D01*
X196167452Y-131762597D01*
X196262690Y-131810217D01*
X196310309Y-131857836D01*
X196357928Y-131953074D01*
X196357928Y-132191169D01*
X196310309Y-132286407D01*
X196262690Y-132334026D01*
X196167452Y-132381645D01*
X195976976Y-132381645D01*
X195881738Y-132334026D01*
X195834119Y-132286407D01*
X195786500Y-132191169D01*
%TO.C,K40*%
X183975190Y-75612597D02*
X183975190Y-74612597D01*
X183403762Y-75612597D02*
X183832333Y-75041169D01*
X183403762Y-74612597D02*
X183975190Y-75184026D01*
X182546619Y-74945931D02*
X182546619Y-75612597D01*
X182784714Y-74564978D02*
X183022809Y-75279264D01*
X182403762Y-75279264D01*
X181832333Y-74612597D02*
X181737095Y-74612597D01*
X181641857Y-74660217D01*
X181594238Y-74707836D01*
X181546619Y-74803074D01*
X181499000Y-74993550D01*
X181499000Y-75231645D01*
X181546619Y-75422121D01*
X181594238Y-75517359D01*
X181641857Y-75564978D01*
X181737095Y-75612597D01*
X181832333Y-75612597D01*
X181927571Y-75564978D01*
X181975190Y-75517359D01*
X182022809Y-75422121D01*
X182070428Y-75231645D01*
X182070428Y-74993550D01*
X182022809Y-74803074D01*
X181975190Y-74707836D01*
X181927571Y-74660217D01*
X181832333Y-74612597D01*
%TO.C,K41*%
X174450190Y-94662597D02*
X174450190Y-93662597D01*
X173878762Y-94662597D02*
X174307333Y-94091169D01*
X173878762Y-93662597D02*
X174450190Y-94234026D01*
X173021619Y-93995931D02*
X173021619Y-94662597D01*
X173259714Y-93614978D02*
X173497809Y-94329264D01*
X172878762Y-94329264D01*
X171974000Y-94662597D02*
X172545428Y-94662597D01*
X172259714Y-94662597D02*
X172259714Y-93662597D01*
X172354952Y-93805455D01*
X172450190Y-93900693D01*
X172545428Y-93948312D01*
%TO.C,K42*%
X169687690Y-113712597D02*
X169687690Y-112712597D01*
X169116262Y-113712597D02*
X169544833Y-113141169D01*
X169116262Y-112712597D02*
X169687690Y-113284026D01*
X168259119Y-113045931D02*
X168259119Y-113712597D01*
X168497214Y-112664978D02*
X168735309Y-113379264D01*
X168116262Y-113379264D01*
X167782928Y-112807836D02*
X167735309Y-112760217D01*
X167640071Y-112712597D01*
X167401976Y-112712597D01*
X167306738Y-112760217D01*
X167259119Y-112807836D01*
X167211500Y-112903074D01*
X167211500Y-112998312D01*
X167259119Y-113141169D01*
X167830547Y-113712597D01*
X167211500Y-113712597D01*
%TO.C,K43*%
X179212690Y-132762597D02*
X179212690Y-131762597D01*
X178641262Y-132762597D02*
X179069833Y-132191169D01*
X178641262Y-131762597D02*
X179212690Y-132334026D01*
X177784119Y-132095931D02*
X177784119Y-132762597D01*
X178022214Y-131714978D02*
X178260309Y-132429264D01*
X177641262Y-132429264D01*
X177355547Y-131762597D02*
X176736500Y-131762597D01*
X177069833Y-132143550D01*
X176926976Y-132143550D01*
X176831738Y-132191169D01*
X176784119Y-132238788D01*
X176736500Y-132334026D01*
X176736500Y-132572121D01*
X176784119Y-132667359D01*
X176831738Y-132714978D01*
X176926976Y-132762597D01*
X177212690Y-132762597D01*
X177307928Y-132714978D01*
X177355547Y-132667359D01*
%TO.C,K44*%
X164925190Y-151812597D02*
X164925190Y-150812597D01*
X164353762Y-151812597D02*
X164782333Y-151241169D01*
X164353762Y-150812597D02*
X164925190Y-151384026D01*
X163496619Y-151145931D02*
X163496619Y-151812597D01*
X163734714Y-150764978D02*
X163972809Y-151479264D01*
X163353762Y-151479264D01*
X162544238Y-151145931D02*
X162544238Y-151812597D01*
X162782333Y-150764978D02*
X163020428Y-151479264D01*
X162401381Y-151479264D01*
%TO.C,K45*%
X164925190Y-75612597D02*
X164925190Y-74612597D01*
X164353762Y-75612597D02*
X164782333Y-75041169D01*
X164353762Y-74612597D02*
X164925190Y-75184026D01*
X163496619Y-74945931D02*
X163496619Y-75612597D01*
X163734714Y-74564978D02*
X163972809Y-75279264D01*
X163353762Y-75279264D01*
X162496619Y-74612597D02*
X162972809Y-74612597D01*
X163020428Y-75088788D01*
X162972809Y-75041169D01*
X162877571Y-74993550D01*
X162639476Y-74993550D01*
X162544238Y-75041169D01*
X162496619Y-75088788D01*
X162449000Y-75184026D01*
X162449000Y-75422121D01*
X162496619Y-75517359D01*
X162544238Y-75564978D01*
X162639476Y-75612597D01*
X162877571Y-75612597D01*
X162972809Y-75564978D01*
X163020428Y-75517359D01*
%TO.C,K46*%
X155400190Y-94662597D02*
X155400190Y-93662597D01*
X154828762Y-94662597D02*
X155257333Y-94091169D01*
X154828762Y-93662597D02*
X155400190Y-94234026D01*
X153971619Y-93995931D02*
X153971619Y-94662597D01*
X154209714Y-93614978D02*
X154447809Y-94329264D01*
X153828762Y-94329264D01*
X153019238Y-93662597D02*
X153209714Y-93662597D01*
X153304952Y-93710217D01*
X153352571Y-93757836D01*
X153447809Y-93900693D01*
X153495428Y-94091169D01*
X153495428Y-94472121D01*
X153447809Y-94567359D01*
X153400190Y-94614978D01*
X153304952Y-94662597D01*
X153114476Y-94662597D01*
X153019238Y-94614978D01*
X152971619Y-94567359D01*
X152924000Y-94472121D01*
X152924000Y-94234026D01*
X152971619Y-94138788D01*
X153019238Y-94091169D01*
X153114476Y-94043550D01*
X153304952Y-94043550D01*
X153400190Y-94091169D01*
X153447809Y-94138788D01*
X153495428Y-94234026D01*
%TO.C,K47*%
X150637690Y-113712597D02*
X150637690Y-112712597D01*
X150066262Y-113712597D02*
X150494833Y-113141169D01*
X150066262Y-112712597D02*
X150637690Y-113284026D01*
X149209119Y-113045931D02*
X149209119Y-113712597D01*
X149447214Y-112664978D02*
X149685309Y-113379264D01*
X149066262Y-113379264D01*
X148780547Y-112712597D02*
X148113881Y-112712597D01*
X148542452Y-113712597D01*
%TO.C,K48*%
X160162690Y-132762597D02*
X160162690Y-131762597D01*
X159591262Y-132762597D02*
X160019833Y-132191169D01*
X159591262Y-131762597D02*
X160162690Y-132334026D01*
X158734119Y-132095931D02*
X158734119Y-132762597D01*
X158972214Y-131714978D02*
X159210309Y-132429264D01*
X158591262Y-132429264D01*
X158067452Y-132191169D02*
X158162690Y-132143550D01*
X158210309Y-132095931D01*
X158257928Y-132000693D01*
X158257928Y-131953074D01*
X158210309Y-131857836D01*
X158162690Y-131810217D01*
X158067452Y-131762597D01*
X157876976Y-131762597D01*
X157781738Y-131810217D01*
X157734119Y-131857836D01*
X157686500Y-131953074D01*
X157686500Y-132000693D01*
X157734119Y-132095931D01*
X157781738Y-132143550D01*
X157876976Y-132191169D01*
X158067452Y-132191169D01*
X158162690Y-132238788D01*
X158210309Y-132286407D01*
X158257928Y-132381645D01*
X158257928Y-132572121D01*
X158210309Y-132667359D01*
X158162690Y-132714978D01*
X158067452Y-132762597D01*
X157876976Y-132762597D01*
X157781738Y-132714978D01*
X157734119Y-132667359D01*
X157686500Y-132572121D01*
X157686500Y-132381645D01*
X157734119Y-132286407D01*
X157781738Y-132238788D01*
X157876976Y-132191169D01*
%TO.C,K49*%
X145875190Y-151812597D02*
X145875190Y-150812597D01*
X145303762Y-151812597D02*
X145732333Y-151241169D01*
X145303762Y-150812597D02*
X145875190Y-151384026D01*
X144446619Y-151145931D02*
X144446619Y-151812597D01*
X144684714Y-150764978D02*
X144922809Y-151479264D01*
X144303762Y-151479264D01*
X143875190Y-151812597D02*
X143684714Y-151812597D01*
X143589476Y-151764978D01*
X143541857Y-151717359D01*
X143446619Y-151574502D01*
X143399000Y-151384026D01*
X143399000Y-151003074D01*
X143446619Y-150907836D01*
X143494238Y-150860217D01*
X143589476Y-150812597D01*
X143779952Y-150812597D01*
X143875190Y-150860217D01*
X143922809Y-150907836D01*
X143970428Y-151003074D01*
X143970428Y-151241169D01*
X143922809Y-151336407D01*
X143875190Y-151384026D01*
X143779952Y-151431645D01*
X143589476Y-151431645D01*
X143494238Y-151384026D01*
X143446619Y-151336407D01*
X143399000Y-151241169D01*
%TO.C,K50*%
X145875190Y-75612597D02*
X145875190Y-74612597D01*
X145303762Y-75612597D02*
X145732333Y-75041169D01*
X145303762Y-74612597D02*
X145875190Y-75184026D01*
X144399000Y-74612597D02*
X144875190Y-74612597D01*
X144922809Y-75088788D01*
X144875190Y-75041169D01*
X144779952Y-74993550D01*
X144541857Y-74993550D01*
X144446619Y-75041169D01*
X144399000Y-75088788D01*
X144351381Y-75184026D01*
X144351381Y-75422121D01*
X144399000Y-75517359D01*
X144446619Y-75564978D01*
X144541857Y-75612597D01*
X144779952Y-75612597D01*
X144875190Y-75564978D01*
X144922809Y-75517359D01*
X143732333Y-74612597D02*
X143637095Y-74612597D01*
X143541857Y-74660217D01*
X143494238Y-74707836D01*
X143446619Y-74803074D01*
X143399000Y-74993550D01*
X143399000Y-75231645D01*
X143446619Y-75422121D01*
X143494238Y-75517359D01*
X143541857Y-75564978D01*
X143637095Y-75612597D01*
X143732333Y-75612597D01*
X143827571Y-75564978D01*
X143875190Y-75517359D01*
X143922809Y-75422121D01*
X143970428Y-75231645D01*
X143970428Y-74993550D01*
X143922809Y-74803074D01*
X143875190Y-74707836D01*
X143827571Y-74660217D01*
X143732333Y-74612597D01*
%TO.C,K51*%
X136350190Y-94662597D02*
X136350190Y-93662597D01*
X135778762Y-94662597D02*
X136207333Y-94091169D01*
X135778762Y-93662597D02*
X136350190Y-94234026D01*
X134874000Y-93662597D02*
X135350190Y-93662597D01*
X135397809Y-94138788D01*
X135350190Y-94091169D01*
X135254952Y-94043550D01*
X135016857Y-94043550D01*
X134921619Y-94091169D01*
X134874000Y-94138788D01*
X134826381Y-94234026D01*
X134826381Y-94472121D01*
X134874000Y-94567359D01*
X134921619Y-94614978D01*
X135016857Y-94662597D01*
X135254952Y-94662597D01*
X135350190Y-94614978D01*
X135397809Y-94567359D01*
X133874000Y-94662597D02*
X134445428Y-94662597D01*
X134159714Y-94662597D02*
X134159714Y-93662597D01*
X134254952Y-93805455D01*
X134350190Y-93900693D01*
X134445428Y-93948312D01*
%TO.C,K52*%
X131587690Y-113712597D02*
X131587690Y-112712597D01*
X131016262Y-113712597D02*
X131444833Y-113141169D01*
X131016262Y-112712597D02*
X131587690Y-113284026D01*
X130111500Y-112712597D02*
X130587690Y-112712597D01*
X130635309Y-113188788D01*
X130587690Y-113141169D01*
X130492452Y-113093550D01*
X130254357Y-113093550D01*
X130159119Y-113141169D01*
X130111500Y-113188788D01*
X130063881Y-113284026D01*
X130063881Y-113522121D01*
X130111500Y-113617359D01*
X130159119Y-113664978D01*
X130254357Y-113712597D01*
X130492452Y-113712597D01*
X130587690Y-113664978D01*
X130635309Y-113617359D01*
X129682928Y-112807836D02*
X129635309Y-112760217D01*
X129540071Y-112712597D01*
X129301976Y-112712597D01*
X129206738Y-112760217D01*
X129159119Y-112807836D01*
X129111500Y-112903074D01*
X129111500Y-112998312D01*
X129159119Y-113141169D01*
X129730547Y-113712597D01*
X129111500Y-113712597D01*
%TO.C,K53*%
X141112690Y-132762597D02*
X141112690Y-131762597D01*
X140541262Y-132762597D02*
X140969833Y-132191169D01*
X140541262Y-131762597D02*
X141112690Y-132334026D01*
X139636500Y-131762597D02*
X140112690Y-131762597D01*
X140160309Y-132238788D01*
X140112690Y-132191169D01*
X140017452Y-132143550D01*
X139779357Y-132143550D01*
X139684119Y-132191169D01*
X139636500Y-132238788D01*
X139588881Y-132334026D01*
X139588881Y-132572121D01*
X139636500Y-132667359D01*
X139684119Y-132714978D01*
X139779357Y-132762597D01*
X140017452Y-132762597D01*
X140112690Y-132714978D01*
X140160309Y-132667359D01*
X139255547Y-131762597D02*
X138636500Y-131762597D01*
X138969833Y-132143550D01*
X138826976Y-132143550D01*
X138731738Y-132191169D01*
X138684119Y-132238788D01*
X138636500Y-132334026D01*
X138636500Y-132572121D01*
X138684119Y-132667359D01*
X138731738Y-132714978D01*
X138826976Y-132762597D01*
X139112690Y-132762597D01*
X139207928Y-132714978D01*
X139255547Y-132667359D01*
%TO.C,K54*%
X127142690Y-151812597D02*
X127142690Y-150812597D01*
X126571262Y-151812597D02*
X126999833Y-151241169D01*
X126571262Y-150812597D02*
X127142690Y-151384026D01*
X125666500Y-150812597D02*
X126142690Y-150812597D01*
X126190309Y-151288788D01*
X126142690Y-151241169D01*
X126047452Y-151193550D01*
X125809357Y-151193550D01*
X125714119Y-151241169D01*
X125666500Y-151288788D01*
X125618881Y-151384026D01*
X125618881Y-151622121D01*
X125666500Y-151717359D01*
X125714119Y-151764978D01*
X125809357Y-151812597D01*
X126047452Y-151812597D01*
X126142690Y-151764978D01*
X126190309Y-151717359D01*
X124761738Y-151145931D02*
X124761738Y-151812597D01*
X124999833Y-150764978D02*
X125237928Y-151479264D01*
X124618881Y-151479264D01*
%TO.C,K55*%
X126825190Y-75612597D02*
X126825190Y-74612597D01*
X126253762Y-75612597D02*
X126682333Y-75041169D01*
X126253762Y-74612597D02*
X126825190Y-75184026D01*
X125349000Y-74612597D02*
X125825190Y-74612597D01*
X125872809Y-75088788D01*
X125825190Y-75041169D01*
X125729952Y-74993550D01*
X125491857Y-74993550D01*
X125396619Y-75041169D01*
X125349000Y-75088788D01*
X125301381Y-75184026D01*
X125301381Y-75422121D01*
X125349000Y-75517359D01*
X125396619Y-75564978D01*
X125491857Y-75612597D01*
X125729952Y-75612597D01*
X125825190Y-75564978D01*
X125872809Y-75517359D01*
X124396619Y-74612597D02*
X124872809Y-74612597D01*
X124920428Y-75088788D01*
X124872809Y-75041169D01*
X124777571Y-74993550D01*
X124539476Y-74993550D01*
X124444238Y-75041169D01*
X124396619Y-75088788D01*
X124349000Y-75184026D01*
X124349000Y-75422121D01*
X124396619Y-75517359D01*
X124444238Y-75564978D01*
X124539476Y-75612597D01*
X124777571Y-75612597D01*
X124872809Y-75564978D01*
X124920428Y-75517359D01*
%TO.C,K56*%
X117300190Y-94662597D02*
X117300190Y-93662597D01*
X116728762Y-94662597D02*
X117157333Y-94091169D01*
X116728762Y-93662597D02*
X117300190Y-94234026D01*
X115824000Y-93662597D02*
X116300190Y-93662597D01*
X116347809Y-94138788D01*
X116300190Y-94091169D01*
X116204952Y-94043550D01*
X115966857Y-94043550D01*
X115871619Y-94091169D01*
X115824000Y-94138788D01*
X115776381Y-94234026D01*
X115776381Y-94472121D01*
X115824000Y-94567359D01*
X115871619Y-94614978D01*
X115966857Y-94662597D01*
X116204952Y-94662597D01*
X116300190Y-94614978D01*
X116347809Y-94567359D01*
X114919238Y-93662597D02*
X115109714Y-93662597D01*
X115204952Y-93710217D01*
X115252571Y-93757836D01*
X115347809Y-93900693D01*
X115395428Y-94091169D01*
X115395428Y-94472121D01*
X115347809Y-94567359D01*
X115300190Y-94614978D01*
X115204952Y-94662597D01*
X115014476Y-94662597D01*
X114919238Y-94614978D01*
X114871619Y-94567359D01*
X114824000Y-94472121D01*
X114824000Y-94234026D01*
X114871619Y-94138788D01*
X114919238Y-94091169D01*
X115014476Y-94043550D01*
X115204952Y-94043550D01*
X115300190Y-94091169D01*
X115347809Y-94138788D01*
X115395428Y-94234026D01*
%TO.C,K57*%
X114918940Y-132762597D02*
X114918940Y-131762597D01*
X114347512Y-132762597D02*
X114776083Y-132191169D01*
X114347512Y-131762597D02*
X114918940Y-132334026D01*
X113442750Y-131762597D02*
X113918940Y-131762597D01*
X113966559Y-132238788D01*
X113918940Y-132191169D01*
X113823702Y-132143550D01*
X113585607Y-132143550D01*
X113490369Y-132191169D01*
X113442750Y-132238788D01*
X113395131Y-132334026D01*
X113395131Y-132572121D01*
X113442750Y-132667359D01*
X113490369Y-132714978D01*
X113585607Y-132762597D01*
X113823702Y-132762597D01*
X113918940Y-132714978D01*
X113966559Y-132667359D01*
X113061797Y-131762597D02*
X112395131Y-131762597D01*
X112823702Y-132762597D01*
%TO.C,K58*%
X107775190Y-151812597D02*
X107775190Y-150812597D01*
X107203762Y-151812597D02*
X107632333Y-151241169D01*
X107203762Y-150812597D02*
X107775190Y-151384026D01*
X106299000Y-150812597D02*
X106775190Y-150812597D01*
X106822809Y-151288788D01*
X106775190Y-151241169D01*
X106679952Y-151193550D01*
X106441857Y-151193550D01*
X106346619Y-151241169D01*
X106299000Y-151288788D01*
X106251381Y-151384026D01*
X106251381Y-151622121D01*
X106299000Y-151717359D01*
X106346619Y-151764978D01*
X106441857Y-151812597D01*
X106679952Y-151812597D01*
X106775190Y-151764978D01*
X106822809Y-151717359D01*
X105679952Y-151241169D02*
X105775190Y-151193550D01*
X105822809Y-151145931D01*
X105870428Y-151050693D01*
X105870428Y-151003074D01*
X105822809Y-150907836D01*
X105775190Y-150860217D01*
X105679952Y-150812597D01*
X105489476Y-150812597D01*
X105394238Y-150860217D01*
X105346619Y-150907836D01*
X105299000Y-151003074D01*
X105299000Y-151050693D01*
X105346619Y-151145931D01*
X105394238Y-151193550D01*
X105489476Y-151241169D01*
X105679952Y-151241169D01*
X105775190Y-151288788D01*
X105822809Y-151336407D01*
X105870428Y-151431645D01*
X105870428Y-151622121D01*
X105822809Y-151717359D01*
X105775190Y-151764978D01*
X105679952Y-151812597D01*
X105489476Y-151812597D01*
X105394238Y-151764978D01*
X105346619Y-151717359D01*
X105299000Y-151622121D01*
X105299000Y-151431645D01*
X105346619Y-151336407D01*
X105394238Y-151288788D01*
X105489476Y-151241169D01*
%TO.C,K59*%
X98250190Y-75612597D02*
X98250190Y-74612597D01*
X97678762Y-75612597D02*
X98107333Y-75041169D01*
X97678762Y-74612597D02*
X98250190Y-75184026D01*
X96774000Y-74612597D02*
X97250190Y-74612597D01*
X97297809Y-75088788D01*
X97250190Y-75041169D01*
X97154952Y-74993550D01*
X96916857Y-74993550D01*
X96821619Y-75041169D01*
X96774000Y-75088788D01*
X96726381Y-75184026D01*
X96726381Y-75422121D01*
X96774000Y-75517359D01*
X96821619Y-75564978D01*
X96916857Y-75612597D01*
X97154952Y-75612597D01*
X97250190Y-75564978D01*
X97297809Y-75517359D01*
X96250190Y-75612597D02*
X96059714Y-75612597D01*
X95964476Y-75564978D01*
X95916857Y-75517359D01*
X95821619Y-75374502D01*
X95774000Y-75184026D01*
X95774000Y-74803074D01*
X95821619Y-74707836D01*
X95869238Y-74660217D01*
X95964476Y-74612597D01*
X96154952Y-74612597D01*
X96250190Y-74660217D01*
X96297809Y-74707836D01*
X96345428Y-74803074D01*
X96345428Y-75041169D01*
X96297809Y-75136407D01*
X96250190Y-75184026D01*
X96154952Y-75231645D01*
X95964476Y-75231645D01*
X95869238Y-75184026D01*
X95821619Y-75136407D01*
X95774000Y-75041169D01*
%TO.C,K60*%
X93487690Y-94662597D02*
X93487690Y-93662597D01*
X92916262Y-94662597D02*
X93344833Y-94091169D01*
X92916262Y-93662597D02*
X93487690Y-94234026D01*
X92059119Y-93662597D02*
X92249595Y-93662597D01*
X92344833Y-93710217D01*
X92392452Y-93757836D01*
X92487690Y-93900693D01*
X92535309Y-94091169D01*
X92535309Y-94472121D01*
X92487690Y-94567359D01*
X92440071Y-94614978D01*
X92344833Y-94662597D01*
X92154357Y-94662597D01*
X92059119Y-94614978D01*
X92011500Y-94567359D01*
X91963881Y-94472121D01*
X91963881Y-94234026D01*
X92011500Y-94138788D01*
X92059119Y-94091169D01*
X92154357Y-94043550D01*
X92344833Y-94043550D01*
X92440071Y-94091169D01*
X92487690Y-94138788D01*
X92535309Y-94234026D01*
X91344833Y-93662597D02*
X91249595Y-93662597D01*
X91154357Y-93710217D01*
X91106738Y-93757836D01*
X91059119Y-93853074D01*
X91011500Y-94043550D01*
X91011500Y-94281645D01*
X91059119Y-94472121D01*
X91106738Y-94567359D01*
X91154357Y-94614978D01*
X91249595Y-94662597D01*
X91344833Y-94662597D01*
X91440071Y-94614978D01*
X91487690Y-94567359D01*
X91535309Y-94472121D01*
X91582928Y-94281645D01*
X91582928Y-94043550D01*
X91535309Y-93853074D01*
X91487690Y-93757836D01*
X91440071Y-93710217D01*
X91344833Y-93662597D01*
%TO.C,K61*%
X100631440Y-113712597D02*
X100631440Y-112712597D01*
X100060012Y-113712597D02*
X100488583Y-113141169D01*
X100060012Y-112712597D02*
X100631440Y-113284026D01*
X99202869Y-112712597D02*
X99393345Y-112712597D01*
X99488583Y-112760217D01*
X99536202Y-112807836D01*
X99631440Y-112950693D01*
X99679059Y-113141169D01*
X99679059Y-113522121D01*
X99631440Y-113617359D01*
X99583821Y-113664978D01*
X99488583Y-113712597D01*
X99298107Y-113712597D01*
X99202869Y-113664978D01*
X99155250Y-113617359D01*
X99107631Y-113522121D01*
X99107631Y-113284026D01*
X99155250Y-113188788D01*
X99202869Y-113141169D01*
X99298107Y-113093550D01*
X99488583Y-113093550D01*
X99583821Y-113141169D01*
X99631440Y-113188788D01*
X99679059Y-113284026D01*
X98155250Y-113712597D02*
X98726678Y-113712597D01*
X98440964Y-113712597D02*
X98440964Y-112712597D01*
X98536202Y-112855455D01*
X98631440Y-112950693D01*
X98726678Y-112998312D01*
%TO.C,K62*%
X88725190Y-132762597D02*
X88725190Y-131762597D01*
X88153762Y-132762597D02*
X88582333Y-132191169D01*
X88153762Y-131762597D02*
X88725190Y-132334026D01*
X87296619Y-131762597D02*
X87487095Y-131762597D01*
X87582333Y-131810217D01*
X87629952Y-131857836D01*
X87725190Y-132000693D01*
X87772809Y-132191169D01*
X87772809Y-132572121D01*
X87725190Y-132667359D01*
X87677571Y-132714978D01*
X87582333Y-132762597D01*
X87391857Y-132762597D01*
X87296619Y-132714978D01*
X87249000Y-132667359D01*
X87201381Y-132572121D01*
X87201381Y-132334026D01*
X87249000Y-132238788D01*
X87296619Y-132191169D01*
X87391857Y-132143550D01*
X87582333Y-132143550D01*
X87677571Y-132191169D01*
X87725190Y-132238788D01*
X87772809Y-132334026D01*
X86820428Y-131857836D02*
X86772809Y-131810217D01*
X86677571Y-131762597D01*
X86439476Y-131762597D01*
X86344238Y-131810217D01*
X86296619Y-131857836D01*
X86249000Y-131953074D01*
X86249000Y-132048312D01*
X86296619Y-132191169D01*
X86868047Y-132762597D01*
X86249000Y-132762597D01*
%TO.C,K63*%
X88725190Y-151812597D02*
X88725190Y-150812597D01*
X88153762Y-151812597D02*
X88582333Y-151241169D01*
X88153762Y-150812597D02*
X88725190Y-151384026D01*
X87296619Y-150812597D02*
X87487095Y-150812597D01*
X87582333Y-150860217D01*
X87629952Y-150907836D01*
X87725190Y-151050693D01*
X87772809Y-151241169D01*
X87772809Y-151622121D01*
X87725190Y-151717359D01*
X87677571Y-151764978D01*
X87582333Y-151812597D01*
X87391857Y-151812597D01*
X87296619Y-151764978D01*
X87249000Y-151717359D01*
X87201381Y-151622121D01*
X87201381Y-151384026D01*
X87249000Y-151288788D01*
X87296619Y-151241169D01*
X87391857Y-151193550D01*
X87582333Y-151193550D01*
X87677571Y-151241169D01*
X87725190Y-151288788D01*
X87772809Y-151384026D01*
X86868047Y-150812597D02*
X86249000Y-150812597D01*
X86582333Y-151193550D01*
X86439476Y-151193550D01*
X86344238Y-151241169D01*
X86296619Y-151288788D01*
X86249000Y-151384026D01*
X86249000Y-151622121D01*
X86296619Y-151717359D01*
X86344238Y-151764978D01*
X86439476Y-151812597D01*
X86725190Y-151812597D01*
X86820428Y-151764978D01*
X86868047Y-151717359D01*
%TO.C,K64*%
X69675190Y-75612597D02*
X69675190Y-74612597D01*
X69103762Y-75612597D02*
X69532333Y-75041169D01*
X69103762Y-74612597D02*
X69675190Y-75184026D01*
X68246619Y-74612597D02*
X68437095Y-74612597D01*
X68532333Y-74660217D01*
X68579952Y-74707836D01*
X68675190Y-74850693D01*
X68722809Y-75041169D01*
X68722809Y-75422121D01*
X68675190Y-75517359D01*
X68627571Y-75564978D01*
X68532333Y-75612597D01*
X68341857Y-75612597D01*
X68246619Y-75564978D01*
X68199000Y-75517359D01*
X68151381Y-75422121D01*
X68151381Y-75184026D01*
X68199000Y-75088788D01*
X68246619Y-75041169D01*
X68341857Y-74993550D01*
X68532333Y-74993550D01*
X68627571Y-75041169D01*
X68675190Y-75088788D01*
X68722809Y-75184026D01*
X67294238Y-74945931D02*
X67294238Y-75612597D01*
X67532333Y-74564978D02*
X67770428Y-75279264D01*
X67151381Y-75279264D01*
%TO.C,K65*%
X69675190Y-94662597D02*
X69675190Y-93662597D01*
X69103762Y-94662597D02*
X69532333Y-94091169D01*
X69103762Y-93662597D02*
X69675190Y-94234026D01*
X68246619Y-93662597D02*
X68437095Y-93662597D01*
X68532333Y-93710217D01*
X68579952Y-93757836D01*
X68675190Y-93900693D01*
X68722809Y-94091169D01*
X68722809Y-94472121D01*
X68675190Y-94567359D01*
X68627571Y-94614978D01*
X68532333Y-94662597D01*
X68341857Y-94662597D01*
X68246619Y-94614978D01*
X68199000Y-94567359D01*
X68151381Y-94472121D01*
X68151381Y-94234026D01*
X68199000Y-94138788D01*
X68246619Y-94091169D01*
X68341857Y-94043550D01*
X68532333Y-94043550D01*
X68627571Y-94091169D01*
X68675190Y-94138788D01*
X68722809Y-94234026D01*
X67246619Y-93662597D02*
X67722809Y-93662597D01*
X67770428Y-94138788D01*
X67722809Y-94091169D01*
X67627571Y-94043550D01*
X67389476Y-94043550D01*
X67294238Y-94091169D01*
X67246619Y-94138788D01*
X67199000Y-94234026D01*
X67199000Y-94472121D01*
X67246619Y-94567359D01*
X67294238Y-94614978D01*
X67389476Y-94662597D01*
X67627571Y-94662597D01*
X67722809Y-94614978D01*
X67770428Y-94567359D01*
%TO.C,K66*%
X69675190Y-113712597D02*
X69675190Y-112712597D01*
X69103762Y-113712597D02*
X69532333Y-113141169D01*
X69103762Y-112712597D02*
X69675190Y-113284026D01*
X68246619Y-112712597D02*
X68437095Y-112712597D01*
X68532333Y-112760217D01*
X68579952Y-112807836D01*
X68675190Y-112950693D01*
X68722809Y-113141169D01*
X68722809Y-113522121D01*
X68675190Y-113617359D01*
X68627571Y-113664978D01*
X68532333Y-113712597D01*
X68341857Y-113712597D01*
X68246619Y-113664978D01*
X68199000Y-113617359D01*
X68151381Y-113522121D01*
X68151381Y-113284026D01*
X68199000Y-113188788D01*
X68246619Y-113141169D01*
X68341857Y-113093550D01*
X68532333Y-113093550D01*
X68627571Y-113141169D01*
X68675190Y-113188788D01*
X68722809Y-113284026D01*
X67294238Y-112712597D02*
X67484714Y-112712597D01*
X67579952Y-112760217D01*
X67627571Y-112807836D01*
X67722809Y-112950693D01*
X67770428Y-113141169D01*
X67770428Y-113522121D01*
X67722809Y-113617359D01*
X67675190Y-113664978D01*
X67579952Y-113712597D01*
X67389476Y-113712597D01*
X67294238Y-113664978D01*
X67246619Y-113617359D01*
X67199000Y-113522121D01*
X67199000Y-113284026D01*
X67246619Y-113188788D01*
X67294238Y-113141169D01*
X67389476Y-113093550D01*
X67579952Y-113093550D01*
X67675190Y-113141169D01*
X67722809Y-113188788D01*
X67770428Y-113284026D01*
%TO.C,K67*%
X69675190Y-132762597D02*
X69675190Y-131762597D01*
X69103762Y-132762597D02*
X69532333Y-132191169D01*
X69103762Y-131762597D02*
X69675190Y-132334026D01*
X68246619Y-131762597D02*
X68437095Y-131762597D01*
X68532333Y-131810217D01*
X68579952Y-131857836D01*
X68675190Y-132000693D01*
X68722809Y-132191169D01*
X68722809Y-132572121D01*
X68675190Y-132667359D01*
X68627571Y-132714978D01*
X68532333Y-132762597D01*
X68341857Y-132762597D01*
X68246619Y-132714978D01*
X68199000Y-132667359D01*
X68151381Y-132572121D01*
X68151381Y-132334026D01*
X68199000Y-132238788D01*
X68246619Y-132191169D01*
X68341857Y-132143550D01*
X68532333Y-132143550D01*
X68627571Y-132191169D01*
X68675190Y-132238788D01*
X68722809Y-132334026D01*
X67818047Y-131762597D02*
X67151381Y-131762597D01*
X67579952Y-132762597D01*
%TO.C,K68*%
X69675190Y-151812597D02*
X69675190Y-150812597D01*
X69103762Y-151812597D02*
X69532333Y-151241169D01*
X69103762Y-150812597D02*
X69675190Y-151384026D01*
X68246619Y-150812597D02*
X68437095Y-150812597D01*
X68532333Y-150860217D01*
X68579952Y-150907836D01*
X68675190Y-151050693D01*
X68722809Y-151241169D01*
X68722809Y-151622121D01*
X68675190Y-151717359D01*
X68627571Y-151764978D01*
X68532333Y-151812597D01*
X68341857Y-151812597D01*
X68246619Y-151764978D01*
X68199000Y-151717359D01*
X68151381Y-151622121D01*
X68151381Y-151384026D01*
X68199000Y-151288788D01*
X68246619Y-151241169D01*
X68341857Y-151193550D01*
X68532333Y-151193550D01*
X68627571Y-151241169D01*
X68675190Y-151288788D01*
X68722809Y-151384026D01*
X67579952Y-151241169D02*
X67675190Y-151193550D01*
X67722809Y-151145931D01*
X67770428Y-151050693D01*
X67770428Y-151003074D01*
X67722809Y-150907836D01*
X67675190Y-150860217D01*
X67579952Y-150812597D01*
X67389476Y-150812597D01*
X67294238Y-150860217D01*
X67246619Y-150907836D01*
X67199000Y-151003074D01*
X67199000Y-151050693D01*
X67246619Y-151145931D01*
X67294238Y-151193550D01*
X67389476Y-151241169D01*
X67579952Y-151241169D01*
X67675190Y-151288788D01*
X67722809Y-151336407D01*
X67770428Y-151431645D01*
X67770428Y-151622121D01*
X67722809Y-151717359D01*
X67675190Y-151764978D01*
X67579952Y-151812597D01*
X67389476Y-151812597D01*
X67294238Y-151764978D01*
X67246619Y-151717359D01*
X67199000Y-151622121D01*
X67199000Y-151431645D01*
X67246619Y-151336407D01*
X67294238Y-151288788D01*
X67389476Y-151241169D01*
%TD*%
M02*
