M48
; DRILL file {KiCad (5.1.10)-1} date 09/30/21 15:07:06
; FORMAT={-:-/ absolute / inch / decimal}
; #@! TF.CreationDate,2021-09-30T15:07:06-04:00
; #@! TF.GenerationSoftware,Kicad,Pcbnew,(5.1.10)-1
; #@! TF.FileFunction,NonPlated,1,2,NPTH
FMAT,2
INCH
T1C0.0256
T2C0.0670
T3C0.1200
T4C0.1570
%
G90
G05
T1
X13.4565Y-2.5633
X13.6841Y-2.5633
T2
X2.4953Y-2.7891
X2.4953Y-3.5391
X2.4953Y-4.2891
X2.4953Y-5.0391
X2.4953Y-5.7891
X2.8953Y-2.7891
X2.8953Y-3.5391
X2.8953Y-4.2891
X2.8953Y-5.0391
X2.8953Y-5.7891
X3.2453Y-5.0391
X3.2453Y-5.7891
X3.4328Y-3.5391
X3.6203Y-2.7891
X3.6453Y-5.0391
X3.6453Y-5.7891
X3.7141Y-4.2891
X3.8328Y-3.5391
X3.9953Y-5.7891
X4.0203Y-2.7891
X4.1141Y-4.2891
X4.2766Y-5.0391
X4.3703Y-3.5391
X4.3953Y-5.7891
X4.6766Y-5.0391
X4.7453Y-2.7891
X4.7578Y-5.7891
X4.7703Y-3.5391
X4.9328Y-4.2891
X5.1203Y-3.5391
X5.1453Y-2.7891
X5.1578Y-5.7891
X5.3078Y-5.0391
X5.3328Y-4.2891
X5.4953Y-2.7891
X5.4953Y-5.7891
X5.5203Y-3.5391
X5.6828Y-4.2891
X5.7078Y-5.0391
X5.8703Y-3.5391
X5.8953Y-2.7891
X5.8953Y-5.7891
X6.0578Y-5.0391
X6.0828Y-4.2891
X6.2453Y-2.7891
X6.2453Y-5.7891
X6.2703Y-3.5391
X6.4328Y-4.2891
X6.4578Y-5.0391
X6.6203Y-3.5391
X6.6453Y-2.7891
X6.6453Y-5.7891
X6.8078Y-5.0391
X6.8328Y-4.2891
X6.9953Y-2.7891
X7.0203Y-3.5391
X7.1828Y-4.2891
X7.2078Y-5.0391
X7.3703Y-3.5391
X7.3953Y-2.7891
X7.5578Y-5.0391
X7.5828Y-4.2891
X7.7453Y-2.7891
X7.7703Y-3.5391
X7.9328Y-4.2891
X7.9578Y-5.0391
X8.1203Y-3.5391
X8.1453Y-2.7891
X8.3078Y-5.0391
X8.3328Y-4.2891
X8.4953Y-2.7891
X8.5203Y-3.5391
X8.6828Y-4.2891
X8.7078Y-5.0391
X8.8703Y-3.5391
X8.8953Y-2.7891
X8.9641Y-5.7891
X9.0578Y-5.0391
X9.0828Y-4.2891
X9.2453Y-2.7891
X9.2703Y-3.5391
X9.3641Y-5.7891
X9.4328Y-4.2891
X9.4578Y-5.0391
X9.6203Y-3.5391
X9.6453Y-2.7891
X9.8078Y-5.0391
X9.8328Y-4.2891
X9.9953Y-2.7891
X10.0203Y-3.5391
X10.1828Y-4.2891
X10.2078Y-5.0391
X10.3703Y-3.5391
X10.3953Y-2.7891
X10.5578Y-5.0391
X10.5828Y-4.2891
X10.7453Y-2.7891
X10.7703Y-3.5391
X10.9328Y-4.2891
X10.9578Y-5.0391
X11.1203Y-3.5391
X11.1453Y-2.7891
X11.3078Y-5.0391
X11.3328Y-4.2891
X11.4953Y-2.7891
X11.5203Y-3.5391
X11.6828Y-4.2891
X11.7078Y-5.0391
X11.7766Y-5.7891
X11.8703Y-3.5391
X11.8953Y-2.7891
X12.0578Y-5.0391
X12.0828Y-4.2891
X12.1766Y-5.7891
X12.2453Y-2.7891
X12.2703Y-3.5391
X12.4328Y-4.2891
X12.4578Y-5.0391
X12.6203Y-3.5391
X12.6453Y-2.7891
X12.7141Y-5.7891
X12.8328Y-4.2891
X12.9953Y-2.7891
X13.0203Y-3.5391
X13.1141Y-5.7891
X13.2766Y-5.0391
X13.3953Y-2.7891
X13.4641Y-4.2891
X13.5578Y-3.5391
X13.6516Y-5.7891
X13.6766Y-5.0391
X13.7453Y-2.7891
X13.8641Y-4.2891
X13.9578Y-3.5391
X14.0516Y-5.7891
X14.1453Y-2.7891
T3
X3.3503Y-2.5141
X3.4441Y-4.0141
X4.2903Y-2.5141
X4.3841Y-4.0141
X7.1941Y-5.5141
X11.1341Y-5.5141
X13.0066Y-4.7641
X13.9466Y-4.7641
T4
X2.6953Y-2.7891
X2.6953Y-3.5391
X2.6953Y-4.2891
X2.6953Y-5.0391
X2.6953Y-5.7891
X3.3503Y-3.1141
X3.4441Y-4.6141
X3.4453Y-5.0391
X3.4453Y-5.7891
X3.6328Y-3.5391
X3.8203Y-2.7891
X3.9141Y-4.2891
X4.1953Y-5.7891
X4.2903Y-3.1141
X4.3841Y-4.6141
X4.4766Y-5.0391
X4.5703Y-3.5391
X4.9453Y-2.7891
X4.9578Y-5.7891
X5.1328Y-4.2891
X5.3203Y-3.5391
X5.5078Y-5.0391
X5.6953Y-2.7891
X5.6953Y-5.7891
X5.8828Y-4.2891
X6.0703Y-3.5391
X6.2578Y-5.0391
X6.4453Y-2.7891
X6.4453Y-5.7891
X6.6328Y-4.2891
X6.8203Y-3.5391
X7.0078Y-5.0391
X7.1941Y-6.1141
X7.1953Y-2.7891
X7.3828Y-4.2891
X7.5703Y-3.5391
X7.7578Y-5.0391
X7.9453Y-2.7891
X8.1328Y-4.2891
X8.3203Y-3.5391
X8.5078Y-5.0391
X8.6953Y-2.7891
X8.8828Y-4.2891
X9.0703Y-3.5391
X9.1641Y-5.7891
X9.2578Y-5.0391
X9.4453Y-2.7891
X9.6328Y-4.2891
X9.8203Y-3.5391
X10.0078Y-5.0391
X10.1953Y-2.7891
X10.3828Y-4.2891
X10.5703Y-3.5391
X10.7578Y-5.0391
X10.9453Y-2.7891
X11.1328Y-4.2891
X11.1341Y-6.1141
X11.3203Y-3.5391
X11.5078Y-5.0391
X11.6953Y-2.7891
X11.8828Y-4.2891
X11.9766Y-5.7891
X12.0703Y-3.5391
X12.2578Y-5.0391
X12.4453Y-2.7891
X12.6328Y-4.2891
X12.8203Y-3.5391
X12.9141Y-5.7891
X13.0066Y-5.3641
X13.1953Y-2.7891
X13.4766Y-5.0391
X13.6641Y-4.2891
X13.7578Y-3.5391
X13.8516Y-5.7891
X13.9453Y-2.7891
X13.9466Y-5.3641
T0
M30
